font.ufo
<glyph name="exclam" format="1">
  <advance width="247"/>
  <unicode hex="0021"/>
  <outline>
    <contour>
      <point x="176" y="229" type="line"/>
      <point x="182" y="722" type="line"/>
      <point x="66" y="722" type="line"/>
      <point x="72" y="229" type="line"/>
    </contour>
    <contour>
      <point x="176" y="44" type="curve"/>
      <point x="176" y="78"/>
      <point x="153" y="96"/>
      <point x="123" y="96" type="curve"/>
      <point x="92" y="96"/>
      <point x="72" y="77"/>
      <point x="72" y="44" type="curve"/>
      <point x="177" y="44"/>
      <point x="71" y="44"/>
      <point x="176" y="44" type="curve"/>
      <point x="176" y="9"/>
      <point x="154" y="-8"/>
      <point x="123" y="-8" type="curve"/>
      <point x="91" y="-8"/>
      <point x="72" y="10"/>
      <point x="72" y="44" type="curve"/>
      <point x="177" y="44"/>
      <point x="71" y="44"/>
    </contour>
  </outline>
</glyph>
<glyph name="quotedbl" format="1">
  <advance width="381"/>
  <unicode hex="0022"/>
  <outline>
    <contour>
      <point x="155" y="590" type="line"/>
      <point x="162" y="795" type="line"/>
      <point x="63" y="795" type="line"/>
      <point x="70" y="590" type="line"/>
    </contour>
    <contour>
      <point x="311" y="590" type="line"/>
      <point x="319" y="795" type="line"/>
      <point x="220" y="795" type="line"/>
      <point x="227" y="590" type="line"/>
    </contour>
  </outline>
</glyph>
<glyph name="numbersign" format="1">
  <advance width="507"/>
  <unicode hex="0023"/>
  <outline>
    <contour>
      <point x="43" y="228" type="line"/>
      <point x="403" y="228" type="line"/>
      <point x="421" y="307" type="line"/>
      <point x="60" y="307" type="line"/>
    </contour>
    <contour>
      <point x="86" y="452" type="line"/>
      <point x="447" y="452" type="line"/>
      <point x="465" y="530" type="line"/>
      <point x="102" y="530" type="line"/>
    </contour>
    <contour>
      <point x="321" y="39" type="line"/>
      <point x="460" y="722" type="line"/>
      <point x="361" y="722" type="line"/>
      <point x="222" y="39" type="line"/>
    </contour>
    <contour>
      <point x="144" y="46" type="line"/>
      <point x="283" y="722" type="line"/>
      <point x="184" y="722" type="line"/>
      <point x="50" y="46" type="line"/>
    </contour>
  </outline>
</glyph>
<glyph name="percent" format="1">
  <advance width="836"/>
  <unicode hex="0025"/>
  <outline>
    <contour>
      <point x="329" y="-56" type="line"/>
      <point x="604" y="725" type="line"/>
      <point x="512" y="725" type="line"/>
      <point x="237" y="-56" type="line"/>
    </contour>
    <contour>
      <point x="117" y="517" type="curve"/>
      <point x="117" y="593"/>
      <point x="125" y="660"/>
      <point x="189" y="660" type="curve"/>
      <point x="254" y="661"/>
      <point x="262" y="593"/>
      <point x="262" y="516" type="curve"/>
      <point x="262" y="439"/>
      <point x="259" y="371"/>
      <point x="194" y="371" type="curve"/>
      <point x="127" y="371"/>
      <point x="117" y="439"/>
      <point x="117" y="517" type="curve"/>
      <point x="87" y="517"/>
      <point x="66" y="517"/>
      <point x="36" y="517" type="curve"/>
      <point x="36" y="395"/>
      <point x="79" y="301"/>
      <point x="190" y="301" type="curve"/>
      <point x="302" y="301"/>
      <point x="348" y="396"/>
      <point x="348" y="520" type="curve"/>
      <point x="348" y="640"/>
      <point x="302" y="731"/>
      <point x="193" y="729" type="curve"/>
      <point x="82" y="729"/>
      <point x="36" y="638"/>
      <point x="36" y="517" type="curve"/>
      <point x="66" y="517"/>
      <point x="87" y="517"/>
    </contour>
    <contour>
      <point x="570" y="159" type="curve"/>
      <point x="570" y="235"/>
      <point x="578" y="301"/>
      <point x="642" y="301" type="curve"/>
      <point x="706" y="302"/>
      <point x="714" y="235"/>
      <point x="714" y="158" type="curve"/>
      <point x="714" y="82"/>
      <point x="711" y="12"/>
      <point x="646" y="12" type="curve"/>
      <point x="579" y="12"/>
      <point x="570" y="80"/>
      <point x="570" y="159" type="curve"/>
      <point x="539" y="159"/>
      <point x="518" y="159"/>
      <point x="488" y="159" type="curve"/>
      <point x="488" y="37"/>
      <point x="532" y="-57"/>
      <point x="643" y="-57" type="curve"/>
      <point x="755" y="-57"/>
      <point x="800" y="38"/>
      <point x="800" y="161" type="curve"/>
      <point x="800" y="281"/>
      <point x="755" y="372"/>
      <point x="646" y="371" type="curve"/>
      <point x="535" y="371"/>
      <point x="488" y="280"/>
      <point x="488" y="159" type="curve"/>
      <point x="518" y="159"/>
      <point x="539" y="159"/>
    </contour>
  </outline>
</glyph>
<glyph name="ampersand" format="1">
  <advance width="516"/>
  <unicode hex="0026"/>
  <outline>
    <contour>
      <point x="495" y="27" type="line"/>
      <point x="426" y="131"/>
      <point x="350" y="260"/>
      <point x="278" y="368" type="curve"/>
      <point x="239" y="429"/>
      <point x="188" y="485"/>
      <point x="188" y="559" type="curve"/>
      <point x="188" y="603"/>
      <point x="194" y="649"/>
      <point x="229" y="649" type="curve"/>
      <point x="264" y="649"/>
      <point x="270" y="606"/>
      <point x="270" y="561" type="curve"/>
      <point x="270" y="497"/>
      <point x="241" y="450"/>
      <point x="191" y="409" type="curve"/>
      <point x="114" y="346"/>
      <point x="53" y="289"/>
      <point x="53" y="192" type="curve"/>
      <point x="53" y="80"/>
      <point x="116" y="-5"/>
      <point x="223" y="-5" type="curve"/>
      <point x="383" y="-5"/>
      <point x="439" y="145"/>
      <point x="474" y="314" type="curve"/>
      <point x="389" y="334"/>
      <point x="474" y="314"/>
      <point x="389" y="334" type="curve"/>
      <point x="362" y="205"/>
      <point x="342" y="74"/>
      <point x="228" y="74" type="curve"/>
      <point x="174" y="74"/>
      <point x="152" y="129"/>
      <point x="152" y="192" type="curve"/>
      <point x="152" y="257"/>
      <point x="183" y="303"/>
      <point x="234" y="345" type="curve"/>
      <point x="309" y="407"/>
      <point x="369" y="466"/>
      <point x="370" y="561" type="curve"/>
      <point x="370" y="656"/>
      <point x="320" y="727"/>
      <point x="232" y="727" type="curve"/>
      <point x="144" y="727"/>
      <point x="97" y="654"/>
      <point x="97" y="559" type="curve"/>
      <point x="97" y="464"/>
      <point x="154" y="398"/>
      <point x="207" y="320" type="curve"/>
      <point x="274" y="216"/>
      <point x="354" y="82"/>
      <point x="418" y="-17" type="curve"/>
    </contour>
  </outline>
</glyph>
<glyph name="quotesingle" format="1">
  <advance width="225"/>
  <unicode hex="0027"/>
  <outline>
    <contour>
      <point x="155" y="590" type="line"/>
      <point x="162" y="795" type="line"/>
      <point x="63" y="795" type="line"/>
      <point x="70" y="590" type="line"/>
    </contour>
  </outline>
</glyph>
<glyph name="parenleft" format="1">
  <advance width="287"/>
  <unicode hex="0028"/>
  <outline>
    <contour>
      <point x="280" y="-216" type="curve"/>
      <point x="161" y="-39"/>
      <point x="140" y="115"/>
      <point x="140" y="326" type="curve"/>
      <point x="140" y="538"/>
      <point x="163" y="692"/>
      <point x="279" y="871" type="curve"/>
      <point x="219" y="921"/>
      <point x="279" y="871"/>
      <point x="219" y="921" type="curve"/>
      <point x="88" y="725"/>
      <point x="44" y="561"/>
      <point x="44" y="326" type="curve"/>
      <point x="44" y="90"/>
      <point x="89" y="-73"/>
      <point x="220" y="-271" type="curve"/>
      <point x="280" y="-216"/>
      <point x="220" y="-271"/>
    </contour>
  </outline>
</glyph>
<glyph name="parenright" format="1">
  <advance width="290"/>
  <unicode hex="0029"/>
  <outline>
    <contour>
      <point x="61" y="-285" type="curve"/>
      <point x="194" y="-81"/>
      <point x="248" y="86"/>
      <point x="248" y="328" type="curve"/>
      <point x="248" y="565"/>
      <point x="201" y="728"/>
      <point x="64" y="923" type="curve"/>
      <point x="5" y="868"/>
      <point x="64" y="923"/>
      <point x="5" y="868" type="curve"/>
      <point x="125" y="691"/>
      <point x="150" y="536"/>
      <point x="150" y="325" type="curve"/>
      <point x="150" y="108"/>
      <point x="117" y="-48"/>
      <point x="1" y="-234" type="curve"/>
      <point x="61" y="-285"/>
      <point x="1" y="-234"/>
    </contour>
  </outline>
</glyph>
<glyph name="asterisk" format="1">
  <advance width="511"/>
  <unicode hex="002A"/>
  <outline>
    <contour>
      <point x="287" y="523" type="line"/>
      <point x="292" y="729" type="line"/>
      <point x="220" y="729" type="line"/>
      <point x="226" y="523" type="line"/>
    </contour>
    <contour>
      <point x="259" y="498" type="line"/>
      <point x="456" y="561" type="line"/>
      <point x="431" y="629" type="line"/>
      <point x="239" y="556" type="line"/>
    </contour>
    <contour>
      <point x="228" y="515" type="line"/>
      <point x="352" y="351" type="line"/>
      <point x="408" y="397" type="line"/>
      <point x="275" y="554" type="line"/>
    </contour>
    <contour>
      <point x="236" y="555" type="line"/>
      <point x="103" y="398" type="line"/>
      <point x="158" y="352" type="line"/>
      <point x="283" y="516" type="line"/>
    </contour>
    <contour>
      <point x="273" y="557" type="line"/>
      <point x="80" y="630" type="line"/>
      <point x="55" y="562" type="line"/>
      <point x="252" y="499" type="line"/>
    </contour>
  </outline>
</glyph>
<glyph name="plus" format="1">
  <advance width="573"/>
  <unicode hex="002B"/>
  <outline>
    <contour>
      <point x="43" y="271" type="curve"/>
      <point x="530" y="271" type="line"/>
      <point x="530" y="356"/>
      <point x="530" y="271"/>
      <point x="530" y="356" type="curve"/>
      <point x="43" y="356" type="line"/>
      <point x="43" y="271"/>
      <point x="43" y="356"/>
    </contour>
    <contour>
      <point x="332" y="48" type="curve"/>
      <point x="332" y="581" type="line"/>
      <point x="234" y="581"/>
      <point x="339" y="581"/>
      <point x="240" y="581" type="curve"/>
      <point x="240" y="48" type="line"/>
      <point x="339" y="48"/>
      <point x="234" y="48"/>
    </contour>
  </outline>
</glyph>
<glyph name="hyphen" format="1">
  <advance width="325"/>
  <unicode hex="002D"/>
  <outline>
    <contour>
      <point x="69" y="236" type="curve"/>
      <point x="132" y="236"/>
      <point x="195" y="236"/>
      <point x="257" y="236" type="curve"/>
      <point x="257" y="322"/>
      <point x="257" y="236"/>
      <point x="257" y="322" type="curve"/>
      <point x="195" y="322"/>
      <point x="132" y="322"/>
      <point x="69" y="322" type="curve"/>
      <point x="69" y="236"/>
      <point x="69" y="322"/>
    </contour>
  </outline>
</glyph>
<glyph name="period" format="1">
  <advance width="233"/>
  <unicode hex="002E"/>
  <outline>
    <contour>
      <point x="168" y="44" type="curve"/>
      <point x="168" y="78"/>
      <point x="146" y="96"/>
      <point x="115" y="96" type="curve"/>
      <point x="84" y="96"/>
      <point x="64" y="77"/>
      <point x="64" y="44" type="curve"/>
      <point x="170" y="44"/>
      <point x="63" y="44"/>
      <point x="168" y="44" type="curve"/>
      <point x="168" y="9"/>
      <point x="146" y="-8"/>
      <point x="115" y="-8" type="curve"/>
      <point x="84" y="-8"/>
      <point x="64" y="10"/>
      <point x="64" y="44" type="curve"/>
      <point x="170" y="44"/>
      <point x="63" y="44"/>
    </contour>
  </outline>
</glyph>
<glyph name="zero" format="1">
  <advance width="550"/>
  <unicode hex="0030"/>
  <outline>
    <contour>
      <point x="150" y="360" type="curve"/>
      <point x="150" y="511"/>
      <point x="149" y="645"/>
      <point x="272" y="645" type="curve"/>
      <point x="397" y="645"/>
      <point x="402" y="513"/>
      <point x="402" y="363" type="curve"/>
      <point x="402" y="213"/>
      <point x="401" y="77"/>
      <point x="280" y="77" type="curve"/>
      <point x="159" y="77"/>
      <point x="150" y="210"/>
      <point x="150" y="360" type="curve"/>
      <point x="56" y="360"/>
      <point x="149" y="360"/>
      <point x="55" y="360" type="curve"/>
      <point x="55" y="159"/>
      <point x="100" y="-5"/>
      <point x="275" y="-5" type="curve"/>
      <point x="452" y="-5"/>
      <point x="495" y="159"/>
      <point x="495" y="363" type="curve"/>
      <point x="495" y="564"/>
      <point x="454" y="727"/>
      <point x="282" y="727" type="curve"/>
      <point x="103" y="727"/>
      <point x="55" y="564"/>
      <point x="55" y="360" type="curve"/>
      <point x="149" y="360"/>
      <point x="56" y="360"/>
    </contour>
  </outline>
</glyph>
<glyph name="three" format="1">
  <advance width="424"/>
  <unicode hex="0033"/>
  <outline>
    <contour>
      <point x="45" y="59" type="curve"/>
      <point x="92" y="20"/>
      <point x="126" y="-5"/>
      <point x="183" y="-5" type="curve"/>
      <point x="306" y="-5"/>
      <point x="372" y="75"/>
      <point x="372" y="202" type="curve"/>
      <point x="372" y="321"/>
      <point x="278" y="400"/>
      <point x="126" y="400" type="curve"/>
      <point x="126" y="339"/>
      <point x="126" y="395"/>
      <point x="126" y="334" type="curve"/>
      <point x="220" y="334"/>
      <point x="276" y="276"/>
      <point x="276" y="199" type="curve"/>
      <point x="276" y="130"/>
      <point x="245" y="77"/>
      <point x="188" y="77" type="curve"/>
      <point x="150" y="77"/>
      <point x="128" y="92"/>
      <point x="101" y="116" type="curve"/>
      <point x="45" y="59"/>
      <point x="101" y="116"/>
    </contour>
    <contour>
      <point x="113" y="587" type="curve"/>
      <point x="124" y="611"/>
      <point x="146" y="646"/>
      <point x="181" y="646" type="curve"/>
      <point x="235" y="646"/>
      <point x="255" y="597"/>
      <point x="255" y="534" type="curve"/>
      <point x="255" y="467"/>
      <point x="208" y="416"/>
      <point x="126" y="416" type="curve"/>
      <point x="126" y="354"/>
      <point x="126" y="411"/>
      <point x="126" y="349" type="curve"/>
      <point x="259" y="349"/>
      <point x="350" y="423"/>
      <point x="350" y="536" type="curve"/>
      <point x="350" y="650"/>
      <point x="295" y="727"/>
      <point x="191" y="727" type="curve"/>
      <point x="124" y="727"/>
      <point x="71" y="682"/>
      <point x="47" y="634" type="curve"/>
      <point x="113" y="587"/>
      <point x="47" y="634"/>
    </contour>
  </outline>
</glyph>
<glyph name="seven" format="1">
  <advance width="409"/>
  <unicode hex="0037"/>
  <outline>
    <contour>
      <point x="135" y="559" type="line"/>
      <point x="135" y="653" type="line"/>
      <point x="56" y="653" type="line"/>
      <point x="56" y="559" type="line"/>
    </contour>
    <contour>
      <point x="56" y="644" type="line"/>
      <point x="391" y="644" type="line"/>
      <point x="391" y="722" type="line"/>
      <point x="56" y="722" type="line"/>
    </contour>
    <contour>
      <point x="334" y="722" type="line"/>
      <point x="54" y="0" type="line"/>
      <point x="150" y="0" type="line"/>
      <point x="391" y="644" type="line"/>
    </contour>
  </outline>
</glyph>
<glyph name="eight" format="1">
  <advance width="458"/>
  <unicode hex="0038"/>
  <outline>
    <contour>
      <point x="68" y="546" type="curve"/>
      <point x="68" y="451"/>
      <point x="120" y="403"/>
      <point x="201" y="349" type="curve"/>
      <point x="264" y="304"/>
      <point x="303" y="258"/>
      <point x="303" y="185" type="curve"/>
      <point x="303" y="125"/>
      <point x="283" y="78"/>
      <point x="230" y="78" type="curve"/>
      <point x="175" y="78"/>
      <point x="155" y="124"/>
      <point x="155" y="185" type="curve"/>
      <point x="155" y="260"/>
      <point x="195" y="301"/>
      <point x="260" y="348" type="curve"/>
      <point x="336" y="403"/>
      <point x="390" y="451"/>
      <point x="390" y="544" type="curve"/>
      <point x="390" y="656"/>
      <point x="338" y="727"/>
      <point x="230" y="727" type="curve"/>
      <point x="124" y="727"/>
      <point x="68" y="655"/>
      <point x="68" y="546" type="curve"/>
      <point x="167" y="546"/>
      <point x="68" y="546"/>
      <point x="167" y="546" type="curve"/>
      <point x="167" y="599"/>
      <point x="180" y="645"/>
      <point x="227" y="645" type="curve"/>
      <point x="275" y="645"/>
      <point x="291" y="601"/>
      <point x="291" y="544" type="curve"/>
      <point x="291" y="482"/>
      <point x="255" y="444"/>
      <point x="200" y="406" type="curve"/>
      <point x="112" y="344"/>
      <point x="56" y="291"/>
      <point x="56" y="185" type="curve"/>
      <point x="56" y="70"/>
      <point x="113" y="-5"/>
      <point x="225" y="-5" type="curve"/>
      <point x="339" y="-5"/>
      <point x="403" y="69"/>
      <point x="403" y="185" type="curve"/>
      <point x="403" y="290"/>
      <point x="347" y="346"/>
      <point x="260" y="406" type="curve"/>
      <point x="205" y="447"/>
      <point x="167" y="482"/>
      <point x="167" y="546" type="curve"/>
      <point x="68" y="546"/>
      <point x="167" y="546"/>
    </contour>
  </outline>
</glyph>
<glyph name="colon" format="1">
  <advance width="242"/>
  <unicode hex="003A"/>
  <outline>
    <contour>
      <point x="173" y="376" type="curve"/>
      <point x="173" y="410"/>
      <point x="151" y="428"/>
      <point x="120" y="428" type="curve"/>
      <point x="89" y="428"/>
      <point x="69" y="408"/>
      <point x="69" y="376" type="curve"/>
      <point x="174" y="376"/>
      <point x="68" y="376"/>
      <point x="173" y="376" type="curve"/>
      <point x="173" y="340"/>
      <point x="152" y="324"/>
      <point x="120" y="324" type="curve"/>
      <point x="89" y="324"/>
      <point x="69" y="342"/>
      <point x="69" y="376" type="curve"/>
      <point x="174" y="376"/>
      <point x="68" y="376"/>
    </contour>
    <contour>
      <point x="173" y="47" type="curve"/>
      <point x="173" y="82"/>
      <point x="151" y="100"/>
      <point x="120" y="100" type="curve"/>
      <point x="89" y="100"/>
      <point x="69" y="80"/>
      <point x="69" y="47" type="curve"/>
      <point x="174" y="47"/>
      <point x="68" y="47"/>
      <point x="173" y="47" type="curve"/>
      <point x="173" y="12"/>
      <point x="152" y="-4"/>
      <point x="120" y="-4" type="curve"/>
      <point x="89" y="-4"/>
      <point x="69" y="14"/>
      <point x="69" y="47" type="curve"/>
      <point x="174" y="47"/>
      <point x="68" y="47"/>
    </contour>
  </outline>
</glyph>
<glyph name="less" format="1">
  <advance width="490"/>
  <unicode hex="003C"/>
  <outline>
    <contour>
      <point x="427" y="614" type="curve"/>
      <point x="297" y="524"/>
      <point x="166" y="434"/>
      <point x="36" y="344" type="curve"/>
      <point x="36" y="256"/>
      <point x="36" y="344"/>
      <point x="36" y="256" type="curve"/>
      <point x="166" y="346"/>
      <point x="297" y="436"/>
      <point x="427" y="526" type="curve"/>
      <point x="427" y="614"/>
      <point x="427" y="526"/>
    </contour>
    <contour>
      <point x="434" y="80" type="curve"/>
      <point x="300" y="168"/>
      <point x="167" y="256"/>
      <point x="36" y="344" type="curve"/>
      <point x="36" y="256"/>
      <point x="36" y="344"/>
      <point x="36" y="256" type="curve"/>
      <point x="167" y="168"/>
      <point x="300" y="80"/>
      <point x="434" y="-8" type="curve"/>
      <point x="434" y="80"/>
      <point x="434" y="-8"/>
    </contour>
  </outline>
</glyph>
<glyph name="equal" format="1">
  <advance width="550"/>
  <unicode hex="003D"/>
  <outline>
    <contour>
      <point x="72" y="176" type="curve"/>
      <point x="207" y="176"/>
      <point x="342" y="176"/>
      <point x="477" y="176" type="curve"/>
      <point x="477" y="259"/>
      <point x="477" y="176"/>
      <point x="477" y="259" type="curve"/>
      <point x="342" y="259"/>
      <point x="207" y="259"/>
      <point x="72" y="259" type="curve"/>
      <point x="72" y="176"/>
      <point x="72" y="259"/>
    </contour>
    <contour>
      <point x="72" y="398" type="curve"/>
      <point x="207" y="398"/>
      <point x="342" y="398"/>
      <point x="477" y="398" type="curve"/>
      <point x="477" y="481"/>
      <point x="477" y="398"/>
      <point x="477" y="481" type="curve"/>
      <point x="342" y="481"/>
      <point x="207" y="481"/>
      <point x="72" y="481" type="curve"/>
      <point x="72" y="398"/>
      <point x="72" y="481"/>
    </contour>
  </outline>
</glyph>
<glyph name="greater" format="1">
  <advance width="491"/>
  <unicode hex="003E"/>
  <outline>
    <contour>
      <point x="63" y="-8" type="curve"/>
      <point x="193" y="82"/>
      <point x="324" y="172"/>
      <point x="455" y="262" type="curve"/>
      <point x="455" y="350"/>
      <point x="455" y="262"/>
      <point x="455" y="350" type="curve"/>
      <point x="324" y="260"/>
      <point x="193" y="170"/>
      <point x="63" y="80" type="curve"/>
      <point x="63" y="-8"/>
      <point x="63" y="80"/>
    </contour>
    <contour>
      <point x="57" y="526" type="curve"/>
      <point x="189" y="438"/>
      <point x="322" y="350"/>
      <point x="455" y="262" type="curve"/>
      <point x="455" y="350"/>
      <point x="455" y="262"/>
      <point x="455" y="350" type="curve"/>
      <point x="322" y="438"/>
      <point x="189" y="526"/>
      <point x="57" y="614" type="curve"/>
      <point x="57" y="526"/>
      <point x="57" y="614"/>
    </contour>
  </outline>
</glyph>
<glyph name="question" format="1">
  <advance width="424"/>
  <unicode hex="003F"/>
  <outline>
    <contour>
      <point x="159" y="363" type="curve"/>
      <point x="159" y="326"/>
      <point x="159" y="258"/>
      <point x="159" y="221" type="curve"/>
      <point x="248" y="221"/>
      <point x="159" y="221"/>
      <point x="248" y="221" type="curve"/>
      <point x="248" y="258"/>
      <point x="248" y="326"/>
      <point x="248" y="363" type="curve"/>
      <point x="159" y="363"/>
      <point x="248" y="363"/>
    </contour>
    <contour>
      <point x="96" y="597" type="line"/>
      <point x="121" y="631"/>
      <point x="144" y="653"/>
      <point x="187" y="653" type="curve"/>
      <point x="254" y="653"/>
      <point x="280" y="591"/>
      <point x="280" y="518" type="curve"/>
      <point x="280" y="433"/>
      <point x="246" y="363"/>
      <point x="169" y="363" type="curve"/>
      <point x="169" y="330"/>
      <point x="169" y="321"/>
      <point x="169" y="288" type="curve"/>
      <point x="301" y="288"/>
      <point x="376" y="384"/>
      <point x="376" y="518" type="curve"/>
      <point x="376" y="647"/>
      <point x="307" y="736"/>
      <point x="191" y="736" type="curve"/>
      <point x="121" y="736"/>
      <point x="74" y="709"/>
      <point x="41" y="660" type="curve"/>
    </contour>
    <contour>
      <point x="256" y="49" type="curve"/>
      <point x="256" y="83"/>
      <point x="234" y="101"/>
      <point x="203" y="101" type="curve"/>
      <point x="172" y="101"/>
      <point x="152" y="81"/>
      <point x="152" y="49" type="curve"/>
      <point x="256" y="49"/>
      <point x="152" y="49"/>
      <point x="256" y="49" type="curve"/>
      <point x="256" y="13"/>
      <point x="235" y="-3"/>
      <point x="203" y="-3" type="curve"/>
      <point x="172" y="-3"/>
      <point x="152" y="15"/>
      <point x="152" y="49" type="curve"/>
      <point x="256" y="49"/>
      <point x="152" y="49"/>
    </contour>
  </outline>
</glyph>
<glyph name="at" format="1">
  <advance width="627"/>
  <unicode hex="0040"/>
  <outline>
    <contour>
      <point x="407" y="-43" type="curve"/>
      <point x="382" y="-64"/>
      <point x="361" y="-73"/>
      <point x="327" y="-73" type="curve"/>
      <point x="194" y="-73"/>
      <point x="136" y="51"/>
      <point x="136" y="204" type="curve"/>
      <point x="136" y="350"/>
      <point x="190" y="470"/>
      <point x="318" y="470" type="curve"/>
      <point x="440" y="470"/>
      <point x="492" y="352"/>
      <point x="492" y="211" type="curve"/>
      <point x="492" y="150"/>
      <point x="495" y="95"/>
      <point x="470" y="95" type="curve"/>
      <point x="443" y="95"/>
      <point x="448" y="147"/>
      <point x="448" y="208" type="curve"/>
      <point x="448" y="313"/>
      <point x="409" y="395"/>
      <point x="314" y="395" type="curve"/>
      <point x="212" y="395"/>
      <point x="181" y="315"/>
      <point x="181" y="206" type="curve"/>
      <point x="181" y="93"/>
      <point x="208" y="9"/>
      <point x="308" y="9" type="curve"/>
      <point x="399" y="9"/>
      <point x="425" y="89"/>
      <point x="433" y="192" type="curve"/>
      <point x="371" y="206"/>
      <point x="433" y="192"/>
      <point x="371" y="206" type="curve"/>
      <point x="362" y="149"/>
      <point x="367" y="87"/>
      <point x="318" y="87" type="curve"/>
      <point x="271" y="87"/>
      <point x="267" y="145"/>
      <point x="267" y="210" type="curve"/>
      <point x="267" y="265"/>
      <point x="268" y="315"/>
      <point x="310" y="315" type="curve"/>
      <point x="361" y="315"/>
      <point x="357" y="263"/>
      <point x="357" y="204" type="curve"/>
      <point x="357" y="104"/>
      <point x="374" y="21"/>
      <point x="462" y="21" type="curve"/>
      <point x="555" y="21"/>
      <point x="575" y="106"/>
      <point x="575" y="215" type="curve"/>
      <point x="575" y="407"/>
      <point x="497" y="552"/>
      <point x="320" y="552" type="curve"/>
      <point x="132" y="552"/>
      <point x="49" y="403"/>
      <point x="49" y="199" type="curve"/>
      <point x="49" y="-2"/>
      <point x="137" y="-151"/>
      <point x="322" y="-151" type="curve"/>
      <point x="375" y="-151"/>
      <point x="402" y="-143"/>
      <point x="447" y="-110" type="curve"/>
      <point x="407" y="-43"/>
      <point x="447" y="-110"/>
    </contour>
  </outline>
</glyph>
<glyph name="B" format="1">
  <advance width="528"/>
  <unicode hex="0042"/>
  <outline>
    <contour>
      <point x="173" y="722" type="curve"/>
      <point x="131" y="722"/>
      <point x="96" y="722"/>
      <point x="54" y="722" type="curve"/>
      <point x="54" y="644"/>
      <point x="54" y="722"/>
      <point x="54" y="644" type="curve"/>
      <point x="181" y="644"/>
      <point x="45" y="644"/>
      <point x="173" y="644" type="curve"/>
      <point x="173" y="722"/>
      <point x="173" y="644"/>
    </contour>
    <contour>
      <point x="172" y="78" type="curve"/>
      <point x="44" y="78"/>
      <point x="180" y="78"/>
      <point x="53" y="78" type="curve"/>
      <point x="53" y="0"/>
      <point x="53" y="78"/>
      <point x="53" y="0" type="curve"/>
      <point x="95" y="0"/>
      <point x="130" y="0"/>
      <point x="172" y="0" type="curve"/>
      <point x="172" y="78"/>
      <point x="172" y="0"/>
    </contour>
    <contour>
      <point x="166" y="644" type="curve"/>
      <point x="207" y="644"/>
      <point x="228" y="644"/>
      <point x="270" y="644" type="curve"/>
      <point x="329" y="644"/>
      <point x="350" y="601"/>
      <point x="350" y="543" type="curve"/>
      <point x="350" y="489"/>
      <point x="333" y="445"/>
      <point x="281" y="445" type="curve"/>
      <point x="236" y="445"/>
      <point x="211" y="445"/>
      <point x="166" y="445" type="curve"/>
      <point x="166" y="423"/>
      <point x="166" y="388"/>
      <point x="166" y="366" type="curve"/>
      <point x="198" y="366"/>
      <point x="217" y="366"/>
      <point x="250" y="366" type="curve"/>
      <point x="357" y="366"/>
      <point x="448" y="424"/>
      <point x="448" y="539" type="curve"/>
      <point x="448" y="651"/>
      <point x="387" y="722"/>
      <point x="277" y="722" type="curve"/>
      <point x="233" y="722"/>
      <point x="209" y="722"/>
      <point x="166" y="722" type="curve"/>
      <point x="166" y="700"/>
      <point x="166" y="666"/>
    </contour>
    <contour>
      <point x="225" y="0" type="curve"/>
      <point x="225" y="241"/>
      <point x="225" y="481"/>
      <point x="225" y="722" type="curve"/>
      <point x="121" y="722"/>
      <point x="225" y="722"/>
      <point x="121" y="722" type="curve"/>
      <point x="121" y="481"/>
      <point x="122" y="241"/>
      <point x="121" y="0" type="curve"/>
      <point x="225" y="0"/>
      <point x="121" y="0"/>
    </contour>
    <contour>
      <point x="166" y="366" type="curve"/>
      <point x="211" y="366"/>
      <point x="236" y="366"/>
      <point x="281" y="366" type="curve"/>
      <point x="358" y="366"/>
      <point x="380" y="300"/>
      <point x="380" y="219" type="curve"/>
      <point x="380" y="139"/>
      <point x="349" y="78"/>
      <point x="274" y="78" type="curve"/>
      <point x="231" y="78"/>
      <point x="209" y="78"/>
      <point x="166" y="78" type="curve"/>
      <point x="166" y="56"/>
      <point x="166" y="22"/>
      <point x="166" y="0" type="curve"/>
      <point x="211" y="0"/>
      <point x="235" y="0"/>
      <point x="281" y="0" type="curve"/>
      <point x="408" y="0"/>
      <point x="479" y="85"/>
      <point x="479" y="217" type="curve"/>
      <point x="479" y="359"/>
      <point x="390" y="445"/>
      <point x="251" y="445" type="curve"/>
      <point x="218" y="445"/>
      <point x="198" y="445"/>
      <point x="166" y="445" type="curve"/>
      <point x="166" y="423"/>
      <point x="166" y="388"/>
    </contour>
  </outline>
</glyph>
<glyph name="F" format="1">
  <advance width="465"/>
  <unicode hex="0046"/>
  <outline>
    <contour>
      <point x="175" y="0" type="curve"/>
      <point x="218" y="0"/>
      <point x="175" y="0"/>
      <point x="307" y="0" type="curve"/>
      <point x="307" y="78"/>
      <point x="307" y="0"/>
      <point x="307" y="78" type="curve"/>
      <point x="175" y="78"/>
      <point x="307" y="78"/>
      <point x="175" y="78" type="curve"/>
      <point x="175" y="0"/>
      <point x="175" y="78"/>
    </contour>
    <contour>
      <point x="175" y="722" type="curve"/>
      <point x="132" y="722"/>
      <point x="96" y="722"/>
      <point x="53" y="722" type="curve"/>
      <point x="53" y="644"/>
      <point x="53" y="722"/>
      <point x="53" y="644" type="curve"/>
      <point x="183" y="644"/>
      <point x="45" y="644"/>
      <point x="175" y="644" type="curve"/>
      <point x="175" y="722"/>
      <point x="175" y="644"/>
    </contour>
    <contour>
      <point x="175" y="78" type="curve"/>
      <point x="45" y="78"/>
      <point x="183" y="78"/>
      <point x="53" y="78" type="curve"/>
      <point x="53" y="0"/>
      <point x="53" y="78"/>
      <point x="53" y="0" type="curve"/>
      <point x="96" y="0"/>
      <point x="132" y="0"/>
      <point x="175" y="0" type="curve"/>
      <point x="175" y="78"/>
      <point x="175" y="0"/>
    </contour>
    <contour>
      <point x="354" y="683" type="curve"/>
      <point x="354" y="563"/>
      <point x="354" y="687"/>
      <point x="354" y="567" type="curve"/>
      <point x="433" y="567"/>
      <point x="354" y="567"/>
      <point x="433" y="567" type="curve"/>
      <point x="433" y="687"/>
      <point x="433" y="563"/>
      <point x="433" y="683" type="curve"/>
      <point x="354" y="683"/>
      <point x="433" y="683"/>
    </contour>
    <contour>
      <point x="178" y="333" type="curve"/>
      <point x="247" y="333"/>
      <point x="316" y="333"/>
      <point x="385" y="333" type="curve"/>
      <point x="385" y="413"/>
      <point x="385" y="333"/>
      <point x="385" y="413" type="curve"/>
      <point x="316" y="413"/>
      <point x="247" y="413"/>
      <point x="178" y="413" type="curve"/>
      <point x="178" y="333"/>
      <point x="178" y="413"/>
    </contour>
    <contour>
      <point x="225" y="0" type="curve"/>
      <point x="225" y="722" type="line"/>
      <point x="126" y="722"/>
      <point x="225" y="722"/>
      <point x="126" y="722" type="curve"/>
      <point x="126" y="481"/>
      <point x="126" y="241"/>
      <point x="126" y="0" type="curve"/>
      <point x="225" y="0"/>
      <point x="126" y="0"/>
    </contour>
    <contour>
      <point x="168" y="644" type="curve"/>
      <point x="256" y="644"/>
      <point x="344" y="644"/>
      <point x="433" y="644" type="curve"/>
      <point x="433" y="722"/>
      <point x="433" y="644"/>
      <point x="433" y="722" type="curve"/>
      <point x="344" y="722"/>
      <point x="256" y="722"/>
      <point x="168" y="722" type="curve"/>
      <point x="168" y="644"/>
      <point x="168" y="722"/>
    </contour>
  </outline>
</glyph>
<glyph name="G" format="1">
  <advance width="576"/>
  <unicode hex="0047"/>
  <outline>
    <contour>
      <point x="301" y="796" type="move" name="top"/>
    </contour>
    <contour>
      <point x="335" y="-34" type="move" name="bottom"/>
    </contour>
    <contour>
      <point x="426" y="644" type="curve"/>
      <point x="426" y="509"/>
      <point x="426" y="652"/>
      <point x="426" y="517" type="curve"/>
      <point x="505" y="517"/>
      <point x="426" y="517"/>
      <point x="505" y="517" type="curve"/>
      <point x="505" y="652"/>
      <point x="505" y="509"/>
      <point x="505" y="644" type="curve"/>
      <point x="426" y="644"/>
      <point x="505" y="644"/>
    </contour>
    <contour>
      <point x="489" y="351" type="curve"/>
      <point x="442" y="351"/>
      <point x="394" y="351"/>
      <point x="347" y="351" type="curve"/>
      <point x="347" y="273"/>
      <point x="347" y="351"/>
      <point x="347" y="273" type="curve"/>
      <point x="394" y="273"/>
      <point x="442" y="273"/>
      <point x="489" y="273" type="curve"/>
      <point x="489" y="351"/>
      <point x="489" y="273"/>
    </contour>
    <contour>
      <point x="515" y="78" type="curve"/>
      <point x="515" y="170"/>
      <point x="515" y="261"/>
      <point x="515" y="351" type="curve"/>
      <point x="426" y="351"/>
      <point x="515" y="351"/>
      <point x="426" y="351" type="curve"/>
      <point x="426" y="261"/>
      <point x="426" y="170"/>
      <point x="426" y="78" type="curve"/>
      <point x="515" y="78"/>
      <point x="426" y="78"/>
    </contour>
    <contour>
      <point x="505" y="644" type="curve"/>
      <point x="446" y="700"/>
      <point x="385" y="727"/>
      <point x="306" y="727" type="curve"/>
      <point x="121" y="727"/>
      <point x="51" y="570"/>
      <point x="51" y="362" type="curve"/>
      <point x="51" y="151"/>
      <point x="125" y="-5"/>
      <point x="312" y="-5" type="curve"/>
      <point x="397" y="-5"/>
      <point x="449" y="24"/>
      <point x="515" y="78" type="curve"/>
      <point x="465" y="139"/>
      <point x="515" y="78"/>
      <point x="465" y="139" type="curve"/>
      <point x="423" y="101"/>
      <point x="375" y="78"/>
      <point x="312" y="78" type="curve"/>
      <point x="178" y="78"/>
      <point x="151" y="209"/>
      <point x="151" y="370" type="curve"/>
      <point x="151" y="519"/>
      <point x="180" y="645"/>
      <point x="305" y="645" type="curve"/>
      <point x="365" y="645"/>
      <point x="411" y="620"/>
      <point x="455" y="578" type="curve"/>
      <point x="505" y="644"/>
      <point x="455" y="578"/>
    </contour>
  </outline>
</glyph>
<glyph name="H" format="1">
  <advance width="638"/>
  <unicode hex="0048"/>
  <outline>
    <contour>
      <point x="479" y="644" type="curve"/>
      <point x="607" y="644"/>
      <point x="474" y="644"/>
      <point x="601" y="644" type="curve"/>
      <point x="601" y="722"/>
      <point x="601" y="644"/>
      <point x="601" y="722" type="curve"/>
      <point x="559" y="722"/>
      <point x="521" y="722"/>
      <point x="479" y="722" type="curve"/>
      <point x="479" y="644"/>
      <point x="479" y="722"/>
    </contour>
    <contour>
      <point x="479" y="0" type="curve"/>
      <point x="521" y="0"/>
      <point x="559" y="0"/>
      <point x="601" y="0" type="curve"/>
      <point x="601" y="78"/>
      <point x="601" y="0"/>
      <point x="601" y="78" type="curve"/>
      <point x="474" y="78"/>
      <point x="607" y="78"/>
      <point x="479" y="78" type="curve"/>
      <point x="479" y="0"/>
      <point x="479" y="78"/>
    </contour>
    <contour>
      <point x="479" y="78" type="curve"/>
      <point x="351" y="78"/>
      <point x="485" y="78"/>
      <point x="356" y="78" type="curve"/>
      <point x="356" y="0"/>
      <point x="356" y="78"/>
      <point x="356" y="0" type="curve"/>
      <point x="399" y="0"/>
      <point x="436" y="0"/>
      <point x="479" y="0" type="curve"/>
      <point x="479" y="78"/>
      <point x="479" y="0"/>
    </contour>
    <contour>
      <point x="479" y="722" type="curve"/>
      <point x="436" y="722"/>
      <point x="399" y="722"/>
      <point x="356" y="722" type="curve"/>
      <point x="356" y="644"/>
      <point x="356" y="722"/>
      <point x="356" y="644" type="curve"/>
      <point x="485" y="644"/>
      <point x="351" y="644"/>
      <point x="479" y="644" type="curve"/>
      <point x="479" y="722"/>
      <point x="479" y="644"/>
    </contour>
    <contour>
      <point x="160" y="644" type="curve"/>
      <point x="289" y="644"/>
      <point x="155" y="644"/>
      <point x="284" y="644" type="curve"/>
      <point x="284" y="722"/>
      <point x="284" y="644"/>
      <point x="284" y="722" type="curve"/>
      <point x="240" y="722"/>
      <point x="203" y="722"/>
      <point x="160" y="722" type="curve"/>
      <point x="160" y="644"/>
      <point x="160" y="722"/>
    </contour>
    <contour>
      <point x="160" y="722" type="curve"/>
      <point x="118" y="722"/>
      <point x="81" y="722"/>
      <point x="38" y="722" type="curve"/>
      <point x="38" y="644"/>
      <point x="38" y="722"/>
      <point x="38" y="644" type="curve"/>
      <point x="165" y="644"/>
      <point x="32" y="644"/>
      <point x="160" y="644" type="curve"/>
      <point x="160" y="722"/>
      <point x="160" y="644"/>
    </contour>
    <contour>
      <point x="160" y="0" type="curve"/>
      <point x="203" y="0"/>
      <point x="155" y="0"/>
      <point x="284" y="0" type="curve"/>
      <point x="284" y="78"/>
      <point x="284" y="0"/>
      <point x="284" y="78" type="curve"/>
      <point x="155" y="78"/>
      <point x="289" y="78"/>
      <point x="160" y="78" type="curve"/>
      <point x="160" y="0"/>
      <point x="160" y="78"/>
    </contour>
    <contour>
      <point x="160" y="78" type="curve"/>
      <point x="32" y="78"/>
      <point x="165" y="78"/>
      <point x="38" y="78" type="curve"/>
      <point x="38" y="0"/>
      <point x="38" y="78"/>
      <point x="38" y="0" type="curve"/>
      <point x="81" y="0"/>
      <point x="118" y="0"/>
      <point x="160" y="0" type="curve"/>
      <point x="160" y="78"/>
      <point x="160" y="0"/>
    </contour>
    <contour>
      <point x="210" y="0" type="curve"/>
      <point x="210" y="722" type="line"/>
      <point x="111" y="722"/>
      <point x="210" y="722"/>
      <point x="111" y="722" type="curve"/>
      <point x="111" y="481"/>
      <point x="111" y="241"/>
      <point x="111" y="0" type="curve"/>
      <point x="210" y="0"/>
      <point x="111" y="0"/>
    </contour>
    <contour>
      <point x="478" y="402" type="curve"/>
      <point x="371" y="402"/>
      <point x="265" y="402"/>
      <point x="160" y="402" type="curve"/>
      <point x="160" y="323"/>
      <point x="160" y="402"/>
      <point x="160" y="323" type="curve"/>
      <point x="265" y="323"/>
      <point x="371" y="323"/>
      <point x="478" y="323" type="curve"/>
      <point x="478" y="402"/>
      <point x="478" y="323"/>
    </contour>
    <contour>
      <point x="528" y="31" type="curve"/>
      <point x="528" y="251"/>
      <point x="528" y="471"/>
      <point x="528" y="691" type="curve"/>
      <point x="429" y="691"/>
      <point x="528" y="691"/>
      <point x="429" y="691" type="curve"/>
      <point x="429" y="31" type="line"/>
      <point x="528" y="31"/>
      <point x="429" y="31"/>
    </contour>
  </outline>
</glyph>
<glyph name="I" format="1">
  <advance width="321"/>
  <unicode hex="0049"/>
  <outline>
    <contour>
      <point x="163" y="796" type="move" name="top"/>
    </contour>
    <contour>
      <point x="202" y="4" type="move" name="bottom"/>
    </contour>
    <contour>
      <point x="162" y="722" type="curve"/>
      <point x="118" y="722"/>
      <point x="81" y="722"/>
      <point x="39" y="722" type="curve"/>
      <point x="39" y="644"/>
      <point x="39" y="722"/>
      <point x="39" y="644" type="curve"/>
      <point x="167" y="644"/>
      <point x="33" y="644"/>
      <point x="162" y="644" type="curve"/>
      <point x="162" y="722"/>
      <point x="162" y="644"/>
    </contour>
    <contour>
      <point x="162" y="644" type="curve"/>
      <point x="290" y="644"/>
      <point x="156" y="644"/>
      <point x="285" y="644" type="curve"/>
      <point x="285" y="722"/>
      <point x="285" y="644"/>
      <point x="285" y="722" type="curve"/>
      <point x="241" y="722"/>
      <point x="204" y="722"/>
      <point x="162" y="722" type="curve"/>
      <point x="162" y="644"/>
      <point x="162" y="722"/>
    </contour>
    <contour>
      <point x="162" y="0" type="curve"/>
      <point x="204" y="0"/>
      <point x="241" y="0"/>
      <point x="285" y="0" type="curve"/>
      <point x="285" y="78"/>
      <point x="285" y="0"/>
      <point x="285" y="78" type="curve"/>
      <point x="156" y="78"/>
      <point x="290" y="78"/>
      <point x="162" y="78" type="curve"/>
      <point x="162" y="0"/>
      <point x="162" y="78"/>
    </contour>
    <contour>
      <point x="162" y="78" type="curve"/>
      <point x="33" y="78"/>
      <point x="167" y="78"/>
      <point x="39" y="78" type="curve"/>
      <point x="39" y="0"/>
      <point x="39" y="78"/>
      <point x="39" y="0" type="curve"/>
      <point x="81" y="0"/>
      <point x="118" y="0"/>
      <point x="162" y="0" type="curve"/>
      <point x="162" y="78"/>
      <point x="162" y="0"/>
    </contour>
    <contour>
      <point x="210" y="0" type="curve"/>
      <point x="210" y="241"/>
      <point x="210" y="481"/>
      <point x="210" y="722" type="curve"/>
      <point x="111" y="722"/>
      <point x="210" y="722"/>
      <point x="111" y="722" type="curve"/>
      <point x="111" y="481"/>
      <point x="111" y="241"/>
      <point x="111" y="0" type="curve"/>
      <point x="210" y="0"/>
      <point x="111" y="0"/>
    </contour>
  </outline>
</glyph>
<glyph name="J" format="1">
  <advance width="359"/>
  <unicode hex="004A"/>
  <outline>
    <contour>
      <point x="216" y="722" type="curve"/>
      <point x="174" y="722"/>
      <point x="139" y="722"/>
      <point x="96" y="722" type="curve"/>
      <point x="96" y="644"/>
      <point x="96" y="722"/>
      <point x="96" y="644" type="curve"/>
      <point x="222" y="644"/>
      <point x="91" y="644"/>
      <point x="216" y="644" type="curve"/>
      <point x="216" y="722"/>
      <point x="216" y="644"/>
    </contour>
    <contour>
      <point x="216" y="644" type="curve"/>
      <point x="342" y="644"/>
      <point x="211" y="644"/>
      <point x="336" y="644" type="curve"/>
      <point x="336" y="722"/>
      <point x="336" y="644"/>
      <point x="336" y="722" type="curve"/>
      <point x="295" y="722"/>
      <point x="258" y="722"/>
      <point x="216" y="722" type="curve"/>
      <point x="216" y="644"/>
      <point x="216" y="722"/>
    </contour>
    <contour>
      <point x="8" y="42" type="curve"/>
      <point x="31" y="19"/>
      <point x="63" y="-5"/>
      <point x="106" y="-5" type="curve"/>
      <point x="226" y="-5"/>
      <point x="265" y="86"/>
      <point x="265" y="234" type="curve"/>
      <point x="265" y="405"/>
      <point x="265" y="550"/>
      <point x="265" y="722" type="curve"/>
      <point x="172" y="722"/>
      <point x="259" y="722"/>
      <point x="166" y="722" type="curve"/>
      <point x="166" y="550"/>
      <point x="166" y="405"/>
      <point x="166" y="234" type="curve"/>
      <point x="166" y="151"/>
      <point x="173" y="76"/>
      <point x="106" y="76" type="curve"/>
      <point x="82" y="76"/>
      <point x="69" y="91"/>
      <point x="54" y="104" type="curve"/>
      <point x="12" y="47"/>
      <point x="51" y="100"/>
    </contour>
  </outline>
</glyph>
<glyph name="L" format="1">
  <advance width="456"/>
  <unicode hex="004C"/>
  <outline>
    <contour>
      <point x="161" y="796" type="move" name="top"/>
    </contour>
    <contour>
      <point x="280" y="-31" type="move" name="bottom"/>
    </contour>
    <contour>
      <point x="432" y="39" type="curve"/>
      <point x="432" y="159"/>
      <point x="432" y="35"/>
      <point x="432" y="155" type="curve"/>
      <point x="353" y="155"/>
      <point x="432" y="155"/>
      <point x="353" y="155" type="curve"/>
      <point x="353" y="35"/>
      <point x="353" y="159"/>
      <point x="353" y="39" type="curve"/>
      <point x="432" y="39"/>
      <point x="353" y="39"/>
    </contour>
    <contour>
      <point x="161" y="78" type="curve"/>
      <point x="33" y="78"/>
      <point x="166" y="78"/>
      <point x="38" y="78" type="curve"/>
      <point x="38" y="0"/>
      <point x="38" y="78"/>
      <point x="38" y="0" type="curve"/>
      <point x="80" y="0"/>
      <point x="118" y="0"/>
      <point x="161" y="0" type="curve"/>
      <point x="161" y="78"/>
      <point x="161" y="0"/>
    </contour>
    <contour>
      <point x="161" y="722" type="curve"/>
      <point x="118" y="722"/>
      <point x="80" y="722"/>
      <point x="38" y="722" type="curve"/>
      <point x="38" y="644"/>
      <point x="38" y="722"/>
      <point x="38" y="644" type="curve"/>
      <point x="166" y="644"/>
      <point x="32" y="644"/>
      <point x="161" y="644" type="curve"/>
      <point x="161" y="722"/>
      <point x="161" y="644"/>
    </contour>
    <contour>
      <point x="161" y="644" type="curve"/>
      <point x="288" y="644"/>
      <point x="155" y="644"/>
      <point x="283" y="644" type="curve"/>
      <point x="283" y="722"/>
      <point x="283" y="644"/>
      <point x="283" y="722" type="curve"/>
      <point x="240" y="722"/>
      <point x="203" y="722"/>
      <point x="161" y="722" type="curve"/>
      <point x="161" y="644"/>
      <point x="161" y="722"/>
    </contour>
    <contour>
      <point x="210" y="0" type="curve"/>
      <point x="210" y="241"/>
      <point x="210" y="481"/>
      <point x="210" y="722" type="curve"/>
      <point x="112" y="722"/>
      <point x="210" y="722"/>
      <point x="112" y="722" type="curve"/>
      <point x="112" y="481"/>
      <point x="112" y="241"/>
      <point x="112" y="0" type="curve"/>
      <point x="210" y="0"/>
      <point x="112" y="0"/>
    </contour>
    <contour>
      <point x="161" y="0" type="curve"/>
      <point x="251" y="0"/>
      <point x="342" y="0"/>
      <point x="432" y="0" type="curve"/>
      <point x="432" y="78"/>
      <point x="432" y="0"/>
      <point x="432" y="78" type="curve"/>
      <point x="342" y="78"/>
      <point x="251" y="78"/>
      <point x="161" y="78" type="curve"/>
      <point x="161" y="0"/>
      <point x="161" y="78"/>
    </contour>
  </outline>
</glyph>
<glyph name="O" format="1">
  <advance width="579"/>
  <unicode hex="004F"/>
  <outline>
    <contour>
      <point x="290" y="796" type="move" name="top"/>
    </contour>
    <contour>
      <point x="153" y="360" type="curve"/>
      <point x="153" y="508"/>
      <point x="162" y="645"/>
      <point x="287" y="645" type="curve"/>
      <point x="408" y="645"/>
      <point x="427" y="510"/>
      <point x="427" y="363" type="curve"/>
      <point x="427" y="215"/>
      <point x="416" y="77"/>
      <point x="291" y="77" type="curve"/>
      <point x="168" y="77"/>
      <point x="153" y="212"/>
      <point x="153" y="360" type="curve"/>
      <point x="53" y="360"/>
      <point x="153" y="360"/>
      <point x="53" y="360" type="curve"/>
      <point x="53" y="160"/>
      <point x="113" y="-5"/>
      <point x="288" y="-5" type="curve"/>
      <point x="464" y="-5"/>
      <point x="526" y="161"/>
      <point x="526" y="363" type="curve"/>
      <point x="526" y="561"/>
      <point x="467" y="727"/>
      <point x="291" y="727" type="curve"/>
      <point x="115" y="727"/>
      <point x="53" y="561"/>
      <point x="53" y="360" type="curve"/>
      <point x="153" y="360"/>
      <point x="53" y="360"/>
    </contour>
  </outline>
</glyph>
<glyph name="P" format="1">
  <advance width="497"/>
  <unicode hex="0050"/>
  <outline>
    <contour>
      <point x="176" y="722" type="curve"/>
      <point x="132" y="722"/>
      <point x="97" y="722"/>
      <point x="53" y="722" type="curve"/>
      <point x="53" y="644"/>
      <point x="53" y="722"/>
      <point x="53" y="644" type="curve"/>
      <point x="184" y="644"/>
      <point x="45" y="644"/>
      <point x="176" y="644" type="curve"/>
      <point x="176" y="722"/>
      <point x="176" y="644"/>
    </contour>
    <contour>
      <point x="176" y="78" type="curve"/>
      <point x="45" y="78"/>
      <point x="184" y="78"/>
      <point x="53" y="78" type="curve"/>
      <point x="53" y="0"/>
      <point x="53" y="78"/>
      <point x="53" y="0" type="curve"/>
      <point x="97" y="0"/>
      <point x="132" y="0"/>
      <point x="176" y="0" type="curve"/>
      <point x="176" y="78"/>
      <point x="176" y="0"/>
    </contour>
    <contour>
      <point x="176" y="0" type="curve"/>
      <point x="219" y="0"/>
      <point x="167" y="0"/>
      <point x="299" y="0" type="curve"/>
      <point x="299" y="78"/>
      <point x="299" y="0"/>
      <point x="299" y="78" type="curve"/>
      <point x="167" y="78"/>
      <point x="307" y="78"/>
      <point x="176" y="78" type="curve"/>
      <point x="176" y="0"/>
      <point x="176" y="78"/>
    </contour>
    <contour>
      <point x="161" y="309" type="curve"/>
      <point x="200" y="280"/>
      <point x="242" y="263"/>
      <point x="293" y="263" type="curve"/>
      <point x="399" y="265"/>
      <point x="458" y="353"/>
      <point x="458" y="481" type="curve"/>
      <point x="458" y="617"/>
      <point x="391" y="722"/>
      <point x="266" y="722" type="curve"/>
      <point x="236" y="722"/>
      <point x="207" y="722"/>
      <point x="178" y="722" type="curve"/>
      <point x="178" y="644"/>
      <point x="178" y="722"/>
      <point x="178" y="644" type="curve"/>
      <point x="203" y="644"/>
      <point x="227" y="644"/>
      <point x="253" y="644" type="curve"/>
      <point x="328" y="644"/>
      <point x="359" y="570"/>
      <point x="359" y="484" type="curve"/>
      <point x="359" y="407"/>
      <point x="343" y="338"/>
      <point x="281" y="338" type="curve"/>
      <point x="244" y="338"/>
      <point x="221" y="352"/>
      <point x="192" y="374" type="curve"/>
      <point x="162" y="311"/>
      <point x="192" y="373"/>
    </contour>
    <contour>
      <point x="224" y="0" type="curve"/>
      <point x="224" y="241"/>
      <point x="224" y="481"/>
      <point x="224" y="722" type="curve"/>
      <point x="125" y="722"/>
      <point x="224" y="722"/>
      <point x="125" y="722" type="curve"/>
      <point x="125" y="481"/>
      <point x="125" y="241"/>
      <point x="125" y="0" type="curve"/>
      <point x="224" y="0"/>
      <point x="125" y="0"/>
    </contour>
  </outline>
</glyph>
<glyph name="Q" format="1">
  <advance width="558"/>
  <unicode hex="0051"/>
  <outline>
    <contour>
      <point x="253" y="19" type="curve"/>
      <point x="311" y="-139"/>
      <point x="396" y="-221"/>
      <point x="552" y="-221" type="curve"/>
      <point x="552" y="-139"/>
      <point x="552" y="-221"/>
      <point x="552" y="-139" type="curve"/>
      <point x="436" y="-139"/>
      <point x="382" y="-63"/>
      <point x="338" y="58" type="curve"/>
      <point x="253" y="19"/>
      <point x="338" y="58"/>
    </contour>
    <contour>
      <point x="151" y="360" type="curve"/>
      <point x="151" y="506"/>
      <point x="164" y="641"/>
      <point x="286" y="641" type="curve"/>
      <point x="409" y="641"/>
      <point x="428" y="508"/>
      <point x="428" y="361" type="curve"/>
      <point x="428" y="214"/>
      <point x="416" y="77"/>
      <point x="293" y="77" type="curve"/>
      <point x="168" y="78"/>
      <point x="151" y="212"/>
      <point x="151" y="360" type="curve"/>
      <point x="52" y="360"/>
      <point x="151" y="360"/>
      <point x="52" y="360" type="curve"/>
      <point x="52" y="160"/>
      <point x="113" y="-5"/>
      <point x="289" y="-5" type="curve"/>
      <point x="467" y="-5"/>
      <point x="527" y="163"/>
      <point x="527" y="365" type="curve"/>
      <point x="527" y="564"/>
      <point x="469" y="730"/>
      <point x="295" y="730" type="curve"/>
      <point x="116" y="730"/>
      <point x="52" y="562"/>
      <point x="52" y="360" type="curve"/>
      <point x="151" y="360"/>
      <point x="52" y="360"/>
    </contour>
  </outline>
</glyph>
<glyph name="V" format="1">
  <advance width="576"/>
  <unicode hex="0056"/>
  <outline>
    <contour>
      <point x="451" y="722" type="curve"/>
      <point x="408" y="722"/>
      <point x="369" y="722"/>
      <point x="326" y="722" type="curve"/>
      <point x="326" y="644"/>
      <point x="326" y="722"/>
      <point x="326" y="644" type="curve"/>
      <point x="454" y="644"/>
      <point x="322" y="644"/>
      <point x="451" y="644" type="curve"/>
      <point x="451" y="722"/>
      <point x="451" y="644"/>
    </contour>
    <contour>
      <point x="105" y="722" type="curve"/>
      <point x="68" y="722"/>
      <point x="34" y="722"/>
      <point x="-5" y="722" type="curve"/>
      <point x="-5" y="644"/>
      <point x="-5" y="722"/>
      <point x="-5" y="644" type="curve"/>
      <point x="109" y="644"/>
      <point x="-8" y="644"/>
      <point x="105" y="644" type="curve"/>
      <point x="105" y="722"/>
      <point x="105" y="644"/>
    </contour>
    <contour>
      <point x="456" y="644" type="curve"/>
      <point x="570" y="644"/>
      <point x="452" y="644"/>
      <point x="566" y="644" type="curve"/>
      <point x="566" y="722"/>
      <point x="566" y="644"/>
      <point x="566" y="722" type="curve"/>
      <point x="529" y="722"/>
      <point x="494" y="722"/>
      <point x="456" y="722" type="curve"/>
      <point x="456" y="644"/>
      <point x="456" y="722"/>
    </contour>
    <contour>
      <point x="110" y="644" type="curve"/>
      <point x="239" y="644"/>
      <point x="107" y="644"/>
      <point x="235" y="644" type="curve"/>
      <point x="235" y="722"/>
      <point x="235" y="644"/>
      <point x="235" y="722" type="curve"/>
      <point x="193" y="722"/>
      <point x="153" y="722"/>
      <point x="110" y="722" type="curve"/>
      <point x="110" y="644"/>
      <point x="110" y="722"/>
    </contour>
    <contour>
      <point x="413" y="722" type="curve"/>
      <point x="356" y="480"/>
      <point x="300" y="242"/>
      <point x="245" y="0" type="curve"/>
      <point x="347" y="0"/>
      <point x="233" y="0"/>
      <point x="335" y="0" type="curve"/>
      <point x="395" y="241"/>
      <point x="454" y="481"/>
      <point x="513" y="722" type="curve"/>
      <point x="413" y="722"/>
      <point x="513" y="722"/>
    </contour>
    <contour>
      <point x="48" y="722" type="curve"/>
      <point x="108" y="481"/>
      <point x="169" y="241"/>
      <point x="229" y="0" type="curve"/>
      <point x="331" y="0"/>
      <point x="219" y="0"/>
      <point x="322" y="0" type="curve"/>
      <point x="265" y="242"/>
      <point x="208" y="482"/>
      <point x="150" y="722" type="curve"/>
      <point x="48" y="722"/>
      <point x="150" y="722"/>
    </contour>
  </outline>
</glyph>
<glyph name="W" format="1">
  <advance width="707"/>
  <unicode hex="0057"/>
  <outline>
    <contour>
      <point x="119" y="644" type="curve"/>
      <point x="224" y="644"/>
      <point x="115" y="644"/>
      <point x="221" y="644" type="curve"/>
      <point x="221" y="722"/>
      <point x="221" y="644"/>
      <point x="221" y="722" type="curve"/>
      <point x="186" y="722"/>
      <point x="154" y="722"/>
      <point x="119" y="722" type="curve"/>
      <point x="119" y="644"/>
      <point x="119" y="722"/>
    </contour>
    <contour>
      <point x="112" y="722" type="curve"/>
      <point x="75" y="722"/>
      <point x="41" y="722"/>
      <point x="4" y="722" type="curve"/>
      <point x="4" y="644"/>
      <point x="4" y="722"/>
      <point x="4" y="644" type="curve"/>
      <point x="116" y="644"/>
      <point x="1" y="644"/>
      <point x="112" y="644" type="curve"/>
      <point x="112" y="722"/>
      <point x="112" y="644"/>
    </contour>
    <contour>
      <point x="586" y="722" type="curve"/>
      <point x="551" y="722"/>
      <point x="520" y="722"/>
      <point x="485" y="722" type="curve"/>
      <point x="485" y="644"/>
      <point x="485" y="722"/>
      <point x="485" y="644" type="curve"/>
      <point x="590" y="644"/>
      <point x="481" y="644"/>
      <point x="586" y="644" type="curve"/>
      <point x="586" y="722"/>
      <point x="586" y="644"/>
    </contour>
    <contour>
      <point x="590" y="644" type="curve"/>
      <point x="702" y="644"/>
      <point x="586" y="644"/>
      <point x="698" y="644" type="curve"/>
      <point x="698" y="722"/>
      <point x="698" y="644"/>
      <point x="698" y="722" type="curve"/>
      <point x="661" y="722"/>
      <point x="627" y="722"/>
      <point x="590" y="722" type="curve"/>
      <point x="590" y="644"/>
      <point x="590" y="722"/>
    </contour>
    <contour>
      <point x="263" y="0" type="curve"/>
      <point x="307" y="241"/>
      <point x="350" y="481"/>
      <point x="393" y="722" type="curve"/>
      <point x="312" y="722"/>
      <point x="393" y="722"/>
      <point x="312" y="722" type="curve"/>
      <point x="272" y="482"/>
      <point x="232" y="242"/>
      <point x="192" y="0" type="curve"/>
      <point x="270" y="0"/>
      <point x="186" y="0"/>
    </contour>
    <contour>
      <point x="316" y="722" type="curve"/>
      <point x="355" y="481"/>
      <point x="393" y="241"/>
      <point x="434" y="0" type="curve"/>
      <point x="511" y="0"/>
      <point x="425" y="0"/>
      <point x="502" y="0" type="curve"/>
      <point x="466" y="244"/>
      <point x="432" y="481"/>
      <point x="397" y="722" type="curve"/>
      <point x="316" y="722"/>
      <point x="397" y="722"/>
    </contour>
    <contour>
      <point x="63" y="722" type="curve"/>
      <point x="103" y="481"/>
      <point x="143" y="241"/>
      <point x="182" y="0" type="curve"/>
      <point x="260" y="0"/>
      <point x="183" y="0"/>
      <point x="261" y="0" type="curve"/>
      <point x="223" y="241"/>
      <point x="185" y="481"/>
      <point x="148" y="722" type="curve"/>
      <point x="63" y="722"/>
      <point x="148" y="722"/>
    </contour>
    <contour>
      <point x="554" y="722" type="curve"/>
      <point x="515" y="481"/>
      <point x="475" y="241"/>
      <point x="435" y="0" type="curve"/>
      <point x="513" y="0"/>
      <point x="437" y="0"/>
      <point x="515" y="0" type="curve"/>
      <point x="556" y="241"/>
      <point x="597" y="481"/>
      <point x="639" y="722" type="curve"/>
      <point x="554" y="722"/>
      <point x="639" y="722"/>
    </contour>
  </outline>
</glyph>
<glyph name="X" format="1">
  <advance width="539"/>
  <unicode hex="0058"/>
  <outline>
    <contour>
      <point x="131" y="0" type="curve"/>
      <point x="169" y="0"/>
      <point x="127" y="0"/>
      <point x="243" y="0" type="curve"/>
      <point x="243" y="78"/>
      <point x="243" y="0"/>
      <point x="243" y="78" type="curve"/>
      <point x="127" y="78"/>
      <point x="247" y="78"/>
      <point x="131" y="78" type="curve"/>
      <point x="131" y="0"/>
      <point x="131" y="78"/>
    </contour>
    <contour>
      <point x="116" y="78" type="curve"/>
      <point x="6" y="78"/>
      <point x="120" y="78"/>
      <point x="10" y="78" type="curve"/>
      <point x="8" y="0"/>
      <point x="10" y="78"/>
      <point x="8" y="0" type="curve"/>
      <point x="45" y="0"/>
      <point x="79" y="0"/>
      <point x="116" y="0" type="curve"/>
      <point x="116" y="78"/>
      <point x="116" y="0"/>
    </contour>
    <contour>
      <point x="420" y="0" type="curve"/>
      <point x="457" y="0"/>
      <point x="491" y="0"/>
      <point x="527" y="0" type="curve"/>
      <point x="527" y="78"/>
      <point x="527" y="0"/>
      <point x="527" y="78" type="curve"/>
      <point x="417" y="78"/>
      <point x="531" y="78"/>
      <point x="420" y="78" type="curve"/>
      <point x="420" y="0"/>
      <point x="420" y="78"/>
    </contour>
    <contour>
      <point x="406" y="78" type="curve"/>
      <point x="290" y="78"/>
      <point x="409" y="78"/>
      <point x="293" y="78" type="curve"/>
      <point x="293" y="0"/>
      <point x="293" y="78"/>
      <point x="293" y="0" type="curve"/>
      <point x="331" y="0"/>
      <point x="367" y="0"/>
      <point x="406" y="0" type="curve"/>
      <point x="406" y="78"/>
      <point x="406" y="0"/>
    </contour>
    <contour>
      <point x="408" y="644" type="curve"/>
      <point x="518" y="644"/>
      <point x="404" y="644"/>
      <point x="515" y="644" type="curve"/>
      <point x="515" y="722"/>
      <point x="515" y="644"/>
      <point x="515" y="722" type="curve"/>
      <point x="478" y="722"/>
      <point x="444" y="722"/>
      <point x="408" y="722" type="curve"/>
      <point x="408" y="644"/>
      <point x="408" y="722"/>
    </contour>
    <contour>
      <point x="419" y="722" type="curve"/>
      <point x="378" y="722"/>
      <point x="340" y="722"/>
      <point x="299" y="722" type="curve"/>
      <point x="299" y="644"/>
      <point x="299" y="722"/>
      <point x="299" y="644" type="curve"/>
      <point x="423" y="644"/>
      <point x="295" y="644"/>
      <point x="419" y="644" type="curve"/>
      <point x="419" y="722"/>
      <point x="419" y="644"/>
    </contour>
    <contour>
      <point x="130" y="722" type="curve"/>
      <point x="94" y="722"/>
      <point x="60" y="722"/>
      <point x="24" y="722" type="curve"/>
      <point x="24" y="644"/>
      <point x="24" y="722"/>
      <point x="24" y="644" type="curve"/>
      <point x="134" y="644"/>
      <point x="20" y="644"/>
      <point x="130" y="644" type="curve"/>
      <point x="130" y="722"/>
      <point x="130" y="644"/>
    </contour>
    <contour>
      <point x="119" y="644" type="curve"/>
      <point x="243" y="644"/>
      <point x="115" y="644"/>
      <point x="240" y="644" type="curve"/>
      <point x="240" y="722"/>
      <point x="240" y="644"/>
      <point x="240" y="722" type="curve"/>
      <point x="198" y="722"/>
      <point x="160" y="722"/>
      <point x="119" y="722" type="curve"/>
      <point x="119" y="644"/>
      <point x="119" y="722"/>
    </contour>
    <contour>
      <point x="377" y="722" type="curve"/>
      <point x="268" y="480"/>
      <point x="160" y="238"/>
      <point x="51" y="-5" type="curve"/>
      <point x="150" y="-5"/>
      <point x="51" y="0"/>
      <point x="150" y="0" type="curve"/>
      <point x="259" y="242"/>
      <point x="367" y="484"/>
      <point x="474" y="726" type="curve"/>
      <point x="377" y="726"/>
      <point x="474" y="722"/>
    </contour>
    <contour>
      <point x="66" y="727" type="curve"/>
      <point x="173" y="484"/>
      <point x="280" y="242"/>
      <point x="387" y="0" type="curve"/>
      <point x="486" y="0"/>
      <point x="387" y="-3"/>
      <point x="486" y="-3" type="curve"/>
      <point x="378" y="239"/>
      <point x="271" y="480"/>
      <point x="164" y="722" type="curve"/>
      <point x="66" y="722"/>
      <point x="164" y="727"/>
    </contour>
  </outline>
</glyph>
<glyph name="bracketleft" format="1">
  <advance width="254"/>
  <unicode hex="005B"/>
  <outline>
    <contour>
      <point x="213" y="770" type="curve"/>
      <point x="181" y="770"/>
      <point x="149" y="770"/>
      <point x="116" y="770" type="curve"/>
      <point x="105" y="770"/>
      <point x="80" y="770"/>
      <point x="70" y="770" type="curve"/>
      <point x="70" y="758"/>
      <point x="70" y="744"/>
      <point x="70" y="733" type="curve"/>
      <point x="70" y="461"/>
      <point x="70" y="190"/>
      <point x="70" y="-81" type="curve"/>
      <point x="70" y="-93"/>
      <point x="70" y="-100"/>
      <point x="70" y="-117" type="curve"/>
      <point x="80" y="-117"/>
      <point x="104" y="-117"/>
      <point x="115" y="-117" type="curve"/>
      <point x="148" y="-117"/>
      <point x="181" y="-117"/>
      <point x="213" y="-117" type="curve"/>
      <point x="213" y="-30"/>
      <point x="213" y="-117"/>
      <point x="213" y="-30" type="curve"/>
      <point x="181" y="-30"/>
      <point x="148" y="-30"/>
      <point x="115" y="-30" type="curve"/>
      <point x="169" y="-30"/>
      <point x="115" y="-30"/>
      <point x="169" y="-30" type="curve"/>
      <point x="169" y="-81"/>
      <point x="169" y="-30"/>
      <point x="169" y="-81" type="curve"/>
      <point x="169" y="190"/>
      <point x="169" y="461"/>
      <point x="169" y="733" type="curve"/>
      <point x="169" y="684"/>
      <point x="169" y="733"/>
      <point x="169" y="684" type="curve"/>
      <point x="116" y="684"/>
      <point x="169" y="684"/>
      <point x="116" y="684" type="curve"/>
      <point x="149" y="684"/>
      <point x="181" y="684"/>
      <point x="213" y="684" type="curve"/>
      <point x="213" y="770"/>
      <point x="213" y="684"/>
    </contour>
  </outline>
</glyph>
<glyph name="backslash" format="1">
  <advance width="415"/>
  <unicode hex="005C"/>
  <outline>
    <contour>
      <point x="385" y="-68" type="curve"/>
      <point x="301" y="236"/>
      <point x="216" y="540"/>
      <point x="133" y="844" type="curve"/>
      <point x="29" y="844"/>
      <point x="133" y="844"/>
      <point x="29" y="844" type="curve"/>
      <point x="114" y="540"/>
      <point x="198" y="236"/>
      <point x="283" y="-68" type="curve"/>
      <point x="385" y="-68"/>
      <point x="283" y="-68"/>
    </contour>
  </outline>
</glyph>
<glyph name="asciicircum" format="1">
  <advance width="428"/>
  <unicode hex="005E"/>
  <outline>
    <contour>
      <point x="150" y="458" type="curve"/>
      <point x="188" y="564"/>
      <point x="225" y="669"/>
      <point x="263" y="775" type="curve"/>
      <point x="164" y="775"/>
      <point x="264" y="775"/>
      <point x="164" y="775" type="curve"/>
      <point x="126" y="669"/>
      <point x="89" y="564"/>
      <point x="52" y="458" type="curve"/>
      <point x="151" y="458"/>
      <point x="52" y="458"/>
    </contour>
    <contour>
      <point x="376" y="458" type="curve"/>
      <point x="339" y="561"/>
      <point x="300" y="671"/>
      <point x="263" y="775" type="curve"/>
      <point x="164" y="775"/>
      <point x="263" y="775"/>
      <point x="164" y="775" type="curve"/>
      <point x="201" y="671"/>
      <point x="241" y="561"/>
      <point x="277" y="458" type="curve"/>
      <point x="376" y="458"/>
      <point x="277" y="458"/>
    </contour>
  </outline>
</glyph>
<glyph name="underscore" format="1">
  <advance width="439"/>
  <unicode hex="005F"/>
  <outline>
    <contour>
      <point x="0" y="-193" type="curve"/>
      <point x="146" y="-193"/>
      <point x="293" y="-193"/>
      <point x="439" y="-193" type="curve"/>
      <point x="439" y="-114"/>
      <point x="439" y="-193"/>
      <point x="439" y="-114" type="curve"/>
      <point x="293" y="-114"/>
      <point x="146" y="-114"/>
      <point x="0" y="-114" type="curve"/>
      <point x="0" y="-193"/>
      <point x="0" y="-114"/>
    </contour>
  </outline>
</glyph>
<glyph name="grave" format="1">
  <advance width="316"/>
  <unicode hex="0060"/>
  <outline>
    <contour>
      <point x="191" y="596" type="move" name="_top"/>
    </contour>
    <contour>
      <point x="237" y="596" type="line"/>
      <point x="172" y="762" type="line"/>
      <point x="52" y="762" type="line"/>
      <point x="145" y="596" type="line"/>
    </contour>
  </outline>
</glyph>
<glyph name="b" format="1">
  <advance width="511"/>
  <unicode hex="0062"/>
  <outline>
    <contour>
      <point x="145" y="800" type="curve"/>
      <point x="103" y="800"/>
      <point x="63" y="800"/>
      <point x="23" y="800" type="curve"/>
      <point x="22" y="715"/>
      <point x="23" y="807"/>
      <point x="22" y="722" type="curve"/>
      <point x="159" y="721"/>
      <point x="9" y="722"/>
      <point x="145" y="721" type="curve"/>
      <point x="145" y="807"/>
      <point x="145" y="714"/>
    </contour>
    <contour>
      <point x="172" y="373" type="curve"/>
      <point x="186" y="405"/>
      <point x="225" y="457"/>
      <point x="277" y="457" type="curve"/>
      <point x="357" y="457"/>
      <point x="367" y="362"/>
      <point x="367" y="264" type="curve"/>
      <point x="368" y="171"/>
      <point x="353" y="76"/>
      <point x="279" y="76" type="curve"/>
      <point x="236" y="76"/>
      <point x="203" y="107"/>
      <point x="178" y="152" type="curve"/>
      <point x="122" y="114"/>
      <point x="186" y="153"/>
      <point x="129" y="115" type="curve"/>
      <point x="161" y="48"/>
      <point x="209" y="-5"/>
      <point x="287" y="-5" type="curve"/>
      <point x="412" y="-5"/>
      <point x="466" y="120"/>
      <point x="466" y="268" type="curve"/>
      <point x="466" y="414"/>
      <point x="415" y="538"/>
      <point x="290" y="538" type="curve"/>
      <point x="206" y="538"/>
      <point x="153" y="466"/>
      <point x="130" y="409" type="curve"/>
      <point x="176" y="370"/>
      <point x="127" y="411"/>
    </contour>
    <contour>
      <point x="193" y="0" type="curve"/>
      <point x="193" y="263"/>
      <point x="193" y="537"/>
      <point x="193" y="800" type="curve"/>
      <point x="85" y="800"/>
      <point x="203" y="800"/>
      <point x="94" y="800" type="curve"/>
      <point x="94" y="537"/>
      <point x="94" y="263"/>
      <point x="94" y="0" type="curve"/>
      <point x="203" y="0"/>
      <point x="85" y="0"/>
    </contour>
    <contour>
      <point x="145" y="78" type="curve"/>
      <point x="10" y="78"/>
      <point x="159" y="78"/>
      <point x="23" y="78" type="curve"/>
      <point x="23" y="-7"/>
      <point x="23" y="85"/>
      <point x="23" y="0" type="curve"/>
      <point x="63" y="0"/>
      <point x="104" y="0"/>
      <point x="145" y="0" type="curve"/>
      <point x="145" y="85"/>
      <point x="145" y="-7"/>
    </contour>
  </outline>
</glyph>
<glyph name="c" format="1">
  <advance width="422"/>
  <unicode hex="0063"/>
  <outline>
    <contour>
      <point x="232" y="632" type="move" name="top"/>
    </contour>
    <contour>
      <point x="262" y="1" type="move" name="bottom"/>
    </contour>
    <contour>
      <point x="290" y="470" type="curve"/>
      <point x="290" y="355"/>
      <point x="290" y="475"/>
      <point x="290" y="359" type="curve"/>
      <point x="368" y="359"/>
      <point x="290" y="359"/>
      <point x="368" y="359" type="curve"/>
      <point x="368" y="475"/>
      <point x="368" y="355"/>
      <point x="368" y="470" type="curve"/>
      <point x="290" y="470"/>
      <point x="368" y="470"/>
    </contour>
    <contour>
      <point x="368" y="470" type="curve"/>
      <point x="335" y="507"/>
      <point x="289" y="538"/>
      <point x="238" y="538" type="curve"/>
      <point x="99" y="538"/>
      <point x="46" y="426"/>
      <point x="46" y="267" type="curve"/>
      <point x="46" y="109"/>
      <point x="97" y="-5"/>
      <point x="236" y="-5" type="curve"/>
      <point x="295" y="-5"/>
      <point x="349" y="29"/>
      <point x="380" y="95" type="curve"/>
      <point x="311" y="139"/>
      <point x="380" y="95"/>
      <point x="311" y="139" type="curve"/>
      <point x="296" y="112"/>
      <point x="273" y="76"/>
      <point x="241" y="76" type="curve"/>
      <point x="157" y="76"/>
      <point x="145" y="163"/>
      <point x="145" y="267" type="curve"/>
      <point x="145" y="370"/>
      <point x="156" y="457"/>
      <point x="237" y="457" type="curve"/>
      <point x="266" y="457"/>
      <point x="291" y="437"/>
      <point x="310" y="416" type="curve"/>
      <point x="368" y="470"/>
      <point x="310" y="416"/>
    </contour>
  </outline>
</glyph>
<glyph name="f" format="1">
  <advance width="347"/>
  <unicode hex="0066"/>
  <outline>
    <contour>
      <point x="252" y="773" type="curve"/>
      <point x="252" y="659"/>
      <point x="252" y="777"/>
      <point x="252" y="663" type="curve"/>
      <point x="330" y="663"/>
      <point x="252" y="663"/>
      <point x="330" y="663" type="curve"/>
      <point x="330" y="777"/>
      <point x="330" y="659"/>
      <point x="330" y="773" type="curve"/>
      <point x="252" y="773"/>
      <point x="330" y="773"/>
    </contour>
    <contour>
      <point x="149" y="-1" type="curve"/>
      <point x="190" y="-1"/>
      <point x="230" y="0"/>
      <point x="270" y="0" type="curve"/>
      <point x="270" y="79"/>
      <point x="270" y="0"/>
      <point x="270" y="79" type="curve"/>
      <point x="148" y="78"/>
      <point x="271" y="79"/>
      <point x="149" y="78" type="curve"/>
      <point x="149" y="-1"/>
      <point x="149" y="78"/>
    </contour>
    <contour>
      <point x="149" y="78" type="curve"/>
      <point x="27" y="79"/>
      <point x="150" y="78"/>
      <point x="27" y="79" type="curve"/>
      <point x="27" y="0"/>
      <point x="27" y="79"/>
      <point x="27" y="0" type="curve"/>
      <point x="69" y="0"/>
      <point x="109" y="-1"/>
      <point x="149" y="-1" type="curve"/>
      <point x="149" y="78"/>
      <point x="149" y="-1"/>
    </contour>
    <contour>
      <point x="28" y="455" type="curve"/>
      <point x="291" y="455" type="line"/>
      <point x="291" y="533"/>
      <point x="291" y="455"/>
      <point x="291" y="533" type="curve"/>
      <point x="28" y="533" type="line"/>
      <point x="28" y="455"/>
      <point x="28" y="533"/>
    </contour>
    <contour>
      <point x="198" y="0" type="curve"/>
      <point x="198" y="617" type="line"/>
      <point x="199" y="674"/>
      <point x="197" y="731"/>
      <point x="244" y="731" type="curve"/>
      <point x="262" y="731"/>
      <point x="277" y="721"/>
      <point x="290" y="711" type="curve"/>
      <point x="330" y="773"/>
      <point x="290" y="711"/>
      <point x="330" y="773" type="curve"/>
      <point x="306" y="792"/>
      <point x="275" y="806"/>
      <point x="244" y="806" type="curve"/>
      <point x="146" y="806"/>
      <point x="98" y="723"/>
      <point x="99" y="617" type="curve"/>
      <point x="99" y="0" type="line"/>
      <point x="198" y="0"/>
      <point x="99" y="0"/>
    </contour>
  </outline>
</glyph>
<glyph name="h" format="1">
  <advance width="495"/>
  <unicode hex="0068"/>
  <outline>
    <contour>
      <point x="369" y="-1" type="curve"/>
      <point x="410" y="-1"/>
      <point x="450" y="0"/>
      <point x="491" y="0" type="curve"/>
      <point x="491" y="78"/>
      <point x="491" y="0"/>
      <point x="491" y="78" type="curve"/>
      <point x="368" y="78"/>
      <point x="492" y="78"/>
      <point x="369" y="78" type="curve"/>
      <point x="369" y="-1"/>
      <point x="369" y="78"/>
    </contour>
    <contour>
      <point x="130" y="-1" type="curve"/>
      <point x="165" y="-1"/>
      <point x="129" y="-1"/>
      <point x="233" y="0" type="curve"/>
      <point x="233" y="78"/>
      <point x="233" y="0"/>
      <point x="233" y="78" type="curve"/>
      <point x="129" y="78"/>
      <point x="233" y="78"/>
      <point x="130" y="78" type="curve"/>
      <point x="130" y="-1"/>
      <point x="130" y="78"/>
    </contour>
    <contour>
      <point x="130" y="799" type="curve"/>
      <point x="89" y="799"/>
      <point x="48" y="800"/>
      <point x="8" y="800" type="curve"/>
      <point x="7" y="722"/>
      <point x="8" y="800"/>
      <point x="7" y="722" type="curve"/>
      <point x="131" y="721"/>
      <point x="6" y="722"/>
      <point x="130" y="721" type="curve"/>
      <point x="130" y="799"/>
      <point x="130" y="721"/>
    </contour>
    <contour>
      <point x="130" y="78" type="curve"/>
      <point x="7" y="78"/>
      <point x="131" y="78"/>
      <point x="8" y="78" type="curve"/>
      <point x="7" y="0"/>
      <point x="8" y="78"/>
      <point x="7" y="0" type="curve"/>
      <point x="48" y="0"/>
      <point x="89" y="-1"/>
      <point x="130" y="-1" type="curve"/>
      <point x="130" y="78"/>
      <point x="130" y="-1"/>
    </contour>
    <contour>
      <point x="157" y="323" type="curve"/>
      <point x="170" y="382"/>
      <point x="200" y="456"/>
      <point x="259" y="456" type="curve"/>
      <point x="322" y="456"/>
      <point x="320" y="394"/>
      <point x="320" y="322" type="curve"/>
      <point x="320" y="214"/>
      <point x="320" y="107"/>
      <point x="320" y="0" type="curve"/>
      <point x="419" y="0"/>
      <point x="320" y="0"/>
      <point x="419" y="0" type="curve"/>
      <point x="419" y="109"/>
      <point x="419" y="219"/>
      <point x="419" y="328" type="curve"/>
      <point x="419" y="443"/>
      <point x="397" y="534"/>
      <point x="288" y="534" type="curve"/>
      <point x="206" y="534"/>
      <point x="146" y="452"/>
      <point x="134" y="365" type="curve"/>
      <point x="158" y="324"/>
      <point x="133" y="363"/>
    </contour>
    <contour>
      <point x="179" y="0" type="curve"/>
      <point x="179" y="267"/>
      <point x="179" y="533"/>
      <point x="179" y="800" type="curve"/>
      <point x="80" y="800"/>
      <point x="179" y="800"/>
      <point x="80" y="800" type="curve"/>
      <point x="80" y="533"/>
      <point x="80" y="267"/>
      <point x="80" y="0" type="curve"/>
      <point x="179" y="0"/>
      <point x="80" y="0"/>
    </contour>
  </outline>
</glyph>
<glyph name="j" format="1">
  <advance width="235"/>
  <unicode hex="006A"/>
  <outline>
    <contour>
      <point x="111" y="533" type="curve"/>
      <point x="71" y="533"/>
      <point x="33" y="533"/>
      <point x="-8" y="533" type="curve"/>
      <point x="-8" y="455"/>
      <point x="-8" y="533"/>
      <point x="-8" y="455" type="curve"/>
      <point x="115" y="455"/>
      <point x="-12" y="455"/>
      <point x="111" y="455" type="curve"/>
      <point x="111" y="533"/>
      <point x="111" y="455"/>
    </contour>
    <contour>
      <point x="-8" y="-303" type="curve"/>
      <point x="-2" y="-304"/>
      <point x="7" y="-305"/>
      <point x="15" y="-305" type="curve"/>
      <point x="108" y="-305"/>
      <point x="162" y="-226"/>
      <point x="162" y="-128" type="curve"/>
      <point x="162" y="93"/>
      <point x="162" y="313"/>
      <point x="162" y="534" type="curve"/>
      <point x="62" y="534"/>
      <point x="162" y="534"/>
      <point x="62" y="534" type="curve"/>
      <point x="62" y="313"/>
      <point x="62" y="93"/>
      <point x="62" y="-128" type="curve"/>
      <point x="62" y="-174"/>
      <point x="59" y="-228"/>
      <point x="19" y="-228" type="curve"/>
      <point x="15" y="-228"/>
      <point x="12" y="-228"/>
      <point x="6" y="-227" type="curve"/>
      <point x="-7" y="-301"/>
      <point x="6" y="-228"/>
    </contour>
    <contour>
      <point x="162" y="674" type="curve"/>
      <point x="162" y="709"/>
      <point x="141" y="726"/>
      <point x="110" y="726" type="curve"/>
      <point x="79" y="726"/>
      <point x="58" y="707"/>
      <point x="58" y="674" type="curve"/>
      <point x="164" y="674"/>
      <point x="57" y="674"/>
      <point x="162" y="674" type="curve"/>
      <point x="162" y="639"/>
      <point x="141" y="623"/>
      <point x="110" y="623" type="curve"/>
      <point x="78" y="623"/>
      <point x="58" y="640"/>
      <point x="58" y="674" type="curve"/>
      <point x="164" y="674"/>
      <point x="57" y="674"/>
    </contour>
  </outline>
</glyph>
<glyph name="k" format="1">
  <advance width="467"/>
  <unicode hex="006B"/>
  <outline>
    <contour>
      <point x="307" y="-33" type="move" name="bottom"/>
    </contour>
    <contour>
      <point x="129" y="78" type="curve"/>
      <point x="5" y="78"/>
      <point x="129" y="78"/>
      <point x="6" y="78" type="curve"/>
      <point x="6" y="0"/>
      <point x="6" y="78"/>
      <point x="6" y="0" type="curve"/>
      <point x="48" y="0"/>
      <point x="88" y="-1"/>
      <point x="129" y="-1" type="curve"/>
      <point x="129" y="78"/>
      <point x="129" y="-1"/>
    </contour>
    <contour>
      <point x="338" y="0" type="curve"/>
      <point x="375" y="0"/>
      <point x="414" y="0"/>
      <point x="451" y="0" type="curve"/>
      <point x="451" y="78"/>
      <point x="451" y="0"/>
      <point x="451" y="78" type="curve"/>
      <point x="342" y="78"/>
      <point x="449" y="78"/>
      <point x="341" y="78" type="curve"/>
      <point x="341" y="0"/>
      <point x="338" y="78"/>
    </contour>
    <contour>
      <point x="343" y="455" type="curve"/>
      <point x="430" y="455"/>
      <point x="344" y="455"/>
      <point x="431" y="455" type="curve"/>
      <point x="431" y="533"/>
      <point x="431" y="455"/>
      <point x="431" y="533" type="curve"/>
      <point x="403" y="533"/>
      <point x="371" y="533"/>
      <point x="343" y="533" type="curve"/>
      <point x="343" y="455"/>
      <point x="343" y="533"/>
    </contour>
    <contour>
      <point x="129" y="-1" type="curve"/>
      <point x="165" y="-1"/>
      <point x="125" y="-1"/>
      <point x="232" y="0" type="curve"/>
      <point x="232" y="78"/>
      <point x="232" y="0"/>
      <point x="232" y="78" type="curve"/>
      <point x="125" y="78"/>
      <point x="236" y="78"/>
      <point x="129" y="78" type="curve"/>
      <point x="129" y="-1"/>
      <point x="129" y="78"/>
    </contour>
    <contour>
      <point x="363" y="533" type="curve"/>
      <point x="315" y="533"/>
      <point x="268" y="533"/>
      <point x="219" y="533" type="curve"/>
      <point x="219" y="455"/>
      <point x="219" y="533"/>
      <point x="219" y="455" type="curve"/>
      <point x="366" y="455"/>
      <point x="217" y="455"/>
      <point x="363" y="455" type="curve"/>
      <point x="363" y="533"/>
      <point x="363" y="455"/>
    </contour>
    <contour>
      <point x="130" y="799" type="curve"/>
      <point x="89" y="799"/>
      <point x="48" y="800"/>
      <point x="7" y="800" type="curve"/>
      <point x="7" y="722"/>
      <point x="7" y="800"/>
      <point x="7" y="722" type="curve"/>
      <point x="131" y="721"/>
      <point x="6" y="722"/>
      <point x="130" y="721" type="curve"/>
      <point x="130" y="799"/>
      <point x="130" y="721"/>
    </contour>
    <contour>
      <point x="178" y="0" type="curve"/>
      <point x="178" y="800" type="line"/>
      <point x="79" y="800"/>
      <point x="178" y="800"/>
      <point x="79" y="800" type="curve"/>
      <point x="79" y="533"/>
      <point x="79" y="267"/>
      <point x="79" y="0" type="curve"/>
      <point x="178" y="0"/>
      <point x="79" y="0"/>
    </contour>
    <contour>
      <point x="319" y="533" type="curve"/>
      <point x="161" y="275" type="line"/>
      <point x="254" y="275"/>
      <point x="160" y="275"/>
      <point x="253" y="275" type="curve"/>
      <point x="398" y="498" type="line"/>
      <point x="323" y="498"/>
      <point x="394" y="533"/>
    </contour>
    <contour>
      <point x="409" y="46" type="curve"/>
      <point x="253" y="275" type="line"/>
      <point x="160" y="275"/>
      <point x="255" y="275"/>
      <point x="161" y="275" type="curve"/>
      <point x="336" y="0" type="line"/>
      <point x="403" y="0"/>
      <point x="341" y="46"/>
    </contour>
  </outline>
</glyph>
<glyph name="l" format="1">
  <advance width="277"/>
  <unicode hex="006C"/>
  <outline>
    <contour>
      <point x="140" y="883" type="move" name="top"/>
    </contour>
    <contour>
      <point x="176" y="-32" type="move" name="bottom"/>
    </contour>
    <contour>
      <point x="138" y="78" type="curve"/>
      <point x="14" y="78"/>
      <point x="138" y="78"/>
      <point x="14" y="78" type="curve"/>
      <point x="14" y="0"/>
      <point x="14" y="78"/>
      <point x="14" y="0" type="curve"/>
      <point x="56" y="0"/>
      <point x="97" y="0"/>
      <point x="138" y="0" type="curve"/>
      <point x="138" y="79"/>
      <point x="138" y="-1"/>
    </contour>
    <contour>
      <point x="140" y="800" type="curve"/>
      <point x="98" y="800"/>
      <point x="57" y="800"/>
      <point x="16" y="800" type="curve"/>
      <point x="15" y="722"/>
      <point x="16" y="800"/>
      <point x="15" y="722" type="curve"/>
      <point x="140" y="721"/>
      <point x="15" y="722"/>
      <point x="140" y="721" type="curve"/>
      <point x="140" y="799"/>
      <point x="140" y="722"/>
    </contour>
    <contour>
      <point x="138" y="0" type="curve"/>
      <point x="180" y="0"/>
      <point x="221" y="0"/>
      <point x="262" y="0" type="curve"/>
      <point x="262" y="78"/>
      <point x="262" y="0"/>
      <point x="262" y="78" type="curve"/>
      <point x="138" y="78"/>
      <point x="262" y="78"/>
      <point x="138" y="78" type="curve"/>
      <point x="138" y="-1"/>
      <point x="138" y="79"/>
    </contour>
    <contour>
      <point x="187" y="0" type="curve"/>
      <point x="187" y="267"/>
      <point x="187" y="533"/>
      <point x="187" y="800" type="curve"/>
      <point x="88" y="800"/>
      <point x="187" y="800"/>
      <point x="88" y="800" type="curve"/>
      <point x="88" y="533"/>
      <point x="88" y="267"/>
      <point x="88" y="0" type="curve"/>
      <point x="187" y="0"/>
      <point x="88" y="0"/>
    </contour>
  </outline>
</glyph>
<glyph name="m" format="1">
  <advance width="745"/>
  <unicode hex="006D"/>
  <outline>
    <contour>
      <point x="380" y="0" type="curve"/>
      <point x="489" y="0"/>
      <point x="380" y="0"/>
      <point x="489" y="0" type="curve"/>
      <point x="489" y="78"/>
      <point x="489" y="0"/>
      <point x="489" y="78" type="curve"/>
      <point x="380" y="78"/>
      <point x="489" y="78"/>
      <point x="380" y="78" type="curve"/>
      <point x="380" y="0"/>
      <point x="380" y="78"/>
    </contour>
    <contour>
      <point x="595" y="0" type="curve"/>
      <point x="637" y="0"/>
      <point x="677" y="0"/>
      <point x="720" y="0" type="curve"/>
      <point x="720" y="78"/>
      <point x="720" y="0"/>
      <point x="720" y="78" type="curve"/>
      <point x="591" y="78"/>
      <point x="723" y="78"/>
      <point x="595" y="78" type="curve"/>
      <point x="595" y="0"/>
      <point x="595" y="78"/>
    </contour>
    <contour>
      <point x="165" y="78" type="curve"/>
      <point x="39" y="78"/>
      <point x="169" y="78"/>
      <point x="43" y="78" type="curve"/>
      <point x="42" y="0"/>
      <point x="43" y="78"/>
      <point x="42" y="0" type="curve"/>
      <point x="85" y="0"/>
      <point x="124" y="0"/>
      <point x="165" y="0" type="curve"/>
      <point x="165" y="78"/>
      <point x="165" y="0"/>
    </contour>
    <contour>
      <point x="165" y="0" type="curve"/>
      <point x="203" y="0"/>
      <point x="158" y="0"/>
      <point x="271" y="0" type="curve"/>
      <point x="271" y="78"/>
      <point x="271" y="0"/>
      <point x="271" y="78" type="curve"/>
      <point x="158" y="78"/>
      <point x="279" y="78"/>
      <point x="165" y="78" type="curve"/>
      <point x="165" y="0"/>
      <point x="165" y="78"/>
    </contour>
    <contour>
      <point x="165" y="533" type="curve"/>
      <point x="124" y="533"/>
      <point x="85" y="533"/>
      <point x="43" y="533" type="curve"/>
      <point x="42" y="455"/>
      <point x="43" y="533"/>
      <point x="42" y="455" type="curve"/>
      <point x="169" y="455"/>
      <point x="38" y="455"/>
      <point x="165" y="455" type="curve"/>
      <point x="165" y="533"/>
      <point x="165" y="455"/>
    </contour>
    <contour>
      <point x="406" y="302" type="curve"/>
      <point x="421" y="373"/>
      <point x="436" y="457"/>
      <point x="493" y="457" type="curve"/>
      <point x="557" y="457"/>
      <point x="544" y="397"/>
      <point x="544" y="320" type="curve"/>
      <point x="544" y="213"/>
      <point x="544" y="107"/>
      <point x="544" y="0" type="curve"/>
      <point x="642" y="0"/>
      <point x="544" y="0"/>
      <point x="642" y="0" type="curve"/>
      <point x="642" y="109"/>
      <point x="642" y="219"/>
      <point x="642" y="328" type="curve"/>
      <point x="642" y="450"/>
      <point x="642" y="538"/>
      <point x="530" y="538" type="curve"/>
      <point x="445" y="538"/>
      <point x="400" y="452"/>
      <point x="384" y="348" type="curve"/>
      <point x="410" y="304"/>
      <point x="380" y="346"/>
    </contour>
    <contour>
      <point x="193" y="301" type="curve"/>
      <point x="205" y="372"/>
      <point x="220" y="457"/>
      <point x="279" y="457" type="curve"/>
      <point x="343" y="457"/>
      <point x="330" y="397"/>
      <point x="330" y="320" type="curve"/>
      <point x="330" y="213"/>
      <point x="330" y="107"/>
      <point x="330" y="0" type="curve"/>
      <point x="429" y="0"/>
      <point x="330" y="0"/>
      <point x="429" y="0" type="curve"/>
      <point x="429" y="109"/>
      <point x="429" y="219"/>
      <point x="429" y="328" type="curve"/>
      <point x="429" y="450"/>
      <point x="428" y="538"/>
      <point x="316" y="538" type="curve"/>
      <point x="229" y="538"/>
      <point x="186" y="453"/>
      <point x="170" y="348" type="curve"/>
      <point x="196" y="304"/>
      <point x="166" y="346"/>
    </contour>
    <contour>
      <point x="215" y="0" type="curve"/>
      <point x="215" y="178"/>
      <point x="215" y="355"/>
      <point x="215" y="533" type="curve"/>
      <point x="116" y="533"/>
      <point x="215" y="533"/>
      <point x="116" y="533" type="curve"/>
      <point x="116" y="355"/>
      <point x="116" y="178"/>
      <point x="116" y="0" type="curve"/>
      <point x="215" y="0"/>
      <point x="116" y="0"/>
    </contour>
  </outline>
</glyph>
<glyph name="n" format="1">
  <advance width="516"/>
  <unicode hex="006E"/>
  <outline>
    <contour>
      <point x="271" y="632" type="move" name="top"/>
    </contour>
    <contour>
      <point x="315" y="-34" type="move" name="bottom"/>
    </contour>
    <contour>
      <point x="180" y="292" type="curve"/>
      <point x="188" y="374"/>
      <point x="224" y="457"/>
      <point x="278" y="457" type="curve"/>
      <point x="338" y="457"/>
      <point x="341" y="394"/>
      <point x="341" y="320" type="curve"/>
      <point x="341" y="214"/>
      <point x="341" y="106"/>
      <point x="341" y="0" type="curve"/>
      <point x="450" y="0"/>
      <point x="331" y="0"/>
      <point x="439" y="0" type="curve"/>
      <point x="439" y="109"/>
      <point x="439" y="220"/>
      <point x="439" y="328" type="curve"/>
      <point x="439" y="444"/>
      <point x="421" y="538"/>
      <point x="315" y="538" type="curve"/>
      <point x="232" y="538"/>
      <point x="168" y="461"/>
      <point x="155" y="340" type="curve"/>
      <point x="187" y="291"/>
      <point x="148" y="340"/>
    </contour>
    <contour>
      <point x="390" y="0" type="curve"/>
      <point x="430" y="0"/>
      <point x="470" y="0"/>
      <point x="512" y="0" type="curve"/>
      <point x="512" y="78"/>
      <point x="512" y="0"/>
      <point x="512" y="78" type="curve"/>
      <point x="389" y="78"/>
      <point x="513" y="78"/>
      <point x="390" y="78" type="curve"/>
      <point x="390" y="0"/>
      <point x="390" y="78"/>
    </contour>
    <contour>
      <point x="151" y="78" type="curve"/>
      <point x="27" y="78"/>
      <point x="152" y="78"/>
      <point x="28" y="78" type="curve"/>
      <point x="28" y="0"/>
      <point x="28" y="78"/>
      <point x="28" y="0" type="curve"/>
      <point x="68" y="0"/>
      <point x="110" y="0"/>
      <point x="151" y="0" type="curve"/>
      <point x="151" y="78"/>
      <point x="151" y="0"/>
    </contour>
    <contour>
      <point x="151" y="0" type="curve"/>
      <point x="188" y="0"/>
      <point x="147" y="0"/>
      <point x="259" y="0" type="curve"/>
      <point x="259" y="78"/>
      <point x="259" y="0"/>
      <point x="259" y="78" type="curve"/>
      <point x="147" y="78"/>
      <point x="263" y="78"/>
      <point x="151" y="78" type="curve"/>
      <point x="151" y="0"/>
      <point x="151" y="78"/>
    </contour>
    <contour>
      <point x="200" y="0" type="curve"/>
      <point x="200" y="178"/>
      <point x="200" y="355"/>
      <point x="200" y="533" type="curve"/>
      <point x="101" y="533"/>
      <point x="200" y="533"/>
      <point x="101" y="533" type="curve"/>
      <point x="101" y="355"/>
      <point x="101" y="178"/>
      <point x="101" y="0" type="curve"/>
      <point x="200" y="0"/>
      <point x="101" y="0"/>
    </contour>
    <contour>
      <point x="151" y="533" type="curve"/>
      <point x="110" y="533"/>
      <point x="68" y="533"/>
      <point x="28" y="533" type="curve"/>
      <point x="28" y="455"/>
      <point x="28" y="533"/>
      <point x="28" y="455" type="curve"/>
      <point x="152" y="455"/>
      <point x="27" y="455"/>
      <point x="151" y="455" type="curve"/>
      <point x="151" y="533"/>
      <point x="151" y="455"/>
    </contour>
  </outline>
</glyph>
<glyph name="p" format="1">
  <advance width="500"/>
  <unicode hex="0070"/>
  <outline>
    <contour>
      <point x="128" y="-221" type="curve"/>
      <point x="5" y="-221"/>
      <point x="128" y="-221"/>
      <point x="6" y="-221" type="curve"/>
      <point x="6" y="-300"/>
      <point x="6" y="-221"/>
      <point x="6" y="-300" type="curve"/>
      <point x="47" y="-300"/>
      <point x="87" y="-300"/>
      <point x="128" y="-300" type="curve"/>
      <point x="128" y="-221"/>
      <point x="128" y="-300"/>
    </contour>
    <contour>
      <point x="128" y="-300" type="curve"/>
      <point x="167" y="-300"/>
      <point x="205" y="-300"/>
      <point x="244" y="-300" type="curve"/>
      <point x="244" y="-221"/>
      <point x="244" y="-300"/>
      <point x="244" y="-221" type="curve"/>
      <point x="127" y="-221"/>
      <point x="244" y="-221"/>
      <point x="128" y="-221" type="curve"/>
      <point x="128" y="-300"/>
      <point x="128" y="-221"/>
    </contour>
    <contour>
      <point x="129" y="533" type="curve"/>
      <point x="88" y="533"/>
      <point x="48" y="533"/>
      <point x="7" y="533" type="curve"/>
      <point x="7" y="455"/>
      <point x="7" y="533"/>
      <point x="7" y="455" type="curve"/>
      <point x="129" y="455"/>
      <point x="6" y="455"/>
      <point x="129" y="455" type="curve"/>
      <point x="129" y="533"/>
      <point x="129" y="455"/>
    </contour>
    <contour>
      <point x="159" y="335" type="curve"/>
      <point x="167" y="389"/>
      <point x="208" y="457"/>
      <point x="258" y="457" type="curve"/>
      <point x="350" y="457"/>
      <point x="356" y="364"/>
      <point x="356" y="266" type="curve"/>
      <point x="357" y="168"/>
      <point x="348" y="73"/>
      <point x="261" y="73" type="curve"/>
      <point x="215" y="73"/>
      <point x="184" y="103"/>
      <point x="162" y="145" type="curve"/>
      <point x="124" y="98"/>
      <point x="166" y="150"/>
      <point x="128" y="104" type="curve"/>
      <point x="165" y="36"/>
      <point x="210" y="-5"/>
      <point x="282" y="-5" type="curve"/>
      <point x="421" y="-5"/>
      <point x="455" y="126"/>
      <point x="455" y="271" type="curve"/>
      <point x="455" y="410"/>
      <point x="420" y="539"/>
      <point x="281" y="539" type="curve"/>
      <point x="208" y="539"/>
      <point x="155" y="467"/>
      <point x="132" y="403" type="curve"/>
      <point x="162" y="331"/>
      <point x="130" y="407"/>
    </contour>
    <contour>
      <point x="178" y="-300" type="curve"/>
      <point x="178" y="-22"/>
      <point x="178" y="255"/>
      <point x="178" y="533" type="curve"/>
      <point x="79" y="533"/>
      <point x="178" y="533"/>
      <point x="79" y="533" type="curve"/>
      <point x="79" y="255"/>
      <point x="79" y="-22"/>
      <point x="79" y="-300" type="curve"/>
      <point x="178" y="-300"/>
      <point x="79" y="-300"/>
    </contour>
  </outline>
</glyph>
<glyph name="q" format="1">
  <advance width="514"/>
  <unicode hex="0071"/>
  <outline>
    <contour>
      <point x="373" y="455" type="curve"/>
      <point x="499" y="455"/>
      <point x="361" y="455"/>
      <point x="489" y="455" type="curve"/>
      <point x="489" y="540"/>
      <point x="489" y="448"/>
      <point x="489" y="533" type="curve"/>
      <point x="450" y="533"/>
      <point x="410" y="533"/>
      <point x="373" y="533" type="curve"/>
      <point x="373" y="448"/>
      <point x="373" y="540"/>
    </contour>
    <contour>
      <point x="372" y="-221" type="curve"/>
      <point x="236" y="-221"/>
      <point x="384" y="-221"/>
      <point x="249" y="-221" type="curve"/>
      <point x="249" y="-307"/>
      <point x="249" y="-214"/>
      <point x="249" y="-300" type="curve"/>
      <point x="290" y="-300"/>
      <point x="330" y="-300"/>
      <point x="372" y="-300" type="curve"/>
      <point x="372" y="-214"/>
      <point x="372" y="-307"/>
    </contour>
    <contour>
      <point x="372" y="-300" type="curve"/>
      <point x="410" y="-300"/>
      <point x="449" y="-300"/>
      <point x="487" y="-300" type="curve"/>
      <point x="487" y="-214"/>
      <point x="487" y="-307"/>
      <point x="487" y="-221" type="curve"/>
      <point x="359" y="-221"/>
      <point x="499" y="-221"/>
      <point x="372" y="-221" type="curve"/>
      <point x="372" y="-307"/>
      <point x="372" y="-214"/>
    </contour>
    <contour>
      <point x="371" y="410" type="curve"/>
      <point x="345" y="488"/>
      <point x="285" y="538"/>
      <point x="219" y="538" type="curve"/>
      <point x="80" y="538"/>
      <point x="45" y="408"/>
      <point x="46" y="265" type="curve"/>
      <point x="46" y="121"/>
      <point x="86" y="-5"/>
      <point x="224" y="-5" type="curve"/>
      <point x="289" y="-5"/>
      <point x="342" y="54"/>
      <point x="367" y="119" type="curve"/>
      <point x="334" y="167"/>
      <point x="373" y="117"/>
      <point x="340" y="165" type="curve"/>
      <point x="322" y="117"/>
      <point x="285" y="73"/>
      <point x="239" y="73" type="curve"/>
      <point x="154" y="73"/>
      <point x="145" y="170"/>
      <point x="145" y="269" type="curve"/>
      <point x="145" y="364"/>
      <point x="156" y="457"/>
      <point x="237" y="457" type="curve"/>
      <point x="277" y="457"/>
      <point x="312" y="434"/>
      <point x="344" y="367" type="curve"/>
      <point x="366" y="417"/>
      <point x="348" y="360"/>
    </contour>
    <contour>
      <point x="423" y="-300" type="curve"/>
      <point x="423" y="-25"/>
      <point x="423" y="258"/>
      <point x="423" y="533" type="curve"/>
      <point x="309" y="533"/>
      <point x="433" y="533"/>
      <point x="320" y="533" type="curve"/>
      <point x="320" y="258"/>
      <point x="320" y="-25"/>
      <point x="320" y="-300" type="curve"/>
      <point x="433" y="-300"/>
      <point x="309" y="-300"/>
    </contour>
  </outline>
</glyph>
<glyph name="t" format="1">
  <advance width="293"/>
  <unicode hex="0074"/>
  <outline>
    <contour>
      <point x="218" y="-29" type="move" name="bottom"/>
    </contour>
    <contour>
      <point x="15" y="454" type="curve"/>
      <point x="272" y="454" type="line"/>
      <point x="272" y="532"/>
      <point x="272" y="454"/>
      <point x="272" y="532" type="curve"/>
      <point x="15" y="532" type="line"/>
      <point x="15" y="454"/>
      <point x="15" y="532"/>
    </contour>
    <contour>
      <point x="234" y="96" type="curve"/>
      <point x="223" y="85"/>
      <point x="213" y="77"/>
      <point x="198" y="77" type="curve"/>
      <point x="161" y="77"/>
      <point x="164" y="118"/>
      <point x="164" y="164" type="curve"/>
      <point x="164" y="679" type="line"/>
      <point x="58" y="613"/>
      <point x="169" y="678"/>
      <point x="64" y="612" type="curve"/>
      <point x="64" y="160" type="line"/>
      <point x="64" y="61"/>
      <point x="96" y="-6"/>
      <point x="184" y="-6" type="curve"/>
      <point x="219" y="-6"/>
      <point x="244" y="7"/>
      <point x="277" y="29" type="curve"/>
      <point x="234" y="96"/>
      <point x="277" y="29"/>
    </contour>
  </outline>
</glyph>
<glyph name="v" format="1">
  <advance width="502"/>
  <unicode hex="0076"/>
  <outline>
    <contour>
      <point x="115" y="533" type="curve"/>
      <point x="79" y="533"/>
      <point x="48" y="533"/>
      <point x="13" y="533" type="curve"/>
      <point x="13" y="455"/>
      <point x="13" y="533"/>
      <point x="13" y="455" type="curve"/>
      <point x="119" y="455"/>
      <point x="9" y="455"/>
      <point x="115" y="455" type="curve"/>
      <point x="115" y="533"/>
      <point x="115" y="455"/>
    </contour>
    <contour>
      <point x="115" y="455" type="curve"/>
      <point x="229" y="455"/>
      <point x="112" y="455"/>
      <point x="226" y="455" type="curve"/>
      <point x="226" y="533"/>
      <point x="226" y="455"/>
      <point x="226" y="533" type="curve"/>
      <point x="188" y="533"/>
      <point x="153" y="533"/>
      <point x="115" y="533" type="curve"/>
      <point x="115" y="455"/>
      <point x="115" y="533"/>
    </contour>
    <contour>
      <point x="398" y="533" type="curve"/>
      <point x="359" y="533"/>
      <point x="322" y="533"/>
      <point x="284" y="533" type="curve"/>
      <point x="284" y="455"/>
      <point x="284" y="533"/>
      <point x="284" y="455" type="curve"/>
      <point x="401" y="455"/>
      <point x="280" y="455"/>
      <point x="398" y="455" type="curve"/>
      <point x="398" y="533"/>
      <point x="398" y="455"/>
    </contour>
    <contour>
      <point x="398" y="455" type="curve"/>
      <point x="499" y="455"/>
      <point x="395" y="455"/>
      <point x="496" y="455" type="curve"/>
      <point x="496" y="533"/>
      <point x="496" y="455"/>
      <point x="496" y="533" type="curve"/>
      <point x="462" y="533"/>
      <point x="432" y="533"/>
      <point x="398" y="533" type="curve"/>
      <point x="398" y="455"/>
      <point x="398" y="533"/>
    </contour>
    <contour>
      <point x="60" y="533" type="curve"/>
      <point x="105" y="355"/>
      <point x="150" y="178"/>
      <point x="194" y="0" type="curve"/>
      <point x="286" y="0"/>
      <point x="194" y="0"/>
      <point x="286" y="0" type="curve"/>
      <point x="242" y="177"/>
      <point x="205" y="356"/>
      <point x="162" y="533" type="curve"/>
      <point x="60" y="533"/>
      <point x="162" y="533"/>
    </contour>
    <contour>
      <point x="353" y="533" type="curve"/>
      <point x="219" y="0" type="line"/>
      <point x="312" y="0"/>
      <point x="219" y="0"/>
      <point x="312" y="0" type="curve"/>
      <point x="359" y="178"/>
      <point x="406" y="355"/>
      <point x="453" y="533" type="curve"/>
      <point x="353" y="533"/>
      <point x="453" y="533"/>
    </contour>
  </outline>
</glyph>
<glyph name="w" format="1">
  <advance width="701"/>
  <unicode hex="0077"/>
  <outline>
    <contour>
      <point x="584" y="455" type="curve"/>
      <point x="696" y="455"/>
      <point x="580" y="455"/>
      <point x="693" y="455" type="curve"/>
      <point x="693" y="533"/>
      <point x="693" y="455"/>
      <point x="693" y="533" type="curve"/>
      <point x="656" y="533"/>
      <point x="620" y="533"/>
      <point x="584" y="533" type="curve"/>
      <point x="584" y="455"/>
      <point x="584" y="533"/>
    </contour>
    <contour>
      <point x="584" y="533" type="curve"/>
      <point x="545" y="533"/>
      <point x="517" y="533"/>
      <point x="479" y="533" type="curve"/>
      <point x="479" y="455"/>
      <point x="479" y="533"/>
      <point x="479" y="455" type="curve"/>
      <point x="595" y="455"/>
      <point x="468" y="455"/>
      <point x="584" y="455" type="curve"/>
      <point x="584" y="533"/>
      <point x="584" y="455"/>
    </contour>
    <contour>
      <point x="119" y="533" type="curve"/>
      <point x="82" y="533"/>
      <point x="47" y="533"/>
      <point x="10" y="533" type="curve"/>
      <point x="10" y="455"/>
      <point x="10" y="533"/>
      <point x="10" y="455" type="curve"/>
      <point x="123" y="455"/>
      <point x="6" y="455"/>
      <point x="119" y="455" type="curve"/>
      <point x="119" y="533"/>
      <point x="119" y="455"/>
    </contour>
    <contour>
      <point x="119" y="455" type="curve"/>
      <point x="231" y="455"/>
      <point x="112" y="455"/>
      <point x="224" y="455" type="curve"/>
      <point x="224" y="533"/>
      <point x="224" y="455"/>
      <point x="224" y="533" type="curve"/>
      <point x="187" y="533"/>
      <point x="156" y="533"/>
      <point x="119" y="533" type="curve"/>
      <point x="119" y="455"/>
      <point x="119" y="533"/>
    </contour>
    <contour>
      <point x="265" y="0" type="curve"/>
      <point x="309" y="178"/>
      <point x="353" y="355"/>
      <point x="396" y="533" type="curve"/>
      <point x="311" y="533"/>
      <point x="396" y="533"/>
      <point x="311" y="533" type="curve"/>
      <point x="269" y="355"/>
      <point x="225" y="178"/>
      <point x="183" y="0" type="curve"/>
      <point x="265" y="0"/>
      <point x="183" y="0"/>
    </contour>
    <contour>
      <point x="554" y="533" type="curve"/>
      <point x="514" y="355"/>
      <point x="473" y="178"/>
      <point x="435" y="0" type="curve"/>
      <point x="516" y="0"/>
      <point x="435" y="0"/>
      <point x="516" y="0" type="curve"/>
      <point x="558" y="178"/>
      <point x="598" y="355"/>
      <point x="639" y="533" type="curve"/>
      <point x="554" y="533"/>
      <point x="639" y="533"/>
    </contour>
    <contour>
      <point x="316" y="533" type="curve"/>
      <point x="355" y="355"/>
      <point x="394" y="178"/>
      <point x="434" y="0" type="curve"/>
      <point x="516" y="0"/>
      <point x="434" y="0"/>
      <point x="516" y="0" type="curve"/>
      <point x="477" y="178"/>
      <point x="438" y="355"/>
      <point x="399" y="533" type="curve"/>
      <point x="316" y="533"/>
      <point x="399" y="533"/>
    </contour>
    <contour>
      <point x="65" y="533" type="curve"/>
      <point x="104" y="355"/>
      <point x="143" y="178"/>
      <point x="182" y="0" type="curve"/>
      <point x="264" y="0"/>
      <point x="182" y="0"/>
      <point x="264" y="0" type="curve"/>
      <point x="225" y="178"/>
      <point x="187" y="355"/>
      <point x="149" y="533" type="curve"/>
      <point x="65" y="533"/>
      <point x="149" y="533"/>
    </contour>
  </outline>
</glyph>
<glyph name="x" format="1">
  <advance width="497"/>
  <unicode hex="0078"/>
  <outline>
    <contour>
      <point x="103" y="78" type="curve"/>
      <point x="30" y="78"/>
      <point x="95" y="78"/>
      <point x="22" y="78" type="curve"/>
      <point x="22" y="0"/>
      <point x="22" y="78"/>
      <point x="22" y="0" type="curve"/>
      <point x="46" y="0"/>
      <point x="78" y="0"/>
      <point x="103" y="0" type="curve"/>
      <point x="103" y="78"/>
      <point x="103" y="0"/>
    </contour>
    <contour>
      <point x="413" y="78" type="curve"/>
      <point x="290" y="78"/>
      <point x="405" y="78"/>
      <point x="282" y="78" type="curve"/>
      <point x="282" y="0"/>
      <point x="282" y="78"/>
      <point x="282" y="0" type="curve"/>
      <point x="322" y="0"/>
      <point x="372" y="0"/>
      <point x="413" y="0" type="curve"/>
      <point x="413" y="78"/>
      <point x="413" y="0"/>
    </contour>
    <contour>
      <point x="398" y="0" type="curve"/>
      <point x="424" y="0"/>
      <point x="464" y="0"/>
      <point x="489" y="0" type="curve"/>
      <point x="489" y="78"/>
      <point x="489" y="0"/>
      <point x="489" y="78" type="curve"/>
      <point x="413" y="78"/>
      <point x="474" y="78"/>
      <point x="398" y="78" type="curve"/>
      <point x="398" y="0"/>
      <point x="398" y="78"/>
    </contour>
    <contour>
      <point x="88" y="0" type="curve"/>
      <point x="130" y="0"/>
      <point x="94" y="0"/>
      <point x="219" y="0" type="curve"/>
      <point x="219" y="78"/>
      <point x="219" y="0"/>
      <point x="219" y="78" type="curve"/>
      <point x="94" y="78"/>
      <point x="213" y="78"/>
      <point x="88" y="78" type="curve"/>
      <point x="88" y="0"/>
      <point x="88" y="78"/>
    </contour>
    <contour>
      <point x="390" y="455" type="curve"/>
      <point x="469" y="455"/>
      <point x="408" y="455"/>
      <point x="488" y="455" type="curve"/>
      <point x="488" y="533"/>
      <point x="488" y="455"/>
      <point x="488" y="533" type="curve"/>
      <point x="461" y="533"/>
      <point x="416" y="533"/>
      <point x="390" y="533" type="curve"/>
      <point x="390" y="455"/>
      <point x="390" y="533"/>
    </contour>
    <contour>
      <point x="140" y="533" type="curve"/>
      <point x="110" y="533"/>
      <point x="69" y="533"/>
      <point x="40" y="533" type="curve"/>
      <point x="40" y="455"/>
      <point x="40" y="533"/>
      <point x="40" y="455" type="curve"/>
      <point x="128" y="455"/>
      <point x="51" y="455"/>
      <point x="140" y="455" type="curve"/>
      <point x="140" y="533"/>
      <point x="140" y="455"/>
    </contour>
    <contour>
      <point x="121" y="455" type="curve"/>
      <point x="235" y="455"/>
      <point x="117" y="455"/>
      <point x="232" y="455" type="curve"/>
      <point x="232" y="533"/>
      <point x="232" y="455"/>
      <point x="232" y="533" type="curve"/>
      <point x="195" y="533"/>
      <point x="159" y="533"/>
      <point x="121" y="533" type="curve"/>
      <point x="121" y="455"/>
      <point x="121" y="533"/>
    </contour>
    <contour>
      <point x="412" y="533" type="curve"/>
      <point x="369" y="533"/>
      <point x="331" y="533"/>
      <point x="289" y="533" type="curve"/>
      <point x="289" y="455"/>
      <point x="289" y="533"/>
      <point x="289" y="455" type="curve"/>
      <point x="416" y="455"/>
      <point x="286" y="455"/>
      <point x="412" y="455" type="curve"/>
      <point x="412" y="533"/>
      <point x="412" y="455"/>
    </contour>
    <contour>
      <point x="445" y="26" type="curve"/>
      <point x="415" y="89"/>
      <point x="186" y="470"/>
      <point x="156" y="533" type="curve"/>
      <point x="100" y="533"/>
      <point x="131" y="501"/>
      <point x="76" y="501" type="curve"/>
      <point x="106" y="438"/>
      <point x="332" y="63"/>
      <point x="362" y="0" type="curve"/>
      <point x="421" y="0"/>
      <point x="386" y="26"/>
    </contour>
    <contour>
      <point x="368" y="533" type="curve"/>
      <point x="338" y="470"/>
      <point x="94" y="96"/>
      <point x="64" y="33" type="curve"/>
      <point x="117" y="33"/>
      <point x="88" y="0"/>
      <point x="141" y="0" type="curve"/>
      <point x="171" y="63"/>
      <point x="420" y="445"/>
      <point x="450" y="508" type="curve"/>
      <point x="394" y="508"/>
      <point x="425" y="533"/>
    </contour>
  </outline>
</glyph>
<glyph name="braceleft" format="1">
  <advance width="228"/>
  <unicode hex="007B"/>
  <outline>
    <contour>
      <point x="184" y="-36" type="curve"/>
      <point x="146" y="-36"/>
      <point x="154" y="8"/>
      <point x="154" y="52" type="curve"/>
      <point x="154" y="106"/>
      <point x="154" y="159"/>
      <point x="154" y="213" type="curve"/>
      <point x="154" y="306"/>
      <point x="119" y="381"/>
      <point x="35" y="381" type="curve"/>
      <point x="35" y="299"/>
      <point x="35" y="381"/>
      <point x="35" y="299" type="curve"/>
      <point x="67" y="299"/>
      <point x="64" y="260"/>
      <point x="64" y="221" type="curve"/>
      <point x="64" y="166"/>
      <point x="64" y="110"/>
      <point x="64" y="56" type="curve"/>
      <point x="64" y="-40"/>
      <point x="98" y="-114"/>
      <point x="184" y="-114" type="curve"/>
      <point x="184" y="-36"/>
      <point x="184" y="-114"/>
    </contour>
    <contour>
      <point x="184" y="794" type="curve"/>
      <point x="98" y="794"/>
      <point x="65" y="721"/>
      <point x="65" y="627" type="curve"/>
      <point x="65" y="570"/>
      <point x="65" y="513"/>
      <point x="65" y="456" type="curve"/>
      <point x="65" y="418"/>
      <point x="66" y="381"/>
      <point x="35" y="381" type="curve"/>
      <point x="35" y="299"/>
      <point x="35" y="381"/>
      <point x="35" y="299" type="curve"/>
      <point x="120" y="299"/>
      <point x="154" y="373"/>
      <point x="154" y="468" type="curve"/>
      <point x="154" y="521"/>
      <point x="154" y="574"/>
      <point x="154" y="627" type="curve"/>
      <point x="154" y="671"/>
      <point x="146" y="715"/>
      <point x="184" y="715" type="curve"/>
      <point x="184" y="794"/>
      <point x="184" y="715"/>
    </contour>
  </outline>
</glyph>
<glyph name="asciitilde" format="1">
  <advance width="526"/>
  <unicode hex="007E"/>
  <outline>
    <contour>
      <point x="383" y="367" type="curve"/>
      <point x="374" y="329"/>
      <point x="365" y="286"/>
      <point x="339" y="286" type="curve"/>
      <point x="319" y="286"/>
      <point x="309" y="297"/>
      <point x="298" y="314" type="curve"/>
      <point x="267" y="353"/>
      <point x="242" y="376"/>
      <point x="193" y="376" type="curve"/>
      <point x="111" y="376"/>
      <point x="81" y="319"/>
      <point x="65" y="235" type="curve"/>
      <point x="102" y="224"/>
      <point x="110" y="220"/>
      <point x="147" y="209" type="curve"/>
      <point x="153" y="250"/>
      <point x="162" y="291"/>
      <point x="191" y="291" type="curve"/>
      <point x="211" y="291"/>
      <point x="220" y="280"/>
      <point x="232" y="264" type="curve"/>
      <point x="265" y="224"/>
      <point x="290" y="203"/>
      <point x="340" y="202" type="curve"/>
      <point x="421" y="202"/>
      <point x="443" y="264"/>
      <point x="462" y="345" type="curve"/>
      <point x="427" y="354"/>
      <point x="418" y="357"/>
    </contour>
  </outline>
</glyph>
<glyph name="exclamdown" format="1">
  <advance width="240"/>
  <unicode hex="00A1"/>
  <outline>
    <contour>
      <point x="70" y="298" type="line"/>
      <point x="62" y="-195" type="line"/>
      <point x="178" y="-196" type="line"/>
      <point x="173" y="297" type="line"/>
    </contour>
    <contour>
      <point x="71" y="483" type="curve"/>
      <point x="70" y="448"/>
      <point x="92" y="431"/>
      <point x="123" y="430" type="curve"/>
      <point x="154" y="430"/>
      <point x="174" y="449"/>
      <point x="174" y="482" type="curve"/>
      <point x="70" y="483"/>
      <point x="175" y="482"/>
      <point x="71" y="483" type="curve"/>
      <point x="71" y="518"/>
      <point x="92" y="534"/>
      <point x="123" y="533" type="curve"/>
      <point x="155" y="533"/>
      <point x="175" y="516"/>
      <point x="174" y="482" type="curve"/>
      <point x="70" y="483"/>
      <point x="175" y="482"/>
    </contour>
  </outline>
</glyph>
<glyph name="cent" format="1">
  <advance width="490"/>
  <unicode hex="00A2"/>
  <outline>
    <contour>
      <point x="309" y="-53" type="curve"/>
      <point x="309" y="-13"/>
      <point x="309" y="27"/>
      <point x="309" y="67" type="curve"/>
      <point x="210" y="67"/>
      <point x="309" y="67"/>
      <point x="210" y="67" type="curve"/>
      <point x="210" y="27"/>
      <point x="210" y="-13"/>
      <point x="210" y="-53" type="curve"/>
      <point x="309" y="-53"/>
      <point x="210" y="-53"/>
    </contour>
    <contour>
      <point x="224" y="778" type="curve"/>
      <point x="224" y="742"/>
      <point x="224" y="706"/>
      <point x="224" y="670" type="curve"/>
      <point x="322" y="670"/>
      <point x="224" y="670"/>
      <point x="322" y="670" type="curve"/>
      <point x="322" y="706"/>
      <point x="322" y="742"/>
      <point x="322" y="778" type="curve"/>
      <point x="224" y="778"/>
      <point x="322" y="778"/>
    </contour>
    <contour>
      <point x="439" y="607" type="curve"/>
      <point x="390" y="662"/>
      <point x="345" y="684"/>
      <point x="279" y="684" type="curve"/>
      <point x="118" y="684"/>
      <point x="48" y="543"/>
      <point x="48" y="364" type="curve"/>
      <point x="48" y="190"/>
      <point x="102" y="48"/>
      <point x="255" y="48" type="curve"/>
      <point x="334" y="48"/>
      <point x="387" y="78"/>
      <point x="436" y="148" type="curve"/>
      <point x="374" y="204"/>
      <point x="436" y="148"/>
      <point x="374" y="204" type="curve"/>
      <point x="343" y="164"/>
      <point x="316" y="130"/>
      <point x="264" y="130" type="curve"/>
      <point x="165" y="130"/>
      <point x="148" y="243"/>
      <point x="148" y="368" type="curve"/>
      <point x="148" y="492"/>
      <point x="176" y="602"/>
      <point x="271" y="602" type="curve"/>
      <point x="319" y="602"/>
      <point x="349" y="581"/>
      <point x="379" y="545" type="curve"/>
      <point x="439" y="607"/>
      <point x="379" y="545"/>
    </contour>
    <contour>
      <point x="359" y="607" type="curve"/>
      <point x="359" y="487"/>
      <point x="359" y="594"/>
      <point x="359" y="476" type="curve"/>
      <point x="439" y="476"/>
      <point x="359" y="476"/>
      <point x="439" y="476" type="curve"/>
      <point x="439" y="594"/>
      <point x="439" y="487"/>
      <point x="439" y="607" type="curve"/>
      <point x="359" y="607"/>
      <point x="439" y="607"/>
    </contour>
  </outline>
</glyph>
<glyph name="sterling" format="1">
  <advance width="374"/>
  <unicode hex="00A3"/>
  <outline>
    <contour>
      <point x="310" y="79" type="curve"/>
      <point x="223" y="79"/>
      <point x="131" y="79"/>
      <point x="45" y="79" type="curve"/>
      <point x="45" y="0"/>
      <point x="45" y="79"/>
      <point x="45" y="0" type="curve"/>
      <point x="131" y="0"/>
      <point x="223" y="0"/>
      <point x="310" y="0" type="curve"/>
      <point x="310" y="79"/>
      <point x="310" y="0"/>
    </contour>
    <contour>
      <point x="274" y="415" type="curve"/>
      <point x="205" y="415"/>
      <point x="128" y="415"/>
      <point x="59" y="415" type="curve"/>
      <point x="59" y="337"/>
      <point x="59" y="415"/>
      <point x="59" y="337" type="curve"/>
      <point x="128" y="337"/>
      <point x="205" y="337"/>
      <point x="274" y="337" type="curve"/>
      <point x="274" y="415"/>
      <point x="274" y="337"/>
    </contour>
    <contour>
      <point x="333" y="666" type="curve"/>
      <point x="301" y="707"/>
      <point x="270" y="722"/>
      <point x="227" y="722" type="curve"/>
      <point x="77" y="722"/>
      <point x="71" y="557"/>
      <point x="98" y="367" type="curve"/>
      <point x="119" y="220"/>
      <point x="136" y="79"/>
      <point x="45" y="79" type="curve"/>
      <point x="45" y="0"/>
      <point x="45" y="79"/>
      <point x="45" y="0" type="curve"/>
      <point x="211" y="0"/>
      <point x="213" y="179"/>
      <point x="185" y="384" type="curve"/>
      <point x="167" y="517"/>
      <point x="147" y="647"/>
      <point x="221" y="647" type="curve"/>
      <point x="249" y="647"/>
      <point x="264" y="629"/>
      <point x="281" y="610" type="curve"/>
      <point x="333" y="666"/>
      <point x="281" y="610"/>
    </contour>
  </outline>
</glyph>
<glyph name="currency" format="1">
  <advance width="554"/>
  <unicode hex="00A4"/>
  <outline>
    <contour>
      <point x="225" y="315" type="curve"/>
      <point x="225" y="368"/>
      <point x="230" y="421"/>
      <point x="275" y="421" type="curve"/>
      <point x="321" y="421"/>
      <point x="326" y="372"/>
      <point x="326" y="315" type="curve"/>
      <point x="326" y="259"/>
      <point x="323" y="202"/>
      <point x="276" y="202" type="curve"/>
      <point x="228" y="202"/>
      <point x="225" y="257"/>
      <point x="225" y="315" type="curve"/>
      <point x="127" y="315"/>
      <point x="232" y="315"/>
      <point x="133" y="315" type="curve"/>
      <point x="133" y="206"/>
      <point x="179" y="124"/>
      <point x="278" y="124" type="curve"/>
      <point x="377" y="124"/>
      <point x="421" y="209"/>
      <point x="421" y="317" type="curve"/>
      <point x="421" y="420"/>
      <point x="378" y="499"/>
      <point x="283" y="499" type="curve"/>
      <point x="183" y="499"/>
      <point x="133" y="420"/>
      <point x="133" y="315" type="curve"/>
      <point x="232" y="315"/>
      <point x="127" y="315"/>
    </contour>
    <contour>
      <point x="346" y="376" type="line"/>
      <point x="496" y="516" type="line"/>
      <point x="426" y="587" type="line"/>
      <point x="286" y="436" type="line"/>
    </contour>
    <contour>
      <point x="292" y="195" type="line"/>
      <point x="432" y="45" type="line"/>
      <point x="502" y="115" type="line"/>
      <point x="351" y="255" type="line"/>
    </contour>
    <contour>
      <point x="203" y="255" type="line"/>
      <point x="53" y="114" type="line"/>
      <point x="123" y="44" type="line"/>
      <point x="263" y="194" type="line"/>
    </contour>
    <contour>
      <point x="271" y="437" type="line"/>
      <point x="131" y="587" type="line"/>
      <point x="60" y="517" type="line"/>
      <point x="210" y="377" type="line"/>
    </contour>
  </outline>
</glyph>
<glyph name="yen" format="1">
  <advance width="572"/>
  <unicode hex="00A5"/>
  <outline>
    <contour>
      <point x="424" y="399" type="curve"/>
      <point x="378" y="399"/>
      <point x="333" y="399"/>
      <point x="288" y="399" type="curve"/>
      <point x="288" y="313"/>
      <point x="288" y="399"/>
      <point x="288" y="313" type="curve"/>
      <point x="333" y="313"/>
      <point x="378" y="313"/>
      <point x="424" y="313" type="curve"/>
      <point x="424" y="399"/>
      <point x="424" y="313"/>
    </contour>
    <contour>
      <point x="269" y="399" type="curve"/>
      <point x="224" y="399"/>
      <point x="180" y="399"/>
      <point x="136" y="399" type="curve"/>
      <point x="136" y="313"/>
      <point x="136" y="399"/>
      <point x="136" y="313" type="curve"/>
      <point x="180" y="313"/>
      <point x="224" y="313"/>
      <point x="269" y="313" type="curve"/>
      <point x="269" y="399"/>
      <point x="269" y="313"/>
    </contour>
    <contour>
      <point x="424" y="267" type="curve"/>
      <point x="327" y="267"/>
      <point x="232" y="267"/>
      <point x="136" y="267" type="curve"/>
      <point x="136" y="181"/>
      <point x="136" y="267"/>
      <point x="136" y="181" type="curve"/>
      <point x="232" y="181"/>
      <point x="327" y="181"/>
      <point x="424" y="181" type="curve"/>
      <point x="424" y="267"/>
      <point x="424" y="181"/>
    </contour>
    <contour>
      <point x="279" y="78" type="curve"/>
      <point x="154" y="78"/>
      <point x="282" y="78"/>
      <point x="158" y="78" type="curve"/>
      <point x="158" y="0"/>
      <point x="158" y="78"/>
      <point x="158" y="0" type="curve"/>
      <point x="198" y="0"/>
      <point x="237" y="0"/>
      <point x="279" y="0" type="curve"/>
      <point x="279" y="78"/>
      <point x="279" y="0"/>
    </contour>
    <contour>
      <point x="279" y="0" type="curve"/>
      <point x="320" y="0"/>
      <point x="358" y="0"/>
      <point x="399" y="0" type="curve"/>
      <point x="399" y="78"/>
      <point x="399" y="0"/>
      <point x="399" y="78" type="curve"/>
      <point x="275" y="78"/>
      <point x="403" y="78"/>
      <point x="279" y="78" type="curve"/>
      <point x="279" y="0"/>
      <point x="279" y="78"/>
    </contour>
    <contour>
      <point x="422" y="722" type="curve"/>
      <point x="383" y="722"/>
      <point x="347" y="722"/>
      <point x="308" y="722" type="curve"/>
      <point x="308" y="644"/>
      <point x="308" y="722"/>
      <point x="308" y="644" type="curve"/>
      <point x="425" y="644"/>
      <point x="305" y="644"/>
      <point x="422" y="644" type="curve"/>
      <point x="422" y="722"/>
      <point x="422" y="644"/>
    </contour>
    <contour>
      <point x="129" y="722" type="curve"/>
      <point x="96" y="722"/>
      <point x="67" y="722"/>
      <point x="34" y="722" type="curve"/>
      <point x="33" y="644"/>
      <point x="34" y="722"/>
      <point x="33" y="644" type="curve"/>
      <point x="133" y="644"/>
      <point x="29" y="644"/>
      <point x="129" y="644" type="curve"/>
      <point x="129" y="722"/>
      <point x="129" y="644"/>
    </contour>
    <contour>
      <point x="144" y="644" type="curve"/>
      <point x="261" y="644"/>
      <point x="140" y="644"/>
      <point x="258" y="644" type="curve"/>
      <point x="258" y="722"/>
      <point x="258" y="644"/>
      <point x="258" y="722" type="curve"/>
      <point x="219" y="722"/>
      <point x="183" y="722"/>
      <point x="144" y="722" type="curve"/>
      <point x="144" y="644"/>
      <point x="144" y="722"/>
    </contour>
    <contour>
      <point x="437" y="644" type="curve"/>
      <point x="541" y="644"/>
      <point x="433" y="644"/>
      <point x="537" y="644" type="curve"/>
      <point x="537" y="722"/>
      <point x="537" y="644"/>
      <point x="537" y="722" type="curve"/>
      <point x="503" y="722"/>
      <point x="471" y="722"/>
      <point x="437" y="722" type="curve"/>
      <point x="437" y="644"/>
      <point x="437" y="722"/>
    </contour>
    <contour>
      <point x="73" y="726" type="curve"/>
      <point x="125" y="597"/>
      <point x="173" y="470"/>
      <point x="224" y="337" type="curve"/>
      <point x="325" y="337"/>
      <point x="208" y="337"/>
      <point x="308" y="337" type="curve"/>
      <point x="265" y="469"/>
      <point x="223" y="592"/>
      <point x="178" y="722" type="curve"/>
      <point x="73" y="722"/>
      <point x="178" y="726"/>
    </contour>
    <contour>
      <point x="388" y="722" type="curve"/>
      <point x="337" y="590"/>
      <point x="293" y="468"/>
      <point x="241" y="337" type="curve"/>
      <point x="342" y="337"/>
      <point x="232" y="337"/>
      <point x="333" y="337" type="curve"/>
      <point x="387" y="468"/>
      <point x="438" y="597"/>
      <point x="492" y="726" type="curve"/>
      <point x="388" y="726"/>
      <point x="492" y="722"/>
    </contour>
    <contour>
      <point x="332" y="0" type="curve"/>
      <point x="332" y="115"/>
      <point x="332" y="225"/>
      <point x="332" y="340" type="curve"/>
      <point x="224" y="340"/>
      <point x="332" y="340"/>
      <point x="224" y="340" type="curve"/>
      <point x="224" y="225"/>
      <point x="224" y="115"/>
      <point x="224" y="0" type="curve"/>
      <point x="332" y="0"/>
      <point x="224" y="0"/>
    </contour>
  </outline>
</glyph>
<glyph name="section" format="1">
  <advance width="414"/>
  <unicode hex="00A7"/>
  <outline>
    <contour>
      <point x="323" y="701" type="curve"/>
      <point x="285" y="734"/>
      <point x="256" y="749"/>
      <point x="211" y="749" type="curve"/>
      <point x="124" y="749"/>
      <point x="76" y="690"/>
      <point x="76" y="606" type="curve"/>
      <point x="76" y="531"/>
      <point x="109" y="480"/>
      <point x="176" y="448" type="curve"/>
      <point x="221" y="424"/>
      <point x="264" y="408"/>
      <point x="264" y="362" type="curve"/>
      <point x="264" y="312"/>
      <point x="246" y="275"/>
      <point x="201" y="263" type="curve"/>
      <point x="260" y="199"/>
      <point x="201" y="263"/>
      <point x="260" y="199" type="curve"/>
      <point x="333" y="223"/>
      <point x="364" y="283"/>
      <point x="364" y="361" type="curve"/>
      <point x="363" y="444"/>
      <point x="304" y="486"/>
      <point x="225" y="522" type="curve"/>
      <point x="191" y="539"/>
      <point x="168" y="567"/>
      <point x="168" y="606" type="curve"/>
      <point x="168" y="638"/>
      <point x="179" y="671"/>
      <point x="213" y="671" type="curve"/>
      <point x="243" y="671"/>
      <point x="255" y="658"/>
      <point x="274" y="640" type="curve"/>
      <point x="323" y="701"/>
      <point x="274" y="640"/>
    </contour>
    <contour>
      <point x="156" y="523" type="curve"/>
      <point x="86" y="493"/>
      <point x="53" y="441"/>
      <point x="53" y="366" type="curve"/>
      <point x="53" y="285"/>
      <point x="101" y="237"/>
      <point x="176" y="203" type="curve"/>
      <point x="215" y="184"/>
      <point x="250" y="167"/>
      <point x="250" y="122" type="curve"/>
      <point x="250" y="84"/>
      <point x="237" y="51"/>
      <point x="207" y="51" type="curve"/>
      <point x="173" y="51"/>
      <point x="156" y="68"/>
      <point x="135" y="93" type="curve"/>
      <point x="78" y="39"/>
      <point x="135" y="93"/>
      <point x="78" y="39" type="curve"/>
      <point x="116" y="-8"/>
      <point x="152" y="-27"/>
      <point x="206" y="-27" type="curve"/>
      <point x="292" y="-27"/>
      <point x="345" y="32"/>
      <point x="345" y="121" type="curve"/>
      <point x="344" y="196"/>
      <point x="308" y="247"/>
      <point x="239" y="277" type="curve"/>
      <point x="193" y="300"/>
      <point x="153" y="319"/>
      <point x="153" y="365" type="curve"/>
      <point x="153" y="410"/>
      <point x="166" y="446"/>
      <point x="205" y="464" type="curve"/>
      <point x="156" y="523"/>
      <point x="205" y="464"/>
    </contour>
    <contour>
      <point x="157" y="39" type="curve"/>
      <point x="157" y="159"/>
      <point x="157" y="34"/>
      <point x="157" y="154" type="curve"/>
      <point x="78" y="154"/>
      <point x="157" y="154"/>
      <point x="78" y="154" type="curve"/>
      <point x="78" y="34"/>
      <point x="78" y="159"/>
      <point x="78" y="39" type="curve"/>
      <point x="157" y="39"/>
      <point x="78" y="39"/>
    </contour>
    <contour>
      <point x="323" y="586" type="curve"/>
      <point x="323" y="706"/>
      <point x="323" y="581"/>
      <point x="323" y="701" type="curve"/>
      <point x="243" y="701"/>
      <point x="323" y="701"/>
      <point x="243" y="701" type="curve"/>
      <point x="243" y="581"/>
      <point x="243" y="706"/>
      <point x="243" y="586" type="curve"/>
      <point x="323" y="586"/>
      <point x="243" y="586"/>
    </contour>
  </outline>
</glyph>
<glyph name="dieresis" format="1">
  <advance width="346"/>
  <unicode hex="00A8"/>
  <outline>
    <contour>
      <point x="159" y="633" type="move" name="_top"/>
    </contour>
    <contour>
      <point x="136" y="679" type="curve"/>
      <point x="136" y="714"/>
      <point x="114" y="732"/>
      <point x="83" y="732" type="curve"/>
      <point x="52" y="732"/>
      <point x="32" y="712"/>
      <point x="32" y="679" type="curve"/>
      <point x="137" y="679"/>
      <point x="31" y="679"/>
      <point x="136" y="679" type="curve"/>
      <point x="136" y="644"/>
      <point x="115" y="628"/>
      <point x="83" y="628" type="curve"/>
      <point x="52" y="628"/>
      <point x="32" y="646"/>
      <point x="32" y="679" type="curve"/>
      <point x="137" y="679"/>
      <point x="31" y="679"/>
    </contour>
    <contour>
      <point x="287" y="679" type="curve"/>
      <point x="287" y="714"/>
      <point x="265" y="732"/>
      <point x="234" y="732" type="curve"/>
      <point x="203" y="732"/>
      <point x="183" y="712"/>
      <point x="183" y="679" type="curve"/>
      <point x="288" y="679"/>
      <point x="182" y="679"/>
      <point x="287" y="679" type="curve"/>
      <point x="287" y="644"/>
      <point x="266" y="628"/>
      <point x="234" y="628" type="curve"/>
      <point x="203" y="628"/>
      <point x="183" y="646"/>
      <point x="183" y="679" type="curve"/>
      <point x="288" y="679"/>
      <point x="182" y="679"/>
    </contour>
  </outline>
</glyph>
<glyph name="copyright" format="1">
  <advance width="578"/>
  <unicode hex="00A9"/>
  <outline>
    <contour>
      <point x="134" y="322" type="curve"/>
      <point x="134" y="458"/>
      <point x="175" y="581"/>
      <point x="292" y="581" type="curve"/>
      <point x="407" y="581"/>
      <point x="447" y="456"/>
      <point x="447" y="321" type="curve"/>
      <point x="447" y="189"/>
      <point x="410" y="66"/>
      <point x="298" y="66" type="curve"/>
      <point x="182" y="66"/>
      <point x="134" y="187"/>
      <point x="134" y="322" type="curve"/>
      <point x="52" y="322"/>
      <point x="136" y="322"/>
      <point x="54" y="322" type="curve"/>
      <point x="54" y="149"/>
      <point x="135" y="2"/>
      <point x="294" y="2" type="curve"/>
      <point x="450" y="2"/>
      <point x="525" y="150"/>
      <point x="525" y="324" type="curve"/>
      <point x="525" y="497"/>
      <point x="448" y="645"/>
      <point x="292" y="645" type="curve"/>
      <point x="134" y="645"/>
      <point x="54" y="498"/>
      <point x="54" y="322" type="curve"/>
      <point x="136" y="322"/>
      <point x="52" y="322"/>
    </contour>
    <contour>
      <point x="325" y="430" type="curve"/>
      <point x="325" y="415"/>
      <point x="325" y="390"/>
      <point x="325" y="372" type="curve"/>
      <point x="399" y="372"/>
      <point x="325" y="372"/>
      <point x="399" y="372" type="curve"/>
      <point x="399" y="402"/>
      <point x="399" y="439"/>
      <point x="399" y="462" type="curve"/>
      <point x="325" y="429"/>
      <point x="399" y="463"/>
    </contour>
    <contour>
      <point x="399" y="462" type="curve"/>
      <point x="371" y="495"/>
      <point x="339" y="507"/>
      <point x="298" y="507" type="curve"/>
      <point x="202" y="507"/>
      <point x="165" y="426"/>
      <point x="165" y="322" type="curve"/>
      <point x="165" y="220"/>
      <point x="196" y="141"/>
      <point x="287" y="141" type="curve"/>
      <point x="334" y="141"/>
      <point x="367" y="153"/>
      <point x="397" y="203" type="curve"/>
      <point x="345" y="239"/>
      <point x="397" y="203"/>
      <point x="345" y="239" type="curve"/>
      <point x="331" y="219"/>
      <point x="316" y="205"/>
      <point x="290" y="205" type="curve"/>
      <point x="241" y="205"/>
      <point x="239" y="264"/>
      <point x="239" y="325" type="curve"/>
      <point x="239" y="386"/>
      <point x="243" y="443"/>
      <point x="294" y="443" type="curve"/>
      <point x="308" y="443"/>
      <point x="317" y="439"/>
      <point x="325" y="430" type="curve"/>
      <point x="399" y="463"/>
      <point x="325" y="429"/>
    </contour>
  </outline>
</glyph>
<glyph name="ordfeminine" format="1">
  <advance width="351"/>
  <unicode hex="00AA"/>
  <outline>
    <contour>
      <point x="69" y="719" type="curve"/>
      <point x="69" y="667"/>
      <point x="69" y="708"/>
      <point x="69" y="656" type="curve"/>
      <point x="118" y="656"/>
      <point x="74" y="656"/>
      <point x="123" y="656" type="curve"/>
      <point x="123" y="708"/>
      <point x="123" y="667"/>
      <point x="123" y="719" type="curve"/>
      <point x="74" y="719"/>
      <point x="118" y="719"/>
    </contour>
    <contour>
      <point x="264" y="426" type="curve"/>
      <point x="264" y="509"/>
      <point x="264" y="585"/>
      <point x="264" y="668" type="curve"/>
      <point x="264" y="733"/>
      <point x="226" y="767"/>
      <point x="165" y="767" type="curve"/>
      <point x="121" y="767"/>
      <point x="93" y="747"/>
      <point x="69" y="719" type="curve"/>
      <point x="93" y="679"/>
      <point x="72" y="715"/>
      <point x="96" y="675" type="curve"/>
      <point x="110" y="693"/>
      <point x="127" y="712"/>
      <point x="156" y="712" type="curve"/>
      <point x="185" y="712"/>
      <point x="199" y="690"/>
      <point x="199" y="660" type="curve"/>
      <point x="199" y="578"/>
      <point x="199" y="507"/>
      <point x="199" y="426" type="curve"/>
      <point x="259" y="426"/>
      <point x="204" y="426"/>
    </contour>
    <contour>
      <point x="232" y="426" type="curve"/>
      <point x="254" y="426"/>
      <point x="274" y="426"/>
      <point x="295" y="426" type="curve"/>
      <point x="295" y="474"/>
      <point x="295" y="431"/>
      <point x="295" y="479" type="curve"/>
      <point x="240" y="479"/>
      <point x="287" y="479"/>
      <point x="232" y="479" type="curve"/>
      <point x="232" y="431"/>
      <point x="232" y="474"/>
    </contour>
    <contour>
      <point x="230" y="642" type="curve"/>
      <point x="199" y="636"/>
      <point x="181" y="634"/>
      <point x="151" y="628" type="curve"/>
      <point x="92" y="618"/>
      <point x="54" y="586"/>
      <point x="54" y="526" type="curve"/>
      <point x="54" y="465"/>
      <point x="83" y="425"/>
      <point x="142" y="425" type="curve"/>
      <point x="199" y="425"/>
      <point x="219" y="474"/>
      <point x="248" y="516" type="curve"/>
      <point x="217" y="543"/>
      <point x="246" y="519"/>
      <point x="214" y="546" type="curve"/>
      <point x="201" y="509"/>
      <point x="193" y="477"/>
      <point x="159" y="477" type="curve"/>
      <point x="129" y="477"/>
      <point x="118" y="499"/>
      <point x="118" y="530" type="curve"/>
      <point x="118" y="556"/>
      <point x="132" y="577"/>
      <point x="153" y="582" type="curve"/>
      <point x="185" y="588"/>
      <point x="200" y="590"/>
      <point x="232" y="597" type="curve"/>
      <point x="231" y="637"/>
      <point x="231" y="601"/>
    </contour>
  </outline>
</glyph>
<glyph name="guillemotleft" format="1">
  <advance width="430"/>
  <unicode hex="00AB"/>
  <outline>
    <contour>
      <point x="202" y="458" type="curve"/>
      <point x="178" y="435"/>
      <point x="77" y="356"/>
      <point x="52" y="334" type="curve"/>
      <point x="52" y="247"/>
      <point x="52" y="319"/>
      <point x="52" y="232" type="curve"/>
      <point x="77" y="255"/>
      <point x="178" y="343"/>
      <point x="202" y="365" type="curve"/>
      <point x="202" y="451"/>
      <point x="202" y="372"/>
    </contour>
    <contour>
      <point x="202" y="203" type="curve"/>
      <point x="179" y="226"/>
      <point x="77" y="311"/>
      <point x="52" y="334" type="curve"/>
      <point x="52" y="247"/>
      <point x="52" y="319"/>
      <point x="52" y="232" type="curve"/>
      <point x="77" y="210"/>
      <point x="179" y="132"/>
      <point x="202" y="110" type="curve"/>
      <point x="202" y="196"/>
      <point x="202" y="118"/>
    </contour>
    <contour>
      <point x="356" y="458" type="curve"/>
      <point x="332" y="435"/>
      <point x="231" y="356"/>
      <point x="206" y="334" type="curve"/>
      <point x="206" y="247"/>
      <point x="206" y="319"/>
      <point x="206" y="232" type="curve"/>
      <point x="231" y="255"/>
      <point x="332" y="343"/>
      <point x="356" y="365" type="curve"/>
      <point x="356" y="451"/>
      <point x="356" y="372"/>
    </contour>
    <contour>
      <point x="357" y="203" type="curve"/>
      <point x="332" y="226"/>
      <point x="231" y="311"/>
      <point x="206" y="334" type="curve"/>
      <point x="206" y="247"/>
      <point x="206" y="319"/>
      <point x="206" y="232" type="curve"/>
      <point x="231" y="210"/>
      <point x="332" y="132"/>
      <point x="357" y="110" type="curve"/>
      <point x="357" y="196"/>
      <point x="357" y="118"/>
    </contour>
  </outline>
</glyph>
<glyph name="logicalnot" format="1">
  <advance width="514"/>
  <unicode hex="00AC"/>
  <outline>
    <contour>
      <point x="80" y="271" type="curve"/>
      <point x="444" y="271" type="line"/>
      <point x="444" y="356"/>
      <point x="444" y="271"/>
      <point x="444" y="356" type="curve"/>
      <point x="80" y="356" type="line"/>
      <point x="80" y="271"/>
      <point x="80" y="356"/>
    </contour>
    <contour>
      <point x="444" y="143" type="curve"/>
      <point x="444" y="356" type="line"/>
      <point x="344" y="356"/>
      <point x="443" y="356"/>
      <point x="344" y="356" type="curve"/>
      <point x="344" y="143" type="line"/>
      <point x="443" y="143"/>
      <point x="344" y="143"/>
    </contour>
  </outline>
</glyph>
<glyph name="registered" format="1">
  <advance width="594"/>
  <unicode hex="00AE"/>
  <outline>
    <contour>
      <point x="122" y="321" type="curve"/>
      <point x="122" y="465"/>
      <point x="171" y="586"/>
      <point x="299" y="586" type="curve"/>
      <point x="426" y="586"/>
      <point x="473" y="464"/>
      <point x="473" y="319" type="curve"/>
      <point x="473" y="178"/>
      <point x="428" y="58"/>
      <point x="305" y="58" type="curve"/>
      <point x="177" y="58"/>
      <point x="122" y="176"/>
      <point x="122" y="321" type="curve"/>
      <point x="91" y="321"/>
      <point x="85" y="321"/>
      <point x="54" y="321" type="curve"/>
      <point x="54" y="141"/>
      <point x="135" y="1"/>
      <point x="301" y="1" type="curve"/>
      <point x="466" y="1"/>
      <point x="540" y="142"/>
      <point x="540" y="322" type="curve"/>
      <point x="540" y="502"/>
      <point x="464" y="644"/>
      <point x="299" y="644" type="curve"/>
      <point x="133" y="644"/>
      <point x="54" y="502"/>
      <point x="54" y="321" type="curve"/>
      <point x="85" y="321"/>
      <point x="91" y="321"/>
    </contour>
    <contour>
      <point x="356" y="144" type="curve"/>
      <point x="381" y="144"/>
      <point x="388" y="144"/>
      <point x="413" y="144" type="curve"/>
      <point x="413" y="207"/>
      <point x="413" y="144"/>
      <point x="413" y="207" type="curve"/>
      <point x="407" y="207"/>
      <point x="403" y="207"/>
      <point x="397" y="207" type="curve"/>
      <point x="367" y="228"/>
      <point x="354" y="226"/>
    </contour>
    <contour>
      <point x="290" y="503" type="curve"/>
      <point x="257" y="503"/>
      <point x="224" y="503"/>
      <point x="190" y="503" type="curve"/>
      <point x="190" y="437"/>
      <point x="190" y="503"/>
      <point x="190" y="437" type="curve"/>
      <point x="196" y="437"/>
      <point x="204" y="437"/>
      <point x="209" y="437" type="curve"/>
      <point x="290" y="503"/>
      <point x="209" y="437"/>
    </contour>
    <contour>
      <point x="290" y="207" type="curve"/>
      <point x="257" y="207"/>
      <point x="224" y="207"/>
      <point x="190" y="207" type="curve"/>
      <point x="190" y="144"/>
      <point x="190" y="207"/>
      <point x="190" y="144" type="curve"/>
      <point x="196" y="144"/>
      <point x="204" y="144"/>
      <point x="209" y="144" type="curve"/>
      <point x="290" y="207"/>
      <point x="209" y="144"/>
    </contour>
    <contour>
      <point x="209" y="144" type="curve"/>
      <point x="240" y="144"/>
      <point x="271" y="144"/>
      <point x="302" y="144" type="curve"/>
      <point x="302" y="207"/>
      <point x="302" y="144"/>
      <point x="302" y="207" type="curve"/>
      <point x="299" y="207"/>
      <point x="294" y="207"/>
      <point x="290" y="207" type="curve"/>
      <point x="209" y="144"/>
      <point x="290" y="207"/>
    </contour>
    <contour>
      <point x="281" y="317" type="curve"/>
      <point x="283" y="303"/>
      <point x="353" y="157"/>
      <point x="356" y="144" type="curve"/>
      <point x="402" y="165"/>
      <point x="395" y="167"/>
      <point x="397" y="207" type="curve"/>
      <point x="352" y="312" type="line"/>
      <point x="253" y="312"/>
      <point x="379" y="318"/>
    </contour>
    <contour>
      <point x="281" y="207" type="curve"/>
      <point x="281" y="305"/>
      <point x="281" y="405"/>
      <point x="281" y="503" type="curve"/>
      <point x="200" y="437"/>
      <point x="290" y="503"/>
      <point x="209" y="437" type="curve"/>
      <point x="209" y="339"/>
      <point x="209" y="241"/>
      <point x="209" y="144" type="curve"/>
      <point x="290" y="207"/>
      <point x="200" y="144"/>
    </contour>
    <contour>
      <point x="251" y="278" type="curve"/>
      <point x="263" y="278"/>
      <point x="275" y="278"/>
      <point x="287" y="278" type="curve"/>
      <point x="358" y="278"/>
      <point x="398" y="319"/>
      <point x="398" y="392" type="curve"/>
      <point x="398" y="457"/>
      <point x="363" y="503"/>
      <point x="303" y="503" type="curve"/>
      <point x="299" y="503"/>
      <point x="294" y="503"/>
      <point x="290" y="503" type="curve"/>
      <point x="209" y="437"/>
      <point x="290" y="503"/>
      <point x="209" y="437" type="curve"/>
      <point x="235" y="437"/>
      <point x="262" y="437"/>
      <point x="288" y="437" type="curve"/>
      <point x="314" y="437"/>
      <point x="328" y="418"/>
      <point x="328" y="389" type="curve"/>
      <point x="328" y="363"/>
      <point x="320" y="343"/>
      <point x="299" y="343" type="curve"/>
      <point x="283" y="343"/>
      <point x="266" y="343"/>
      <point x="251" y="343" type="curve"/>
      <point x="251" y="278"/>
      <point x="251" y="343"/>
    </contour>
  </outline>
</glyph>
<glyph name="macron" format="1">
  <advance width="234"/>
  <unicode hex="00AF"/>
  <outline>
    <contour>
      <point x="100" y="608" type="move" name="_top"/>
    </contour>
    <contour>
      <point x="172" y="686" type="curve"/>
      <point x="125" y="686"/>
      <point x="76" y="686"/>
      <point x="28" y="686" type="curve"/>
      <point x="28" y="608"/>
      <point x="28" y="686"/>
      <point x="28" y="608" type="curve"/>
      <point x="76" y="608"/>
      <point x="125" y="608"/>
      <point x="172" y="608" type="curve"/>
      <point x="172" y="686"/>
      <point x="172" y="608"/>
    </contour>
  </outline>
</glyph>
<glyph name="degree" format="1">
  <advance width="381"/>
  <unicode hex="00B0"/>
  <outline>
    <contour>
      <point x="325" y="569" type="curve"/>
      <point x="325" y="671"/>
      <point x="283" y="746"/>
      <point x="189" y="746" type="curve"/>
      <point x="96" y="746"/>
      <point x="57" y="671"/>
      <point x="57" y="570" type="curve"/>
      <point x="83" y="570"/>
      <point x="110" y="570"/>
      <point x="136" y="570" type="curve"/>
      <point x="136" y="626"/>
      <point x="141" y="676"/>
      <point x="188" y="676" type="curve"/>
      <point x="235" y="676"/>
      <point x="241" y="626"/>
      <point x="241" y="569" type="curve"/>
      <point x="241" y="512"/>
      <point x="238" y="461"/>
      <point x="190" y="461" type="curve"/>
      <point x="142" y="461"/>
      <point x="136" y="513"/>
      <point x="136" y="570" type="curve"/>
      <point x="110" y="570"/>
      <point x="83" y="570"/>
      <point x="57" y="570" type="curve"/>
      <point x="57" y="467"/>
      <point x="96" y="390"/>
      <point x="191" y="390" type="curve"/>
      <point x="286" y="390"/>
      <point x="325" y="466"/>
    </contour>
  </outline>
</glyph>
<glyph name="plusminus" format="1">
  <advance width="605"/>
  <unicode hex="00B1"/>
  <outline>
    <contour>
      <point x="59" y="47" type="line"/>
      <point x="547" y="47" type="line"/>
      <point x="547" y="132" type="line"/>
      <point x="59" y="132" type="line"/>
    </contour>
    <contour>
      <point x="59" y="271" type="curve"/>
      <point x="547" y="271" type="line"/>
      <point x="547" y="356"/>
      <point x="547" y="271"/>
      <point x="547" y="356" type="curve"/>
      <point x="59" y="356" type="line"/>
      <point x="59" y="271"/>
      <point x="59" y="356"/>
    </contour>
    <contour>
      <point x="349" y="48" type="curve"/>
      <point x="349" y="581" type="line"/>
      <point x="250" y="581"/>
      <point x="356" y="581"/>
      <point x="257" y="581" type="curve"/>
      <point x="257" y="48" type="line"/>
      <point x="356" y="48"/>
      <point x="250" y="48"/>
    </contour>
  </outline>
</glyph>
<glyph name="twosuperior" format="1">
  <advance width="369"/>
  <unicode hex="00B2"/>
  <outline>
    <contour>
      <point x="200" y="794" type="move" name="_top"/>
    </contour>
    <contour>
      <point x="178" y="370" type="move" name="_bottom"/>
    </contour>
    <contour>
      <point x="310" y="371" type="curve"/>
      <point x="310" y="413"/>
      <point x="310" y="444"/>
      <point x="310" y="487" type="curve"/>
      <point x="236" y="487"/>
      <point x="325" y="487"/>
      <point x="251" y="487" type="curve"/>
      <point x="251" y="465"/>
      <point x="251" y="455"/>
      <point x="251" y="432" type="curve"/>
      <point x="324" y="369"/>
      <point x="237" y="434"/>
    </contour>
    <contour>
      <point x="64" y="371" type="curve"/>
      <point x="138" y="371"/>
      <point x="238" y="371"/>
      <point x="310" y="371" type="curve"/>
      <point x="237" y="434"/>
      <point x="324" y="369"/>
      <point x="251" y="432" type="curve"/>
      <point x="193" y="432"/>
      <point x="121" y="432"/>
      <point x="64" y="432" type="curve"/>
      <point x="64" y="371"/>
      <point x="64" y="432"/>
    </contour>
    <contour>
      <point x="140" y="671" type="curve"/>
      <point x="146" y="702"/>
      <point x="155" y="731"/>
      <point x="186" y="731" type="curve"/>
      <point x="218" y="731"/>
      <point x="227" y="699"/>
      <point x="227" y="661" type="curve"/>
      <point x="227" y="623"/>
      <point x="208" y="599"/>
      <point x="184" y="569" type="curve"/>
      <point x="144" y="524"/>
      <point x="104" y="478"/>
      <point x="64" y="432" type="curve"/>
      <point x="68" y="370"/>
      <point x="63" y="432"/>
      <point x="67" y="370" type="curve"/>
      <point x="117" y="419"/>
      <point x="191" y="469"/>
      <point x="236" y="520" type="curve"/>
      <point x="273" y="566"/>
      <point x="300" y="604"/>
      <point x="300" y="665" type="curve"/>
      <point x="300" y="740"/>
      <point x="260" y="793"/>
      <point x="189" y="793" type="curve"/>
      <point x="133" y="793"/>
      <point x="96" y="765"/>
      <point x="83" y="689" type="curve"/>
      <point x="140" y="671"/>
      <point x="83" y="689"/>
    </contour>
  </outline>
</glyph>
<glyph name="acute" format="1">
  <advance width="339"/>
  <unicode hex="00B4"/>
  <outline>
    <contour>
      <point x="82" y="592" type="move" name="_top"/>
    </contour>
    <contour>
      <point x="127" y="591" type="line"/>
      <point x="219" y="757" type="line"/>
      <point x="99" y="757" type="line"/>
      <point x="34" y="591" type="line"/>
    </contour>
  </outline>
</glyph>
<glyph name="paragraph" format="1">
  <advance width="612"/>
  <unicode hex="00B6"/>
  <outline>
    <contour>
      <point x="320" y="644" type="curve"/>
      <point x="446" y="644"/>
      <point x="320" y="644"/>
      <point x="446" y="644" type="curve"/>
      <point x="446" y="722"/>
      <point x="446" y="644"/>
      <point x="446" y="722" type="curve"/>
      <point x="404" y="722"/>
      <point x="362" y="722"/>
      <point x="320" y="722" type="curve"/>
      <point x="320" y="644"/>
      <point x="320" y="722"/>
    </contour>
    <contour>
      <point x="320" y="0" type="curve"/>
      <point x="362" y="0"/>
      <point x="404" y="0"/>
      <point x="446" y="0" type="curve"/>
      <point x="446" y="78"/>
      <point x="446" y="0"/>
      <point x="446" y="78" type="curve"/>
      <point x="320" y="78"/>
      <point x="446" y="78"/>
      <point x="320" y="78" type="curve"/>
      <point x="320" y="0"/>
      <point x="320" y="78"/>
    </contour>
    <contour>
      <point x="320" y="78" type="curve"/>
      <point x="205" y="78"/>
      <point x="320" y="78"/>
      <point x="205" y="78" type="curve"/>
      <point x="205" y="0"/>
      <point x="205" y="78"/>
      <point x="205" y="0" type="curve"/>
      <point x="320" y="0"/>
      <point x="281" y="0"/>
      <point x="320" y="0" type="curve"/>
      <point x="320" y="78"/>
      <point x="320" y="0"/>
    </contour>
    <contour>
      <point x="303" y="374" type="curve"/>
      <point x="274" y="352"/>
      <point x="252" y="338"/>
      <point x="215" y="338" type="curve"/>
      <point x="153" y="338"/>
      <point x="136" y="405"/>
      <point x="136" y="481" type="curve"/>
      <point x="136" y="568"/>
      <point x="167" y="644"/>
      <point x="243" y="644" type="curve"/>
      <point x="268" y="644"/>
      <point x="293" y="644"/>
      <point x="318" y="644" type="curve"/>
      <point x="318" y="722"/>
      <point x="318" y="644"/>
      <point x="318" y="722" type="curve"/>
      <point x="289" y="722"/>
      <point x="259" y="722"/>
      <point x="230" y="722" type="curve"/>
      <point x="104" y="722"/>
      <point x="38" y="618"/>
      <point x="38" y="484" type="curve"/>
      <point x="38" y="354"/>
      <point x="102" y="265"/>
      <point x="223" y="263" type="curve"/>
      <point x="267" y="263"/>
      <point x="301" y="284"/>
      <point x="334" y="309" type="curve"/>
      <point x="303" y="373"/>
      <point x="333" y="311"/>
    </contour>
    <contour>
      <point x="370" y="0" type="curve"/>
      <point x="370" y="241"/>
      <point x="370" y="481"/>
      <point x="370" y="722" type="curve"/>
      <point x="271" y="722"/>
      <point x="370" y="722"/>
      <point x="271" y="722" type="curve"/>
      <point x="271" y="481"/>
      <point x="271" y="241"/>
      <point x="271" y="0" type="curve"/>
      <point x="370" y="0"/>
      <point x="271" y="0"/>
    </contour>
    <contour>
      <point x="537" y="0" type="curve"/>
      <point x="537" y="241"/>
      <point x="537" y="481"/>
      <point x="537" y="722" type="curve"/>
      <point x="438" y="722"/>
      <point x="537" y="722"/>
      <point x="438" y="722" type="curve"/>
      <point x="438" y="481"/>
      <point x="438" y="241"/>
      <point x="438" y="0" type="curve"/>
      <point x="537" y="0"/>
      <point x="438" y="0"/>
    </contour>
  </outline>
</glyph>
<glyph name="periodcentered" format="1">
  <advance width="227"/>
  <unicode hex="00B7"/>
  <outline>
    <contour>
      <point x="165" y="440" type="curve"/>
      <point x="165" y="474"/>
      <point x="143" y="492"/>
      <point x="112" y="492" type="curve"/>
      <point x="81" y="492"/>
      <point x="61" y="473"/>
      <point x="61" y="440" type="curve"/>
      <point x="167" y="440"/>
      <point x="60" y="440"/>
      <point x="165" y="440" type="curve"/>
      <point x="165" y="405"/>
      <point x="145" y="389"/>
      <point x="112" y="389" type="curve"/>
      <point x="81" y="389"/>
      <point x="61" y="406"/>
      <point x="61" y="440" type="curve"/>
      <point x="167" y="440"/>
      <point x="60" y="440"/>
    </contour>
  </outline>
</glyph>
<glyph name="cedilla" format="1">
  <advance width="309"/>
  <unicode hex="00B8"/>
  <outline>
    <contour>
      <point x="177" y="57" type="move" name="_bottom"/>
    </contour>
    <contour>
      <point x="104" y="111" type="curve"/>
      <point x="95" y="88"/>
      <point x="70" y="18"/>
      <point x="62" y="-6" type="curve"/>
      <point x="130" y="-68"/>
      <point x="62" y="-6"/>
      <point x="130" y="-68" type="curve"/>
      <point x="139" y="-41"/>
      <point x="170" y="30"/>
      <point x="180" y="57" type="curve"/>
      <point x="104" y="111"/>
      <point x="180" y="57"/>
    </contour>
    <contour>
      <point x="130" y="-68" type="curve"/>
      <point x="136" y="-62"/>
      <point x="140" y="-58"/>
      <point x="148" y="-58" type="curve"/>
      <point x="161" y="-58"/>
      <point x="165" y="-70"/>
      <point x="165" y="-86" type="curve"/>
      <point x="165" y="-105"/>
      <point x="153" y="-117"/>
      <point x="135" y="-117" type="curve"/>
      <point x="118" y="-117"/>
      <point x="105" y="-114"/>
      <point x="93" y="-103" type="curve"/>
      <point x="54" y="-159"/>
      <point x="93" y="-103"/>
      <point x="54" y="-159" type="curve"/>
      <point x="77" y="-178"/>
      <point x="100" y="-185"/>
      <point x="130" y="-185" type="curve"/>
      <point x="187" y="-185"/>
      <point x="222" y="-147"/>
      <point x="222" y="-86" type="curve"/>
      <point x="222" y="-26"/>
      <point x="191" y="16"/>
      <point x="136" y="16" type="curve"/>
      <point x="107" y="16"/>
      <point x="86" y="11"/>
      <point x="62" y="-6" type="curve"/>
      <point x="130" y="-68"/>
      <point x="62" y="-6"/>
    </contour>
  </outline>
</glyph>
<glyph name="onesuperior" format="1">
  <advance width="307"/>
  <unicode hex="00B9"/>
  <outline>
    <contour>
      <point x="162" y="783" type="move" name="_top"/>
    </contour>
    <contour>
      <point x="171" y="372" type="move" name="_bottom"/>
    </contour>
    <contour>
      <point x="132" y="371" type="curve"/>
      <point x="171" y="371"/>
      <point x="213" y="371"/>
      <point x="252" y="371" type="curve"/>
      <point x="252" y="433"/>
      <point x="252" y="371"/>
      <point x="252" y="434" type="curve"/>
      <point x="239" y="434"/>
      <point x="223" y="434"/>
      <point x="209" y="434" type="curve"/>
      <point x="132" y="371"/>
      <point x="209" y="433"/>
    </contour>
    <contour>
      <point x="209" y="434" type="curve"/>
      <point x="170" y="434"/>
      <point x="128" y="434"/>
      <point x="88" y="434" type="curve"/>
      <point x="88" y="371"/>
      <point x="88" y="433"/>
      <point x="88" y="371" type="curve"/>
      <point x="102" y="371"/>
      <point x="118" y="371"/>
      <point x="132" y="371" type="curve"/>
      <point x="209" y="433"/>
      <point x="132" y="371"/>
    </contour>
    <contour>
      <point x="97" y="645" type="line"/>
      <point x="208" y="781" type="line"/>
      <point x="132" y="784" type="line"/>
      <point x="49" y="691" type="line"/>
    </contour>
    <contour>
      <point x="209" y="434" type="curve"/>
      <point x="209" y="784" type="line"/>
      <point x="132" y="784" type="line"/>
      <point x="132" y="371" type="line"/>
      <point x="209" y="433"/>
      <point x="132" y="371"/>
    </contour>
  </outline>
</glyph>
<glyph name="threequarters" format="1">
  <advance width="767"/>
  <unicode hex="00BE"/>
  <outline>
    <contour>
      <point x="309" y="-56" type="line"/>
      <point x="584" y="725" type="line"/>
      <point x="492" y="725" type="line"/>
      <point x="217" y="-56" type="line"/>
    </contour>
    <contour>
      <point x="90" y="630" type="curve"/>
      <point x="100" y="645"/>
      <point x="110" y="662"/>
      <point x="130" y="662" type="curve"/>
      <point x="159" y="662"/>
      <point x="171" y="637"/>
      <point x="171" y="603" type="curve"/>
      <point x="171" y="567"/>
      <point x="142" y="545"/>
      <point x="104" y="541" type="curve"/>
      <point x="104" y="488"/>
      <point x="104" y="541"/>
      <point x="104" y="488" type="curve"/>
      <point x="187" y="491"/>
      <point x="249" y="532"/>
      <point x="249" y="609" type="curve"/>
      <point x="249" y="680"/>
      <point x="208" y="725"/>
      <point x="138" y="725" type="curve"/>
      <point x="98" y="725"/>
      <point x="61" y="702"/>
      <point x="40" y="668" type="curve"/>
      <point x="90" y="630"/>
      <point x="40" y="668"/>
    </contour>
    <contour>
      <point x="40" y="333" type="curve"/>
      <point x="65" y="310"/>
      <point x="92" y="297"/>
      <point x="124" y="297" type="curve"/>
      <point x="208" y="296"/>
      <point x="259" y="342"/>
      <point x="259" y="423" type="curve"/>
      <point x="259" y="499"/>
      <point x="190" y="529"/>
      <point x="104" y="533" type="curve"/>
      <point x="104" y="487"/>
      <point x="104" y="533"/>
      <point x="104" y="487" type="curve"/>
      <point x="149" y="483"/>
      <point x="181" y="458"/>
      <point x="181" y="419" type="curve"/>
      <point x="180" y="385"/>
      <point x="164" y="358"/>
      <point x="132" y="359" type="curve"/>
      <point x="112" y="359"/>
      <point x="94" y="366"/>
      <point x="80" y="379" type="curve"/>
      <point x="40" y="333"/>
      <point x="80" y="379"/>
    </contour>
    <contour>
      <point x="737" y="118" type="line"/>
      <point x="462" y="118" type="line"/>
      <point x="462" y="57" type="line"/>
      <point x="737" y="57" type="line"/>
    </contour>
    <contour>
      <point x="496" y="60" type="line"/>
      <point x="657" y="363" type="line"/>
      <point x="602" y="377" type="line"/>
      <point x="462" y="118" type="line"/>
    </contour>
    <contour>
      <point x="679" y="-49" type="line"/>
      <point x="679" y="377" type="line"/>
      <point x="602" y="377" type="line"/>
      <point x="602" y="-49" type="line"/>
    </contour>
    <contour>
      <point x="641" y="5" type="line"/>
      <point x="558" y="5" type="line"/>
      <point x="558" y="-50" type="line"/>
      <point x="641" y="-50" type="line"/>
    </contour>
    <contour>
      <point x="641" y="-50" type="line"/>
      <point x="723" y="-50" type="line"/>
      <point x="723" y="5" type="line"/>
      <point x="641" y="5" type="line"/>
    </contour>
  </outline>
</glyph>
<glyph name="questiondown" format="1">
  <advance width="423"/>
  <unicode hex="00BF"/>
  <outline>
    <contour>
      <point x="265" y="373" type="curve"/>
      <point x="265" y="410"/>
      <point x="265" y="478"/>
      <point x="265" y="515" type="curve"/>
      <point x="176" y="515"/>
      <point x="265" y="515"/>
      <point x="176" y="515" type="curve"/>
      <point x="176" y="478"/>
      <point x="176" y="410"/>
      <point x="176" y="373" type="curve"/>
      <point x="265" y="373"/>
      <point x="176" y="373"/>
    </contour>
    <contour>
      <point x="328" y="140" type="line"/>
      <point x="304" y="105"/>
      <point x="280" y="83"/>
      <point x="238" y="83" type="curve"/>
      <point x="170" y="83"/>
      <point x="143" y="145"/>
      <point x="143" y="218" type="curve"/>
      <point x="143" y="304"/>
      <point x="178" y="373"/>
      <point x="254" y="373" type="curve"/>
      <point x="254" y="407"/>
      <point x="255" y="415"/>
      <point x="255" y="449" type="curve"/>
      <point x="123" y="449"/>
      <point x="49" y="353"/>
      <point x="49" y="218" type="curve"/>
      <point x="49" y="89"/>
      <point x="117" y="0"/>
      <point x="233" y="0" type="curve"/>
      <point x="303" y="0"/>
      <point x="351" y="28"/>
      <point x="383" y="76" type="curve"/>
    </contour>
    <contour>
      <point x="168" y="688" type="curve"/>
      <point x="168" y="653"/>
      <point x="190" y="635"/>
      <point x="221" y="635" type="curve"/>
      <point x="252" y="635"/>
      <point x="273" y="655"/>
      <point x="273" y="688" type="curve"/>
      <point x="168" y="688"/>
      <point x="273" y="688"/>
      <point x="168" y="688" type="curve"/>
      <point x="168" y="723"/>
      <point x="190" y="739"/>
      <point x="220" y="739" type="curve"/>
      <point x="253" y="739"/>
      <point x="273" y="722"/>
      <point x="273" y="688" type="curve"/>
      <point x="168" y="688"/>
      <point x="273" y="688"/>
    </contour>
  </outline>
</glyph>
<glyph name="Atilde" format="1">
  <advance width="593"/>
  <unicode hex="00C3"/>
  <outline>
    <contour>
      <point x="109" y="78" type="curve"/>
      <point x="-25" y="78"/>
      <point x="125" y="78"/>
      <point x="-10" y="78" type="curve"/>
      <point x="-10" y="0"/>
      <point x="-10" y="78"/>
      <point x="-10" y="0" type="curve"/>
      <point x="35" y="0"/>
      <point x="64" y="0"/>
      <point x="108" y="0" type="curve"/>
      <point x="109" y="78"/>
      <point x="108" y="0"/>
    </contour>
    <contour>
      <point x="109" y="0" type="curve"/>
      <point x="160" y="0"/>
      <point x="101" y="0"/>
      <point x="254" y="0" type="curve"/>
      <point x="254" y="78"/>
      <point x="254" y="0"/>
      <point x="254" y="78" type="curve"/>
      <point x="101" y="78"/>
      <point x="262" y="78"/>
      <point x="109" y="78" type="curve"/>
      <point x="109" y="0"/>
      <point x="109" y="78"/>
    </contour>
    <contour>
      <point x="462" y="0" type="curve"/>
      <point x="506" y="0"/>
      <point x="535" y="0"/>
      <point x="580" y="0" type="curve"/>
      <point x="580" y="78"/>
      <point x="580" y="0"/>
      <point x="580" y="78" type="curve"/>
      <point x="446" y="78"/>
      <point x="596" y="78"/>
      <point x="462" y="78" type="curve"/>
      <point x="462" y="0"/>
      <point x="462" y="78"/>
    </contour>
    <contour>
      <point x="462" y="78" type="curve"/>
      <point x="308" y="78"/>
      <point x="470" y="78"/>
      <point x="316" y="78" type="curve"/>
      <point x="316" y="0"/>
      <point x="316" y="78"/>
      <point x="316" y="0" type="curve"/>
      <point x="367" y="0"/>
      <point x="410" y="0"/>
      <point x="462" y="0" type="curve"/>
      <point x="462" y="78"/>
      <point x="462" y="0"/>
    </contour>
    <contour>
      <point x="390" y="286" type="curve"/>
      <point x="325" y="286"/>
      <point x="260" y="286"/>
      <point x="194" y="286" type="curve"/>
      <point x="153" y="202"/>
      <point x="194" y="286"/>
      <point x="153" y="202" type="curve"/>
      <point x="243" y="202"/>
      <point x="332" y="202"/>
      <point x="422" y="202" type="curve"/>
      <point x="390" y="286"/>
      <point x="422" y="202"/>
    </contour>
    <contour>
      <point x="521" y="0" type="curve"/>
      <point x="462" y="241"/>
      <point x="399" y="481"/>
      <point x="341" y="722" type="curve"/>
      <point x="251" y="722"/>
      <point x="341" y="722"/>
      <point x="251" y="722" type="curve"/>
      <point x="307" y="482"/>
      <point x="360" y="240"/>
      <point x="418" y="0" type="curve"/>
      <point x="521" y="0"/>
      <point x="418" y="0"/>
    </contour>
    <contour>
      <point x="156" y="0" type="curve"/>
      <point x="219" y="240"/>
      <point x="275" y="482"/>
      <point x="339" y="722" type="curve"/>
      <point x="250" y="722"/>
      <point x="339" y="722"/>
      <point x="250" y="722" type="curve"/>
      <point x="185" y="480"/>
      <point x="112" y="242"/>
      <point x="47" y="0" type="curve"/>
      <point x="156" y="0"/>
      <point x="47" y="0"/>
    </contour>
    <contour>
      <point x="382" y="965" type="curve"/>
      <point x="367" y="925"/>
      <point x="360" y="905"/>
      <point x="341" y="905" type="curve"/>
      <point x="317" y="905"/>
      <point x="307" y="917"/>
      <point x="292" y="934" type="curve"/>
      <point x="271" y="957"/>
      <point x="261" y="970"/>
      <point x="233" y="970" type="curve"/>
      <point x="171" y="970"/>
      <point x="149" y="903"/>
      <point x="134" y="843" type="curve"/>
      <point x="208" y="801"/>
      <point x="134" y="843"/>
      <point x="208" y="801" type="curve"/>
      <point x="223" y="844"/>
      <point x="233" y="864"/>
      <point x="257" y="864" type="curve"/>
      <point x="278" y="864"/>
      <point x="285" y="852"/>
      <point x="297" y="837" type="curve"/>
      <point x="320" y="812"/>
      <point x="334" y="796"/>
      <point x="366" y="796" type="curve"/>
      <point x="428" y="796"/>
      <point x="441" y="861"/>
      <point x="461" y="925" type="curve"/>
      <point x="382" y="965"/>
      <point x="461" y="924"/>
    </contour>
  </outline>
</glyph>
<glyph name="Adieresis" format="1">
  <advance width="593"/>
  <unicode hex="00C4"/>
  <outline>
    <contour>
      <point x="109" y="78" type="curve"/>
      <point x="-25" y="78"/>
      <point x="125" y="78"/>
      <point x="-10" y="78" type="curve"/>
      <point x="-10" y="0"/>
      <point x="-10" y="78"/>
      <point x="-10" y="0" type="curve"/>
      <point x="35" y="0"/>
      <point x="64" y="0"/>
      <point x="108" y="0" type="curve"/>
      <point x="109" y="78"/>
      <point x="108" y="0"/>
    </contour>
    <contour>
      <point x="109" y="0" type="curve"/>
      <point x="160" y="0"/>
      <point x="101" y="0"/>
      <point x="254" y="0" type="curve"/>
      <point x="254" y="78"/>
      <point x="254" y="0"/>
      <point x="254" y="78" type="curve"/>
      <point x="101" y="78"/>
      <point x="262" y="78"/>
      <point x="109" y="78" type="curve"/>
      <point x="109" y="0"/>
      <point x="109" y="78"/>
    </contour>
    <contour>
      <point x="462" y="0" type="curve"/>
      <point x="506" y="0"/>
      <point x="535" y="0"/>
      <point x="580" y="0" type="curve"/>
      <point x="580" y="78"/>
      <point x="580" y="0"/>
      <point x="580" y="78" type="curve"/>
      <point x="446" y="78"/>
      <point x="596" y="78"/>
      <point x="462" y="78" type="curve"/>
      <point x="462" y="0"/>
      <point x="462" y="78"/>
    </contour>
    <contour>
      <point x="462" y="78" type="curve"/>
      <point x="308" y="78"/>
      <point x="470" y="78"/>
      <point x="316" y="78" type="curve"/>
      <point x="316" y="0"/>
      <point x="316" y="78"/>
      <point x="316" y="0" type="curve"/>
      <point x="367" y="0"/>
      <point x="410" y="0"/>
      <point x="462" y="0" type="curve"/>
      <point x="462" y="78"/>
      <point x="462" y="0"/>
    </contour>
    <contour>
      <point x="390" y="286" type="curve"/>
      <point x="325" y="286"/>
      <point x="260" y="286"/>
      <point x="194" y="286" type="curve"/>
      <point x="153" y="202"/>
      <point x="194" y="286"/>
      <point x="153" y="202" type="curve"/>
      <point x="243" y="202"/>
      <point x="332" y="202"/>
      <point x="422" y="202" type="curve"/>
      <point x="390" y="286"/>
      <point x="422" y="202"/>
    </contour>
    <contour>
      <point x="521" y="0" type="curve"/>
      <point x="462" y="241"/>
      <point x="399" y="481"/>
      <point x="341" y="722" type="curve"/>
      <point x="251" y="722"/>
      <point x="341" y="722"/>
      <point x="251" y="722" type="curve"/>
      <point x="307" y="482"/>
      <point x="360" y="240"/>
      <point x="418" y="0" type="curve"/>
      <point x="521" y="0"/>
      <point x="418" y="0"/>
    </contour>
    <contour>
      <point x="156" y="0" type="curve"/>
      <point x="219" y="240"/>
      <point x="275" y="482"/>
      <point x="339" y="722" type="curve"/>
      <point x="250" y="722"/>
      <point x="339" y="722"/>
      <point x="250" y="722" type="curve"/>
      <point x="185" y="480"/>
      <point x="112" y="242"/>
      <point x="47" y="0" type="curve"/>
      <point x="156" y="0"/>
      <point x="47" y="0"/>
    </contour>
    <contour>
      <point x="270" y="842" type="curve"/>
      <point x="270" y="876"/>
      <point x="247" y="894"/>
      <point x="217" y="894" type="curve"/>
      <point x="186" y="894"/>
      <point x="166" y="875"/>
      <point x="166" y="842" type="curve"/>
      <point x="271" y="842"/>
      <point x="165" y="842"/>
      <point x="270" y="842" type="curve"/>
      <point x="270" y="807"/>
      <point x="249" y="791"/>
      <point x="217" y="791" type="curve"/>
      <point x="185" y="791"/>
      <point x="166" y="808"/>
      <point x="166" y="842" type="curve"/>
      <point x="271" y="842"/>
      <point x="165" y="842"/>
    </contour>
    <contour>
      <point x="420" y="842" type="curve"/>
      <point x="420" y="876"/>
      <point x="398" y="894"/>
      <point x="368" y="894" type="curve"/>
      <point x="337" y="894"/>
      <point x="317" y="875"/>
      <point x="317" y="842" type="curve"/>
      <point x="422" y="842"/>
      <point x="315" y="842"/>
      <point x="420" y="842" type="curve"/>
      <point x="420" y="807"/>
      <point x="399" y="791"/>
      <point x="368" y="791" type="curve"/>
      <point x="336" y="791"/>
      <point x="317" y="808"/>
      <point x="317" y="842" type="curve"/>
      <point x="422" y="842"/>
      <point x="315" y="842"/>
    </contour>
  </outline>
</glyph>
<glyph name="Egrave" format="1">
  <advance width="492"/>
  <unicode hex="00C8"/>
  <outline>
    <contour>
      <point x="452" y="39" type="curve"/>
      <point x="452" y="159"/>
      <point x="452" y="35"/>
      <point x="452" y="155" type="curve"/>
      <point x="373" y="155"/>
      <point x="452" y="155"/>
      <point x="373" y="155" type="curve"/>
      <point x="373" y="35"/>
      <point x="373" y="159"/>
      <point x="373" y="39" type="curve"/>
      <point x="452" y="39"/>
      <point x="373" y="39"/>
    </contour>
    <contour>
      <point x="351" y="683" type="curve"/>
      <point x="351" y="563"/>
      <point x="351" y="687"/>
      <point x="351" y="567" type="curve"/>
      <point x="430" y="567"/>
      <point x="351" y="567"/>
      <point x="430" y="567" type="curve"/>
      <point x="430" y="687"/>
      <point x="430" y="563"/>
      <point x="430" y="683" type="curve"/>
      <point x="351" y="683"/>
      <point x="430" y="683"/>
    </contour>
    <contour>
      <point x="176" y="78" type="curve"/>
      <point x="45" y="78"/>
      <point x="184" y="78"/>
      <point x="54" y="78" type="curve"/>
      <point x="54" y="0"/>
      <point x="54" y="78"/>
      <point x="54" y="0" type="curve"/>
      <point x="97" y="0"/>
      <point x="133" y="0"/>
      <point x="176" y="0" type="curve"/>
      <point x="176" y="78"/>
      <point x="176" y="0"/>
    </contour>
    <contour>
      <point x="176" y="722" type="curve"/>
      <point x="133" y="722"/>
      <point x="97" y="722"/>
      <point x="54" y="722" type="curve"/>
      <point x="54" y="644"/>
      <point x="54" y="722"/>
      <point x="54" y="644" type="curve"/>
      <point x="184" y="644"/>
      <point x="45" y="644"/>
      <point x="176" y="644" type="curve"/>
      <point x="176" y="722"/>
      <point x="176" y="644"/>
    </contour>
    <contour>
      <point x="178" y="333" type="curve"/>
      <point x="248" y="333"/>
      <point x="319" y="333"/>
      <point x="389" y="333" type="curve"/>
      <point x="389" y="413"/>
      <point x="389" y="333"/>
      <point x="389" y="413" type="curve"/>
      <point x="319" y="413"/>
      <point x="248" y="413"/>
      <point x="178" y="413" type="curve"/>
      <point x="178" y="333"/>
      <point x="178" y="413"/>
    </contour>
    <contour>
      <point x="169" y="644" type="curve"/>
      <point x="256" y="644"/>
      <point x="342" y="644"/>
      <point x="430" y="644" type="curve"/>
      <point x="430" y="722"/>
      <point x="430" y="644"/>
      <point x="430" y="722" type="curve"/>
      <point x="342" y="722"/>
      <point x="256" y="722"/>
      <point x="169" y="722" type="curve"/>
      <point x="169" y="644"/>
      <point x="169" y="722"/>
    </contour>
    <contour>
      <point x="225" y="0" type="curve"/>
      <point x="225" y="722" type="line"/>
      <point x="126" y="722"/>
      <point x="225" y="722"/>
      <point x="126" y="722" type="curve"/>
      <point x="126" y="481"/>
      <point x="126" y="241"/>
      <point x="126" y="0" type="curve"/>
      <point x="225" y="0"/>
      <point x="126" y="0"/>
    </contour>
    <contour>
      <point x="169" y="0" type="curve"/>
      <point x="262" y="0"/>
      <point x="357" y="0"/>
      <point x="452" y="0" type="curve"/>
      <point x="452" y="78"/>
      <point x="452" y="0"/>
      <point x="452" y="78" type="curve"/>
      <point x="357" y="78"/>
      <point x="262" y="78"/>
      <point x="169" y="78" type="curve"/>
      <point x="169" y="0"/>
      <point x="169" y="78"/>
    </contour>
    <contour>
      <point x="308" y="797" type="line"/>
      <point x="244" y="963" type="line"/>
      <point x="124" y="963" type="line"/>
      <point x="216" y="797" type="line"/>
    </contour>
  </outline>
</glyph>
<glyph name="Edieresis" format="1">
  <advance width="492"/>
  <unicode hex="00CB"/>
  <outline>
    <contour>
      <point x="452" y="39" type="curve"/>
      <point x="452" y="159"/>
      <point x="452" y="35"/>
      <point x="452" y="155" type="curve"/>
      <point x="373" y="155"/>
      <point x="452" y="155"/>
      <point x="373" y="155" type="curve"/>
      <point x="373" y="35"/>
      <point x="373" y="159"/>
      <point x="373" y="39" type="curve"/>
      <point x="452" y="39"/>
      <point x="373" y="39"/>
    </contour>
    <contour>
      <point x="351" y="683" type="curve"/>
      <point x="351" y="563"/>
      <point x="351" y="687"/>
      <point x="351" y="567" type="curve"/>
      <point x="430" y="567"/>
      <point x="351" y="567"/>
      <point x="430" y="567" type="curve"/>
      <point x="430" y="687"/>
      <point x="430" y="563"/>
      <point x="430" y="683" type="curve"/>
      <point x="351" y="683"/>
      <point x="430" y="683"/>
    </contour>
    <contour>
      <point x="176" y="78" type="curve"/>
      <point x="45" y="78"/>
      <point x="184" y="78"/>
      <point x="54" y="78" type="curve"/>
      <point x="54" y="0"/>
      <point x="54" y="78"/>
      <point x="54" y="0" type="curve"/>
      <point x="97" y="0"/>
      <point x="133" y="0"/>
      <point x="176" y="0" type="curve"/>
      <point x="176" y="78"/>
      <point x="176" y="0"/>
    </contour>
    <contour>
      <point x="176" y="722" type="curve"/>
      <point x="133" y="722"/>
      <point x="97" y="722"/>
      <point x="54" y="722" type="curve"/>
      <point x="54" y="644"/>
      <point x="54" y="722"/>
      <point x="54" y="644" type="curve"/>
      <point x="184" y="644"/>
      <point x="45" y="644"/>
      <point x="176" y="644" type="curve"/>
      <point x="176" y="722"/>
      <point x="176" y="644"/>
    </contour>
    <contour>
      <point x="178" y="333" type="curve"/>
      <point x="248" y="333"/>
      <point x="319" y="333"/>
      <point x="389" y="333" type="curve"/>
      <point x="389" y="413"/>
      <point x="389" y="333"/>
      <point x="389" y="413" type="curve"/>
      <point x="319" y="413"/>
      <point x="248" y="413"/>
      <point x="178" y="413" type="curve"/>
      <point x="178" y="333"/>
      <point x="178" y="413"/>
    </contour>
    <contour>
      <point x="169" y="644" type="curve"/>
      <point x="256" y="644"/>
      <point x="342" y="644"/>
      <point x="430" y="644" type="curve"/>
      <point x="430" y="722"/>
      <point x="430" y="644"/>
      <point x="430" y="722" type="curve"/>
      <point x="342" y="722"/>
      <point x="256" y="722"/>
      <point x="169" y="722" type="curve"/>
      <point x="169" y="644"/>
      <point x="169" y="722"/>
    </contour>
    <contour>
      <point x="225" y="0" type="curve"/>
      <point x="225" y="722" type="line"/>
      <point x="126" y="722"/>
      <point x="225" y="722"/>
      <point x="126" y="722" type="curve"/>
      <point x="126" y="481"/>
      <point x="126" y="241"/>
      <point x="126" y="0" type="curve"/>
      <point x="225" y="0"/>
      <point x="126" y="0"/>
    </contour>
    <contour>
      <point x="169" y="0" type="curve"/>
      <point x="262" y="0"/>
      <point x="357" y="0"/>
      <point x="452" y="0" type="curve"/>
      <point x="452" y="78"/>
      <point x="452" y="0"/>
      <point x="452" y="78" type="curve"/>
      <point x="357" y="78"/>
      <point x="262" y="78"/>
      <point x="169" y="78" type="curve"/>
      <point x="169" y="0"/>
      <point x="169" y="78"/>
    </contour>
    <contour>
      <point x="239" y="842" type="curve"/>
      <point x="239" y="876"/>
      <point x="217" y="894"/>
      <point x="187" y="894" type="curve"/>
      <point x="156" y="894"/>
      <point x="136" y="875"/>
      <point x="136" y="842" type="curve"/>
      <point x="241" y="842"/>
      <point x="134" y="842"/>
      <point x="239" y="842" type="curve"/>
      <point x="239" y="807"/>
      <point x="218" y="791"/>
      <point x="187" y="791" type="curve"/>
      <point x="155" y="791"/>
      <point x="136" y="808"/>
      <point x="136" y="842" type="curve"/>
      <point x="241" y="842"/>
      <point x="134" y="842"/>
    </contour>
    <contour>
      <point x="390" y="842" type="curve"/>
      <point x="390" y="876"/>
      <point x="368" y="894"/>
      <point x="338" y="894" type="curve"/>
      <point x="307" y="894"/>
      <point x="286" y="875"/>
      <point x="286" y="842" type="curve"/>
      <point x="391" y="842"/>
      <point x="285" y="842"/>
      <point x="390" y="842" type="curve"/>
      <point x="390" y="807"/>
      <point x="369" y="791"/>
      <point x="338" y="791" type="curve"/>
      <point x="306" y="791"/>
      <point x="286" y="808"/>
      <point x="286" y="842" type="curve"/>
      <point x="391" y="842"/>
      <point x="285" y="842"/>
    </contour>
  </outline>
</glyph>
<glyph name="Igrave" format="1">
  <advance width="320"/>
  <unicode hex="00CC"/>
  <outline>
    <contour>
      <point x="159" y="722" type="curve"/>
      <point x="117" y="722"/>
      <point x="80" y="722"/>
      <point x="36" y="722" type="curve"/>
      <point x="36" y="644"/>
      <point x="36" y="722"/>
      <point x="36" y="644" type="curve"/>
      <point x="165" y="644"/>
      <point x="31" y="644"/>
      <point x="159" y="644" type="curve"/>
      <point x="159" y="722"/>
      <point x="159" y="644"/>
    </contour>
    <contour>
      <point x="159" y="644" type="curve"/>
      <point x="288" y="644"/>
      <point x="154" y="644"/>
      <point x="282" y="644" type="curve"/>
      <point x="282" y="722"/>
      <point x="282" y="644"/>
      <point x="282" y="722" type="curve"/>
      <point x="239" y="722"/>
      <point x="201" y="722"/>
      <point x="159" y="722" type="curve"/>
      <point x="159" y="644"/>
      <point x="159" y="722"/>
    </contour>
    <contour>
      <point x="159" y="0" type="curve"/>
      <point x="201" y="0"/>
      <point x="239" y="0"/>
      <point x="282" y="0" type="curve"/>
      <point x="282" y="78"/>
      <point x="282" y="0"/>
      <point x="282" y="78" type="curve"/>
      <point x="154" y="78"/>
      <point x="288" y="78"/>
      <point x="159" y="78" type="curve"/>
      <point x="159" y="0"/>
      <point x="159" y="78"/>
    </contour>
    <contour>
      <point x="159" y="78" type="curve"/>
      <point x="31" y="78"/>
      <point x="165" y="78"/>
      <point x="36" y="78" type="curve"/>
      <point x="36" y="0"/>
      <point x="36" y="78"/>
      <point x="36" y="0" type="curve"/>
      <point x="80" y="0"/>
      <point x="117" y="0"/>
      <point x="159" y="0" type="curve"/>
      <point x="159" y="78"/>
      <point x="159" y="0"/>
    </contour>
    <contour>
      <point x="208" y="0" type="curve"/>
      <point x="208" y="241"/>
      <point x="208" y="481"/>
      <point x="208" y="722" type="curve"/>
      <point x="109" y="722"/>
      <point x="208" y="722"/>
      <point x="109" y="722" type="curve"/>
      <point x="109" y="481"/>
      <point x="109" y="241"/>
      <point x="109" y="0" type="curve"/>
      <point x="208" y="0"/>
      <point x="109" y="0"/>
    </contour>
    <contour>
      <point x="207" y="797" type="line"/>
      <point x="142" y="963" type="line"/>
      <point x="22" y="963" type="line"/>
      <point x="114" y="797" type="line"/>
    </contour>
  </outline>
</glyph>
<glyph name="Iacute" format="1">
  <advance width="322"/>
  <unicode hex="00CD"/>
  <outline>
    <contour>
      <point x="162" y="722" type="curve"/>
      <point x="118" y="722"/>
      <point x="81" y="722"/>
      <point x="39" y="722" type="curve"/>
      <point x="39" y="644"/>
      <point x="39" y="722"/>
      <point x="39" y="644" type="curve"/>
      <point x="167" y="644"/>
      <point x="33" y="644"/>
      <point x="162" y="644" type="curve"/>
      <point x="162" y="722"/>
      <point x="162" y="644"/>
    </contour>
    <contour>
      <point x="162" y="644" type="curve"/>
      <point x="290" y="644"/>
      <point x="156" y="644"/>
      <point x="285" y="644" type="curve"/>
      <point x="285" y="722"/>
      <point x="285" y="644"/>
      <point x="285" y="722" type="curve"/>
      <point x="241" y="722"/>
      <point x="204" y="722"/>
      <point x="162" y="722" type="curve"/>
      <point x="162" y="644"/>
      <point x="162" y="722"/>
    </contour>
    <contour>
      <point x="162" y="0" type="curve"/>
      <point x="204" y="0"/>
      <point x="241" y="0"/>
      <point x="285" y="0" type="curve"/>
      <point x="285" y="78"/>
      <point x="285" y="0"/>
      <point x="285" y="78" type="curve"/>
      <point x="156" y="78"/>
      <point x="290" y="78"/>
      <point x="162" y="78" type="curve"/>
      <point x="162" y="0"/>
      <point x="162" y="78"/>
    </contour>
    <contour>
      <point x="162" y="78" type="curve"/>
      <point x="33" y="78"/>
      <point x="167" y="78"/>
      <point x="39" y="78" type="curve"/>
      <point x="39" y="0"/>
      <point x="39" y="78"/>
      <point x="39" y="0" type="curve"/>
      <point x="81" y="0"/>
      <point x="118" y="0"/>
      <point x="162" y="0" type="curve"/>
      <point x="162" y="78"/>
      <point x="162" y="0"/>
    </contour>
    <contour>
      <point x="210" y="0" type="curve"/>
      <point x="210" y="241"/>
      <point x="210" y="481"/>
      <point x="210" y="722" type="curve"/>
      <point x="111" y="722"/>
      <point x="210" y="722"/>
      <point x="111" y="722" type="curve"/>
      <point x="111" y="481"/>
      <point x="111" y="241"/>
      <point x="111" y="0" type="curve"/>
      <point x="210" y="0"/>
      <point x="111" y="0"/>
    </contour>
    <contour>
      <point x="208" y="795" type="line"/>
      <point x="300" y="961" type="line"/>
      <point x="180" y="961" type="line"/>
      <point x="115" y="795" type="line"/>
    </contour>
  </outline>
</glyph>
<glyph name="Icircumflex" format="1">
  <advance width="316"/>
  <unicode hex="00CE"/>
  <outline>
    <contour>
      <point x="157" y="722" type="curve"/>
      <point x="114" y="722"/>
      <point x="76" y="722"/>
      <point x="34" y="722" type="curve"/>
      <point x="34" y="644"/>
      <point x="34" y="722"/>
      <point x="34" y="644" type="curve"/>
      <point x="163" y="644"/>
      <point x="28" y="644"/>
      <point x="157" y="644" type="curve"/>
      <point x="157" y="722"/>
      <point x="157" y="644"/>
    </contour>
    <contour>
      <point x="157" y="644" type="curve"/>
      <point x="285" y="644"/>
      <point x="152" y="644"/>
      <point x="280" y="644" type="curve"/>
      <point x="280" y="722"/>
      <point x="280" y="644"/>
      <point x="280" y="722" type="curve"/>
      <point x="237" y="722"/>
      <point x="199" y="722"/>
      <point x="157" y="722" type="curve"/>
      <point x="157" y="644"/>
      <point x="157" y="722"/>
    </contour>
    <contour>
      <point x="157" y="0" type="curve"/>
      <point x="199" y="0"/>
      <point x="237" y="0"/>
      <point x="280" y="0" type="curve"/>
      <point x="280" y="78"/>
      <point x="280" y="0"/>
      <point x="280" y="78" type="curve"/>
      <point x="152" y="78"/>
      <point x="285" y="78"/>
      <point x="157" y="78" type="curve"/>
      <point x="157" y="0"/>
      <point x="157" y="78"/>
    </contour>
    <contour>
      <point x="157" y="78" type="curve"/>
      <point x="28" y="78"/>
      <point x="163" y="78"/>
      <point x="34" y="78" type="curve"/>
      <point x="34" y="0"/>
      <point x="34" y="78"/>
      <point x="34" y="0" type="curve"/>
      <point x="76" y="0"/>
      <point x="114" y="0"/>
      <point x="157" y="0" type="curve"/>
      <point x="157" y="78"/>
      <point x="157" y="0"/>
    </contour>
    <contour>
      <point x="206" y="0" type="curve"/>
      <point x="206" y="241"/>
      <point x="206" y="481"/>
      <point x="206" y="722" type="curve"/>
      <point x="106" y="722"/>
      <point x="206" y="722"/>
      <point x="106" y="722" type="curve"/>
      <point x="106" y="481"/>
      <point x="106" y="241"/>
      <point x="106" y="0" type="curve"/>
      <point x="206" y="0"/>
      <point x="106" y="0"/>
    </contour>
    <contour>
      <point x="106" y="796" type="line"/>
      <point x="199" y="962" type="line"/>
      <point x="79" y="962" type="line"/>
      <point x="13" y="796" type="line"/>
    </contour>
    <contour>
      <point x="303" y="796" type="line"/>
      <point x="238" y="962" type="line"/>
      <point x="118" y="962" type="line"/>
      <point x="210" y="796" type="line"/>
    </contour>
  </outline>
</glyph>
<glyph name="Idieresis" format="1">
  <advance width="321"/>
  <unicode hex="00CF"/>
  <outline>
    <contour>
      <point x="162" y="722" type="curve"/>
      <point x="119" y="722"/>
      <point x="81" y="722"/>
      <point x="39" y="722" type="curve"/>
      <point x="39" y="644"/>
      <point x="39" y="722"/>
      <point x="39" y="644" type="curve"/>
      <point x="167" y="644"/>
      <point x="33" y="644"/>
      <point x="162" y="644" type="curve"/>
      <point x="162" y="722"/>
      <point x="162" y="644"/>
    </contour>
    <contour>
      <point x="162" y="644" type="curve"/>
      <point x="290" y="644"/>
      <point x="156" y="644"/>
      <point x="285" y="644" type="curve"/>
      <point x="285" y="722"/>
      <point x="285" y="644"/>
      <point x="285" y="722" type="curve"/>
      <point x="242" y="722"/>
      <point x="204" y="722"/>
      <point x="162" y="722" type="curve"/>
      <point x="162" y="644"/>
      <point x="162" y="722"/>
    </contour>
    <contour>
      <point x="162" y="0" type="curve"/>
      <point x="204" y="0"/>
      <point x="242" y="0"/>
      <point x="285" y="0" type="curve"/>
      <point x="285" y="78"/>
      <point x="285" y="0"/>
      <point x="285" y="78" type="curve"/>
      <point x="156" y="78"/>
      <point x="290" y="78"/>
      <point x="162" y="78" type="curve"/>
      <point x="162" y="0"/>
      <point x="162" y="78"/>
    </contour>
    <contour>
      <point x="162" y="78" type="curve"/>
      <point x="33" y="78"/>
      <point x="167" y="78"/>
      <point x="39" y="78" type="curve"/>
      <point x="39" y="0"/>
      <point x="39" y="78"/>
      <point x="39" y="0" type="curve"/>
      <point x="81" y="0"/>
      <point x="119" y="0"/>
      <point x="162" y="0" type="curve"/>
      <point x="162" y="78"/>
      <point x="162" y="0"/>
    </contour>
    <contour>
      <point x="210" y="0" type="curve"/>
      <point x="210" y="241"/>
      <point x="210" y="481"/>
      <point x="210" y="722" type="curve"/>
      <point x="111" y="722"/>
      <point x="210" y="722"/>
      <point x="111" y="722" type="curve"/>
      <point x="111" y="481"/>
      <point x="111" y="241"/>
      <point x="111" y="0" type="curve"/>
      <point x="210" y="0"/>
      <point x="111" y="0"/>
    </contour>
    <contour>
      <point x="140" y="842" type="curve"/>
      <point x="140" y="876"/>
      <point x="118" y="894"/>
      <point x="87" y="894" type="curve"/>
      <point x="56" y="894"/>
      <point x="36" y="875"/>
      <point x="36" y="842" type="curve"/>
      <point x="141" y="842"/>
      <point x="35" y="842"/>
      <point x="140" y="842" type="curve"/>
      <point x="140" y="807"/>
      <point x="119" y="791"/>
      <point x="88" y="791" type="curve"/>
      <point x="55" y="791"/>
      <point x="36" y="808"/>
      <point x="36" y="842" type="curve"/>
      <point x="141" y="842"/>
      <point x="35" y="842"/>
    </contour>
    <contour>
      <point x="290" y="842" type="curve"/>
      <point x="290" y="876"/>
      <point x="269" y="894"/>
      <point x="238" y="894" type="curve"/>
      <point x="207" y="894"/>
      <point x="187" y="875"/>
      <point x="187" y="842" type="curve"/>
      <point x="292" y="842"/>
      <point x="185" y="842"/>
      <point x="290" y="842" type="curve"/>
      <point x="290" y="807"/>
      <point x="270" y="791"/>
      <point x="238" y="791" type="curve"/>
      <point x="206" y="791"/>
      <point x="187" y="808"/>
      <point x="187" y="842" type="curve"/>
      <point x="292" y="842"/>
      <point x="185" y="842"/>
    </contour>
  </outline>
</glyph>
<glyph name="Ntilde" format="1">
  <advance width="655"/>
  <unicode hex="00D1"/>
  <outline>
    <contour>
      <point x="159" y="722" type="curve"/>
      <point x="117" y="722"/>
      <point x="80" y="722"/>
      <point x="39" y="722" type="curve"/>
      <point x="39" y="644"/>
      <point x="39" y="722"/>
      <point x="39" y="644" type="curve"/>
      <point x="164" y="644"/>
      <point x="33" y="644"/>
      <point x="159" y="644" type="curve"/>
      <point x="159" y="722"/>
      <point x="159" y="644"/>
    </contour>
    <contour>
      <point x="508" y="644" type="curve"/>
      <point x="632" y="644"/>
      <point x="503" y="644"/>
      <point x="626" y="644" type="curve"/>
      <point x="626" y="722"/>
      <point x="626" y="644"/>
      <point x="626" y="722" type="curve"/>
      <point x="584" y="722"/>
      <point x="549" y="722"/>
      <point x="508" y="722" type="curve"/>
      <point x="508" y="644"/>
      <point x="508" y="722"/>
    </contour>
    <contour>
      <point x="506" y="722" type="curve"/>
      <point x="465" y="722"/>
      <point x="430" y="722"/>
      <point x="390" y="722" type="curve"/>
      <point x="390" y="644"/>
      <point x="390" y="722"/>
      <point x="390" y="644" type="curve"/>
      <point x="511" y="644"/>
      <point x="385" y="644"/>
      <point x="506" y="644" type="curve"/>
      <point x="506" y="722"/>
      <point x="506" y="644"/>
    </contour>
    <contour>
      <point x="158" y="78" type="curve"/>
      <point x="33" y="78"/>
      <point x="163" y="78"/>
      <point x="39" y="78" type="curve"/>
      <point x="38" y="0"/>
      <point x="39" y="78"/>
      <point x="38" y="0" type="curve"/>
      <point x="79" y="0"/>
      <point x="116" y="0"/>
      <point x="158" y="0" type="curve"/>
      <point x="158" y="78"/>
      <point x="158" y="0"/>
    </contour>
    <contour>
      <point x="158" y="0" type="curve"/>
      <point x="197" y="0"/>
      <point x="153" y="0"/>
      <point x="273" y="0" type="curve"/>
      <point x="273" y="78"/>
      <point x="273" y="0"/>
      <point x="273" y="78" type="curve"/>
      <point x="153" y="78"/>
      <point x="278" y="78"/>
      <point x="158" y="78" type="curve"/>
      <point x="158" y="0"/>
      <point x="158" y="78"/>
    </contour>
    <contour>
      <point x="556" y="0" type="curve"/>
      <point x="440" y="241"/>
      <point x="324" y="481"/>
      <point x="210" y="722" type="curve"/>
      <point x="109" y="722"/>
      <point x="210" y="722"/>
      <point x="109" y="722" type="curve"/>
      <point x="224" y="481"/>
      <point x="340" y="241"/>
      <point x="455" y="0" type="curve"/>
      <point x="556" y="0"/>
      <point x="455" y="0"/>
    </contour>
    <contour>
      <point x="455" y="722" type="curve"/>
      <point x="455" y="481"/>
      <point x="455" y="241"/>
      <point x="455" y="0" type="curve"/>
      <point x="554" y="0"/>
      <point x="455" y="0"/>
      <point x="554" y="0" type="curve"/>
      <point x="554" y="241"/>
      <point x="554" y="481"/>
      <point x="554" y="722" type="curve"/>
      <point x="455" y="722"/>
      <point x="554" y="722"/>
    </contour>
    <contour>
      <point x="207" y="0" type="curve"/>
      <point x="207" y="241"/>
      <point x="207" y="481"/>
      <point x="207" y="722" type="curve"/>
      <point x="108" y="722"/>
      <point x="207" y="722"/>
      <point x="108" y="722" type="curve"/>
      <point x="108" y="481"/>
      <point x="108" y="241"/>
      <point x="108" y="0" type="curve"/>
      <point x="207" y="0"/>
      <point x="108" y="0"/>
    </contour>
    <contour>
      <point x="425" y="965" type="curve"/>
      <point x="410" y="925"/>
      <point x="402" y="905"/>
      <point x="385" y="905" type="curve"/>
      <point x="360" y="905"/>
      <point x="350" y="917"/>
      <point x="335" y="934" type="curve"/>
      <point x="315" y="957"/>
      <point x="303" y="970"/>
      <point x="276" y="970" type="curve"/>
      <point x="215" y="970"/>
      <point x="192" y="903"/>
      <point x="177" y="843" type="curve"/>
      <point x="251" y="801"/>
      <point x="177" y="843"/>
      <point x="251" y="801" type="curve"/>
      <point x="265" y="844"/>
      <point x="276" y="864"/>
      <point x="300" y="864" type="curve"/>
      <point x="321" y="864"/>
      <point x="328" y="852"/>
      <point x="340" y="837" type="curve"/>
      <point x="363" y="812"/>
      <point x="377" y="796"/>
      <point x="410" y="796" type="curve"/>
      <point x="471" y="796"/>
      <point x="484" y="861"/>
      <point x="504" y="925" type="curve"/>
      <point x="425" y="965"/>
      <point x="504" y="924"/>
    </contour>
  </outline>
</glyph>
